<svg id="Layer_1" data-name="Layer 1" xmlns="http://www.w3.org/2000/svg" viewBox="0 0 361.43 284.73"><defs><style>.cls-1{fill:#e6e6e6;}.cls-2{fill:#fac500;}.cls-3{fill:#fff;}.cls-4{fill:#2f2e41;}.cls-5{fill:#9f616a;}</style></defs><ellipse class="cls-1" cx="165.35" cy="273.12" rx="84.96" ry="4.27"/><circle class="cls-1" cx="68.76" cy="51.23" r="42.16"/><circle class="cls-2" cx="68.76" cy="51.23" r="35.13"/><circle class="cls-1" cx="180.72" cy="51.23" r="42.16"/><circle class="cls-3" cx="180.72" cy="51.23" r="35.13"/><circle class="cls-1" cx="292.67" cy="51.23" r="42.16"/><circle class="cls-3" cx="292.67" cy="51.23" r="35.13"/><polygon class="cls-3" points="65.5 65.67 55.27 52.51 61.22 47.88 66.06 54.11 82.44 36.83 87.91 42.01 65.5 65.67"/><path class="cls-4" d="M143.47,59.83c-2.77-6.69-3.22-13,.68-18.61h0a14.09,14.09,0,0,1,14.59-13.55l.43,0,2.54.18a14,14,0,0,1,12.08,8.7c4.75,11.77,4.9,27.41,3.71,44.18H142.7C144.76,72.91,145.82,65.55,143.47,59.83Z"/><path class="cls-5" d="M98.52,80.34l-9.2-4.13A7,7,0,0,1,85.8,67a8.18,8.18,0,0,1,.47-.88h0A7,7,0,0,1,96,63.9a7.22,7.22,0,0,1,1.68,1.49l4.25,5.22,19.81,17.57,13.17-8.79,6,10.12-21.36,12.9Z"/><path class="cls-2" d="M139.86,92.49l-7.26-13.9L160.88,66l.24,2.66a14.07,14.07,0,0,1-5.81,12.73Z"/><path class="cls-5" d="M176.51,65.17,147.67,89,146,86.71l8-14.25,3.64-1.66c.88-3.7-1.35-8.66-4.31-13.92l13.93-2C167.9,59.41,171,62.85,176.51,65.17Z"/><polygon class="cls-4" points="211.31 229.91 206.5 237.04 168.22 215.32 173.52 189.14 211.31 229.91"/><path class="cls-4" d="M160.76,263.89,153,260.41l-2-91.16-7.46-49.56,29-5.46,6,12.92C193.16,147.26,171.78,208.88,160.76,263.89Z"/><path class="cls-4" d="M161.39,262.65l1.6,3.48a4.63,4.63,0,0,1-2.27,6.13,4.81,4.81,0,0,1-1.28.37l-21.13,3a4.34,4.34,0,0,1-4.79-3.11h0a4.33,4.33,0,0,1,2-4.94l17.76-8.89Z"/><path class="cls-4" d="M210.32,228.56l3.82-.28a4.63,4.63,0,0,1,5,4.27,4.55,4.55,0,0,1-.1,1.33l-4.56,20.85a4.35,4.35,0,0,1-4.59,3.4h0a4.35,4.35,0,0,1-3.94-3.6l-2.11-19.74Z"/><circle class="cls-5" cx="158.28" cy="48.26" r="13.26"/><path class="cls-2" d="M171.87,116.21l-28.84,6L142.36,103c-4.17-4.43,5.57-22.13,8.95-30.5l4.31-1.33-7.29,13.26,25.52-20.88,5,1.33L180.15,89Z"/><path class="cls-5" d="M173.85,127.82l-6.25,7.91a7,7,0,0,1-9.84,1.15,6.86,6.86,0,0,1-.74-.68h0A7,7,0,0,1,159.14,125l6.1-2.85,21.87-14.92-5.3-14.91L193.08,89l7.29,23.87Z"/><path class="cls-4" d="M175,78.09H151c.91-4.54,3.32-8.66,9.94-11.61,4.83-9.22,6.89-17.59,0-23.18-7.86-1.81-10.91-5.1-9.94-9.62l14.08-2.32C176.66,41.67,176.79,59.28,175,78.09Z"/><path class="cls-2" d="M195.73,90.69l-15.25,3.65-5.3-30.5,2.64.41A14.09,14.09,0,0,1,188.75,73Z"/></svg>