<svg id="Layer_1" data-name="Layer 1" xmlns="http://www.w3.org/2000/svg" viewBox="0 0 361.43 284.73"><defs><style>.cls-1{fill:#e6e6e6;}.cls-2{fill:#3f3d56;}.cls-3{fill:#3c4145;}.cls-4{fill:#fff;}.cls-5{opacity:0.2;isolation:isolate;}.cls-6{fill:#ffc05c;}.cls-7{fill:#ffb8b8;}.cls-8{fill:#fac500;}.cls-9{fill:#2d3133;}</style></defs><rect class="cls-1" x="238.64" y="22.38" width="1.21" height="190.6" transform="translate(-3.41 228.14) rotate(-50.67)"/><rect class="cls-1" x="143.75" y="117.38" width="190.98" height="1.21" transform="translate(-20.42 179.08) rotate(-39.49)"/><path class="cls-1" d="M356.91,0H4.52A4.52,4.52,0,0,0,0,4.52V280a4.52,4.52,0,0,0,4.52,4.52H356.91a4.54,4.54,0,0,0,3.64-1.85,4,4,0,0,0,.57-1,4.23,4.23,0,0,0,.31-1.64V4.52A4.52,4.52,0,0,0,356.91,0Zm2.72,280a2.73,2.73,0,0,1-2.72,2.71H4.52A2.71,2.71,0,0,1,1.81,280V4.52A2.71,2.71,0,0,1,4.52,1.81H356.91a2.72,2.72,0,0,1,2.72,2.71Z"/><rect class="cls-1" x="1.81" y="23.1" width="359.63" height="1.21"/><path class="cls-1" d="M311.76,248H168.32a4.22,4.22,0,0,1-4.22-4.22V196.16a4.22,4.22,0,0,1,4.22-4.22H311.76a4.22,4.22,0,0,1,4.22,4.22v47.61A4.22,4.22,0,0,1,311.76,248Z"/><path class="cls-2" d="M311.16,179.89H167.71a4.23,4.23,0,0,1-4.22-4.22V59.35a4.23,4.23,0,0,1,4.22-4.22H311.16a4.23,4.23,0,0,1,4.22,4.22V175.67A4.23,4.23,0,0,1,311.16,179.89ZM167.71,56.33a3,3,0,0,0-3,3V175.67a3,3,0,0,0,3,3H311.16a3,3,0,0,0,3-3V59.35a3,3,0,0,0-3-3Z"/><path class="cls-3" d="M334.66,201H191.22a4.22,4.22,0,0,1-4.22-4.22V80.44a4.23,4.23,0,0,1,4.22-4.22H334.66a4.23,4.23,0,0,1,4.22,4.22V196.76A4.22,4.22,0,0,1,334.66,201Z"/><path class="cls-4" d="M279.31,172.35H206.07a.82.82,0,0,1-.27,0l34.64-60a2.41,2.41,0,0,1,3.3-.92,2.54,2.54,0,0,1,.92.92L267.9,152.6l1.12,1.93Z"/><polygon class="cls-5" points="279.31 172.35 254.3 172.35 266.58 154.53 267.46 153.24 267.9 152.6 269.01 154.53 279.31 172.35"/><path class="cls-4" d="M320.08,172.35H256.74L269,154.53l.88-1.29,16-23.23a3.24,3.24,0,0,1,4.55-.52l.26.23a3.25,3.25,0,0,1,.23.29Z"/><circle class="cls-4" cx="272.34" cy="115.7" r="10.85"/><rect class="cls-3" x="194.83" y="84.66" width="13.26" height="13.26"/><path id="f57cf1cd-83f7-4fd3-a8d1-d71a660a6415" class="cls-1" d="M65.39,86.1a3.59,3.59,0,0,0,0,7.17h64.54a3.59,3.59,0,0,0,.12-7.17H65.39Z"/><path id="aee25563-7463-4829-8b3c-d6945ce6dfe7" class="cls-1" d="M65.39,104.78a3.59,3.59,0,0,0,0,7.17h64.54a3.59,3.59,0,0,0,.12-7.17H65.39Z"/><path id="aefa15f9-40e4-4075-8c80-8ab2e97e1ce3" class="cls-1" d="M65.39,123.47a3.58,3.58,0,0,0,0,7.16h64.54a3.58,3.58,0,0,0,.12-7.16H65.39Z"/><path id="a405b459-42e8-4eb5-9988-b9086189387e" class="cls-1" d="M65.39,142.15a3.59,3.59,0,0,0,0,7.17h64.54a3.59,3.59,0,0,0,.12-7.17H65.39Z"/><path id="b32f5175-a272-4d51-9048-0542c511c928" class="cls-1" d="M65.39,160.83a3.59,3.59,0,0,0,0,7.17h64.54a3.59,3.59,0,0,0,.12-7.17H65.39Z"/><path id="b3f78383-4856-4bdc-97c4-b8cb03fde67d" class="cls-1" d="M65.39,179.52a3.58,3.58,0,0,0,0,7.16h64.54a3.58,3.58,0,0,0,.12-7.16H65.39Z"/><path class="cls-1" d="M42.32,96.33A6.63,6.63,0,1,1,49,89.7h0A6.63,6.63,0,0,1,42.32,96.33Zm0-12a5.43,5.43,0,1,0,5.43,5.42h0A5.43,5.43,0,0,0,42.32,84.28Z"/><path class="cls-1" d="M42.32,115A6.63,6.63,0,1,1,49,108.38h0A6.63,6.63,0,0,1,42.32,115Zm0-12.05a5.43,5.43,0,1,0,5.43,5.42h0A5.43,5.43,0,0,0,42.32,103Z"/><path class="cls-1" d="M42.32,133.68A6.63,6.63,0,1,1,49,127.05,6.63,6.63,0,0,1,42.32,133.68Zm0-12.05a5.42,5.42,0,1,0,5.43,5.42h0A5.43,5.43,0,0,0,42.32,121.63Z"/><path class="cls-1" d="M42.32,152.36A6.63,6.63,0,1,1,49,145.73,6.63,6.63,0,0,1,42.32,152.36Zm0-12.05a5.43,5.43,0,1,0,5.43,5.42h0A5.43,5.43,0,0,0,42.32,140.31Z"/><path class="cls-1" d="M42.32,171.05A6.63,6.63,0,1,1,49,164.42,6.63,6.63,0,0,1,42.32,171.05Zm0-12.06a5.43,5.43,0,1,0,5.43,5.43h0A5.44,5.44,0,0,0,42.32,159Z"/><path class="cls-1" d="M42.32,189.73A6.63,6.63,0,1,1,49,183.1h0A6.63,6.63,0,0,1,42.32,189.73Zm0-12a5.43,5.43,0,1,0,5.43,5.42,5.42,5.42,0,0,0-5.43-5.42Z"/><circle class="cls-6" cx="42.32" cy="89.7" r="3.01"/><circle class="cls-6" cx="42.32" cy="127.07" r="3.01"/><circle class="cls-6" cx="42.32" cy="145.75" r="3.01"/><path class="cls-7" d="M124.91,160.67l1,7.32a5.15,5.15,0,0,0,5.78,4.42,5.08,5.08,0,0,0,.84-.19h0a5.13,5.13,0,0,0,2.72-7.81L130.85,158l-8.61-22.85,8.91-11.58-10.39-4.45-8.61,15.14Z"/><path class="cls-8" d="M118.38,119.71l14.84,5.63,3.63-10.06a6,6,0,0,0-2.7-7.28h0a6,6,0,0,0-7.69,1.5Z"/><path class="cls-9" d="M108,260.39l19.44.48,11.42-74.68c10.85,19.75,19.44,46.07,27,75.39l16.92-3.86c-4.71-31.21-13.35-59.34-26.41-84l.59-16.92-27-4.16a12.23,12.23,0,0,0-2.17,1.3C112.53,165.32,110.56,216.49,108,260.39Z"/><path class="cls-9" d="M170.33,284.73l6.49-.81-.85-7.79c2.63,5.3,6,7.61,10,7.15a5.06,5.06,0,0,0,4.17-3.48h0c0-.17.1-.35.14-.53a3.19,3.19,0,0,0-2.07-3.57c-4.85-1.93-6.18-10.74-7.24-20l-8,1.48.29,6.83C168.72,270.58,168.59,277.2,170.33,284.73Z"/><path class="cls-9" d="M112.15,284.73l6.5-.81-.86-7.79c2.64,5.3,6,7.61,10,7.15A5,5,0,0,0,132,279.8h0a4.61,4.61,0,0,0,.15-.53,3.2,3.2,0,0,0-2.08-3.57c-4.85-1.93-6.17-10.74-7.23-20l-8,1.48.3,6.83C110.55,270.58,110.42,277.2,112.15,284.73Z"/><circle class="cls-7" cx="147.95" cy="94.72" r="10.53"/><path class="cls-7" d="M127.29,115l14-2.38,7.12-11.87-10.09-6.53C136.3,101,132.4,108,127.29,115Z"/><path class="cls-6" d="M128.55,153.68l28.12,6.69c2.17-17.6,1.44-33-3.71-45.05a13.16,13.16,0,0,0-8.75-7.49h0l-11.88-.59h0a13.68,13.68,0,0,0-7.53,14.54C129.31,133.65,132.41,145,128.55,153.68Z"/><path class="cls-7" d="M179.9,148.69l6.56,3.4a5.14,5.14,0,0,0,6.93-2.2,4.22,4.22,0,0,0,.33-.8h0a5.15,5.15,0,0,0-3.32-6.47,5.54,5.54,0,0,0-1.51-.24l-7.77-.09-23.67-6-4.38-13.93-9.6,6L150.94,144Z"/><path class="cls-6" d="M142.6,130.56l13.12-8.93-6.17-8.74a6,6,0,0,0-7.51-2h0a6,6,0,0,0-3.17,7.16Z"/><path class="cls-9" d="M145.54,94.62c4-.57,7.48-1.61,11.52-2.18a3.27,3.27,0,0,0,2.6-1.28,2.94,2.94,0,0,0-.38-2.64,13.49,13.49,0,0,0-23.53-.2c-1.06,1.87-1.69,4-3,5.67a20.43,20.43,0,0,1-3,2.73,41.19,41.19,0,0,0-14.61,27,17.53,17.53,0,0,0,.15,5.78,8.11,8.11,0,0,0,3,4.82c2.34,1.65,5.59,1.51,8.22.38,5-2.16,8.19-7.48,9.1-12.9s-.07-11-1.29-16.31c-.45-1.95-.93-4-.35-5.93.79-2.66,4.47,1.58,6.85.14,1-.6,1-7.15,2.12-7s2.27,1.29,1.82,2.36Z"/><path class="cls-3" d="M134.79,99.48a1.34,1.34,0,0,0,.41-1.85l-1.7-2.69a1.33,1.33,0,1,0-2.26,1.42h0l1.71,2.7a1.34,1.34,0,0,0,1.84.42Z"/><circle class="cls-1" cx="16.75" cy="13.1" r="5.12"/><circle class="cls-1" cx="31.61" cy="13.1" r="5.12"/><circle class="cls-1" cx="46.46" cy="13.1" r="5.12"/></svg>