<svg id="Layer_1" data-name="Layer 1" xmlns="http://www.w3.org/2000/svg" xmlns:xlink="http://www.w3.org/1999/xlink" viewBox="0 0 361.43 284.73"><defs><style>.cls-1{fill:url(#linear-gradient);}.cls-2{fill:#535461;}.cls-3{fill:#fff;}.cls-12,.cls-4,.cls-6{opacity:0.1;}.cls-10,.cls-4,.cls-6{isolation:isolate;}.cls-5{fill:#fac500;}.cls-6{fill:#444053;}.cls-7{fill:url(#linear-gradient-2);}.cls-8{fill:#a1616a;}.cls-9{fill:#3f3d56;}.cls-10{opacity:0.15;}.cls-11{fill:#fbbebe;}.cls-13{fill:#3c4145;}</style><linearGradient id="linear-gradient" x1="303.72" y1="-3795.85" x2="303.72" y2="-3615.16" gradientTransform="matrix(1, 0, 0, -1, -123, -3559.07)" gradientUnits="userSpaceOnUse"><stop offset="0" stop-color="gray" stop-opacity="0.25"/><stop offset="0.54" stop-color="gray" stop-opacity="0.12"/><stop offset="1" stop-color="gray" stop-opacity="0.1"/></linearGradient><linearGradient id="linear-gradient-2" x1="303.33" y1="-3688.33" x2="303.33" y2="-3549.37" gradientTransform="matrix(1, 0, 0, -1, -35.84, -3440.63)" xlink:href="#linear-gradient"/></defs><path class="cls-1" d="M345.37,216H313.63a10.64,10.64,0,0,0,1.11-4.73V66.72a10.63,10.63,0,0,0-10.63-10.63H58.44A10.62,10.62,0,0,0,47.82,66.72h0V211.24a10.5,10.5,0,0,0,1.1,4.73H16.06a2.81,2.81,0,0,0-2.81,2.81h0v2.27A15.72,15.72,0,0,0,29,236.78H332.46a15.72,15.72,0,0,0,15.72-15.72h0v-2.27a2.81,2.81,0,0,0-2.79-2.83Zm-195.56,9-2.74-3.09h67.57l-3,3.1Z"/><rect class="cls-2" x="50.83" y="58.13" width="260.88" height="162.02" rx="11.49"/><rect class="cls-3" x="56.32" y="81.75" width="249.35" height="132.36"/><circle class="cls-3" cx="180.99" cy="70.22" r="2.2"/><path class="cls-2" d="M219.49,214.39l-8.57,8.78H150.53l-7.74-8.78h-123a2.74,2.74,0,0,0-2.74,2.74v2.21a15.37,15.37,0,0,0,15.36,15.37H329a15.37,15.37,0,0,0,15.37-15.37v-2.21a2.74,2.74,0,0,0-2.75-2.74Z"/><rect class="cls-4" x="94.33" y="95.77" width="49.68" height="29.16" rx="2.7"/><rect class="cls-4" x="156.96" y="95.77" width="49.68" height="29.16" rx="2.7"/><rect class="cls-5" x="95.03" y="96.17" width="48.28" height="28.34" rx="2.7"/><rect class="cls-6" x="220.28" y="96.17" width="48.28" height="28.34" rx="2.7"/><rect class="cls-5" x="157.66" y="96.17" width="48.28" height="28.34" rx="2.7"/><rect class="cls-6" x="95.03" y="137.11" width="48.28" height="28.34" rx="2.7"/><rect class="cls-6" x="220.28" y="137.11" width="48.28" height="28.34" rx="2.7"/><rect class="cls-6" x="157.66" y="137.11" width="48.28" height="28.34" rx="2.7"/><rect class="cls-6" x="95.03" y="178.04" width="48.28" height="28.34" rx="2.7"/><rect class="cls-6" x="220.28" y="178.05" width="48.28" height="28.34" rx="2.7"/><rect class="cls-6" x="157.66" y="178.05" width="48.28" height="28.34" rx="2.7"/><path class="cls-7" d="M294.76,233.2a9.83,9.83,0,0,0-2.32-1.31.46.46,0,0,0-.2,0,35.52,35.52,0,0,1-4.79-4.12l.91-.73c-1.88-.9-2.92-3-3.93-4.79a47.31,47.31,0,0,0-10.42-13c-.11-.4-.71-.31-1-.57a.82.82,0,0,1-.23-.8c.05-.29.18-.55.25-.83a5.34,5.34,0,0,0-.05-2,2.53,2.53,0,0,1,.41-1.95c.14-.16.32-.29.47-.46a1.79,1.79,0,0,0,.31-1.4,5.22,5.22,0,0,0-.31-1.42l4.59-12.53a29.6,29.6,0,0,0,2.26-9,10.73,10.73,0,0,0-2.07-7c.28-.06.55-.13.82-.21-1.78-2.37-2-5.51-2-8.49,0-1.49-.08-3-.16-4.47a16,16,0,0,0,1.58.6l.5.16a19.2,19.2,0,0,0,2.48.53c.37.05.75.09,1.12.12h0c-.54-1.35-1.08-2.7-1.61-4.05a5.46,5.46,0,0,1-.5-1.9h0v-.12a1.77,1.77,0,0,1,0-.23,3.3,3.3,0,0,1,.13-.52,1.84,1.84,0,0,1,.09-.25,4.86,4.86,0,0,1,.4-.7l.37-.51a7,7,0,0,0,1.12-1.81,3.38,3.38,0,0,0,.17-1,4.7,4.7,0,0,0-.09-1.06c0-.23-.1-.47-.17-.69h0l-.12-.42,0-.11-.11-.32,0-.1-.12-.34,0-.06c-.59-1.54-1.39-3-1.87-4.58a11.36,11.36,0,0,1-.31-1.28c0-.11,0-.22-.06-.33s0-.19,0-.28,0-.22,0-.33l0-.31c0-.1,0-.2,0-.32s0-.38,0-.57v-.87c0-.14,0-.28,0-.43a.71.71,0,0,1,0-.2,6.17,6.17,0,0,1,.09-.62h0c0-.19.06-.38.1-.56a8.3,8.3,0,0,0,.18-1.57,1.12,1.12,0,0,0,0-.31c0-.11,0-.17,0-.25v-.07a.47.47,0,0,0,0-.17.21.21,0,0,0,0-.08l-.06-.16a.29.29,0,0,0,0-.08,1.58,1.58,0,0,0-.07-.16l0-.06-.1-.2h0a4.5,4.5,0,0,0-.42-.65h0c-1-1.35-2.74-2.38-3.68-3.87a8.42,8.42,0,0,1-1.05-3.12c-.05-.25-.09-.5-.13-.75s-.09-.49-.13-.73-.06-.32-.09-.45l0-.1c0-.12-.05-.24-.07-.36l0-.08-.09-.38,0-.07c0-.13-.07-.26-.1-.39v0l-.12-.41v0c0-.14-.09-.28-.13-.42h0l-.15-.44h0c-.06-.14-.11-.29-.17-.43h0a11.66,11.66,0,0,0-1.58-2.82,7.47,7.47,0,0,0-5.94-3.07,11.79,11.79,0,0,0-3.58.91l-3,1.11.84-.39a7.2,7.2,0,0,0-2.56.55,2.47,2.47,0,0,0-1.48,2c0,.52.19,1,.12,1.54-.11.85-.89,1.43-1.29,2.18a2.68,2.68,0,0,0-.31,1.47v.2a0,0,0,0,0,0,0v.1c-1.25-.55-2.51-1.11-3.76-1.72a13.31,13.31,0,0,1-5.44-4.14c-.41-.62-.73-1.3-1.14-1.92a15.55,15.55,0,0,0-1.57-1.87l-3.83-4.15c-.3.55.08,1.2.38,1.75a8.06,8.06,0,0,1,.71,1.84.89.89,0,0,1,0,.64,1.34,1.34,0,0,1-.53.37,1.88,1.88,0,0,0-.79,2.15,2.38,2.38,0,0,0,1.78,1.54,3.64,3.64,0,0,1,.79.19c.46.23.68.76,1,1.16a4.52,4.52,0,0,0,2.48,1.24c1.42,1.63,2.89,3.2,4.31,4.84,2.15,2.48,4.35,5,7.15,6.68.29.18.59.34.89.49a.39.39,0,0,1,0,.15,1.65,1.65,0,0,0,.14,1.09,1.69,1.69,0,0,0,1.22.6l2.12.38a7.64,7.64,0,0,1-.1.82l-.09.49h0l0,.21v0a.73.73,0,0,1,0,.18c0,.06,0,0,0,.06v.41a4,4,0,0,0,1.18,2.16l.29.36a4.91,4.91,0,0,0-1,2,6.74,6.74,0,0,0-.14,1.41,2.43,2.43,0,0,0-.63,1,4.41,4.41,0,0,0-.16,1.58v.62a5.29,5.29,0,0,0,.36,2.19l.09.16c-.47.92-1.25,1.63-1.81,2.5a5.42,5.42,0,0,0,.5,6.21c.43.5,1,1,1,1.63a6.54,6.54,0,0,1-.09.89,6.51,6.51,0,0,0,.45,2.06,2.15,2.15,0,0,1-.17,1.71,2.48,2.48,0,0,0-.43,1.63,11.06,11.06,0,0,1-.27,2.67c0,.39,0,.78,0,1.16a8.12,8.12,0,0,1-.23,1.09.53.53,0,0,1,0,.12c-.78.34-1.54.69-2.28,1.1a2,2,0,0,0-.94.86,2.29,2.29,0,0,0-.05,1.19l.67,4.64-.12-.05c.05.75.11,1.52.16,2.28a3.18,3.18,0,0,0,.44,1.65,3.42,3.42,0,0,1,.47.61c.27.53,0,1.15-.28,1.69s-.31,1.32.2,1.61a4.12,4.12,0,0,0,.85.46c-.62,2.61-.05,5.34.54,8q.66,3,1.33,6a14.88,14.88,0,0,1,.29,2.58v.37a15,15,0,0,0,.63,3.51c.69,2.34,0,5.15.25,7.69a22.44,22.44,0,0,0,.73,3.63,110.65,110.65,0,0,1,3.37,18,4.54,4.54,0,0,0,2.17,1.51c-.06.76,0,1.62,0,2.06a3.59,3.59,0,0,1-.17,1.08A2.6,2.6,0,0,1,266,241l-.66.19.25-.22a5.58,5.58,0,0,0-4.16.74,1.31,1.31,0,0,0-.54,2.09,5.18,5.18,0,0,0,2.89,2,15.37,15.37,0,0,0,3.57.5l2.21.13a.59.59,0,0,0,.14.78,1.5,1.5,0,0,0,.81.29,10.33,10.33,0,0,0,2.72,0,1.1,1.1,0,0,0,.63-.23.41.41,0,0,0,0-.57s0,0,0,0a.66.66,0,0,0,.6-.43,2,2,0,0,0,.08-.8,8.38,8.38,0,0,0-.69-3.43.86.86,0,0,0-1-.43,36.84,36.84,0,0,1-.63-5.55,12.17,12.17,0,0,0,1.61-.72c-1.54-2.48-1.56-5.63-1.09-8.51.18-.91.32-1.83.41-2.76a9.15,9.15,0,0,0-1.2-5.45,19.31,19.31,0,0,1,4.87,4.41c2.17,2.81,3.48,6.22,6.13,8.57l1.06-1c.55.95,1.08,1.92,1.58,2.9a11.08,11.08,0,0,1,.92,2.29,10.58,10.58,0,0,1,.08,3.68c-.07.65-.16,1.3-.26,1.94a5.74,5.74,0,0,1-.19.82.54.54,0,0,0-.06-.25c-.17-.29-.63-.16-.88,0a4,4,0,0,0-1.07,1.25,1.33,1.33,0,0,0-.2.8,1.15,1.15,0,0,0,.63.78c1.16.68,2.61.19,3.86-.31a4.42,4.42,0,0,0,1-.49c.63-.45,1-1.19,1.59-1.63a8.16,8.16,0,0,0,1-.61c.58-.52.63-1.41,1.05-2.08.7-1.16,2.26-1.45,2.88-2.68S295.83,234.08,294.76,233.2Z"/><path class="cls-8" d="M267.81,238.7a3.46,3.46,0,0,1-.17,1.06,2.61,2.61,0,0,1-1.64,1.38c-.69.24-1.43.31-2.14.52a1.89,1.89,0,0,0-.83.43,1.52,1.52,0,0,0,.48,2.22,4.18,4.18,0,0,0,2.53.39,33.65,33.65,0,0,0,5.48-.78c.65-.16,1.41-.46,1.51-1.12a1.62,1.62,0,0,0,0-.62,37.78,37.78,0,0,1-.7-6.79,14.05,14.05,0,0,0-4,0C267.56,235.85,267.85,237.93,267.81,238.7Z"/><path class="cls-8" d="M284,230.74c.6,1,1.16,2,1.69,3a10.75,10.75,0,0,1,.92,2.25,10.35,10.35,0,0,1,.08,3.64q-.1,1-.27,1.92a2.42,2.42,0,0,1-.8,1.69,1.82,1.82,0,0,0,1.59.14,4.53,4.53,0,0,0,1.41-.86,12.39,12.39,0,0,0,4.79-8.89,1.42,1.42,0,0,0-.15-.79,1.71,1.71,0,0,0-.47-.42,35.26,35.26,0,0,1-5.54-4.66.75.75,0,0,0-.41-.26.76.76,0,0,0-.36.11c-1,.51-2.75,1.25-3.18,2.42A1.62,1.62,0,0,1,284,230.74Z"/><path class="cls-9" d="M271.47,242.33a27.67,27.67,0,0,1-7.12,1.6,1,1,0,0,1-.86-.16.65.65,0,0,1-.05-.73,1.92,1.92,0,0,1,.52-.58l1.61-1.35a5.58,5.58,0,0,0-4.1.71,1.63,1.63,0,0,0-.82.93,1.5,1.5,0,0,0,.29,1.11,5.08,5.08,0,0,0,2.88,2,15.36,15.36,0,0,0,3.57.49l2.18.13a.59.59,0,0,0,.15.77,1.52,1.52,0,0,0,.81.3,10.77,10.77,0,0,0,2.72,0,1.1,1.1,0,0,0,.63-.23.38.38,0,0,0,0-.55l0,0a.66.66,0,0,0,.6-.44,1.86,1.86,0,0,0,.08-.78,8.24,8.24,0,0,0-.68-3.38C273.34,241.32,272.23,242,271.47,242.33Z"/><path class="cls-9" d="M294.7,233.39a9.72,9.72,0,0,0-2.32-1.28.26.26,0,0,0-.38,0,.1.1,0,0,0,0,.05,24.14,24.14,0,0,0-3.41,6.59,11.4,11.4,0,0,1-1.71,3.86c-.12.15-.31.29-.47.21s-.1-.5-.23-.72-.6-.16-.87,0a3.59,3.59,0,0,0-1.07,1.25,1.27,1.27,0,0,0-.2.78,1.13,1.13,0,0,0,.61.77c1.16.67,2.62.19,3.86-.31a4.42,4.42,0,0,0,1-.49c.63-.44,1-1.17,1.59-1.6a9.6,9.6,0,0,0,1-.6c.57-.52.62-1.4,1-2.06.7-1.14,2.27-1.43,2.88-2.64S295.77,234.26,294.7,233.39Z"/><path class="cls-9" d="M277.26,170.94c2.45,1.85,3.48,5.13,3.37,8.2a28.59,28.59,0,0,1-2.25,8.89l-4.59,12.36a5.15,5.15,0,0,1,.31,1.41,1.75,1.75,0,0,1-.31,1.38c-.15.16-.31.29-.47.45a2.46,2.46,0,0,0-.41,1.92,5.62,5.62,0,0,1,.06,2c-.08.28-.21.55-.26.83a.81.81,0,0,0,.23.78c.31.26.94.17,1,.57a46.71,46.71,0,0,1,10.41,12.82c1,1.82,2,3.84,3.93,4.72a68.85,68.85,0,0,0-5.3,4.65c-2.64-2.31-3.95-5.68-6.11-8.44a19.43,19.43,0,0,0-4.87-4.35,8.94,8.94,0,0,1,1.2,5.38c-.09.91-.23,1.82-.41,2.72-.49,2.84-.45,5.94,1.09,8.4a9.22,9.22,0,0,1-5.35,1.23,4.54,4.54,0,0,1-2.91-1.67,109.77,109.77,0,0,0-3.38-17.78,21.86,21.86,0,0,1-.72-3.6c-.22-2.5.44-5.28-.26-7.59a14,14,0,0,1-.62-3.45v-.38a14.54,14.54,0,0,0-.29-2.54L259,193.94c-.58-2.59-1.16-5.28-.53-7.85a4.31,4.31,0,0,1-.85-.45c-.51-.29-.43-1-.2-1.59s.54-1.15.28-1.67a3.46,3.46,0,0,0-.47-.6,3,3,0,0,1-.44-1.63l-.16-2.26a4.52,4.52,0,0,1,2.23,2c-1.23-1.9-.63-4.62.28-6.71a3.06,3.06,0,0,1,2.87-2.27C267.06,170,273.18,167.88,277.26,170.94Z"/><path class="cls-4" d="M275,183.78s-2.46,1.64-2.46,2.88-.63,12.31-.63,12.31v7.82s.41,4.11,0,5.13,0,5.75,0,6.37.63-6.37.63-6.37v-7.4l.62-16.84Z"/><path class="cls-8" d="M261.23,126.84l-1.44-.56c-2.93-1.18-5.86-2.36-8.7-3.74a13.22,13.22,0,0,1-5.44-4.08c-.42-.62-.73-1.28-1.14-1.9a16.17,16.17,0,0,0-1.57-1.85l-3.83-4.09c-.29.54.08,1.19.38,1.73a7.41,7.41,0,0,1,.71,1.81.83.83,0,0,1,0,.62,1.19,1.19,0,0,1-.52.37,1.83,1.83,0,0,0-.79,2.12,2.36,2.36,0,0,0,1.77,1.52,4.33,4.33,0,0,1,.79.19c.46.23.68.76,1,1.15a4.63,4.63,0,0,0,2.48,1.22c1.42,1.61,2.89,3.16,4.31,4.78a31,31,0,0,0,7.14,6.59,10.61,10.61,0,0,0,3.22,1.29A53.17,53.17,0,0,1,261.23,126.84Z"/><path class="cls-10" d="M261.23,126.84l-1.44-.56c-2.93-1.18-5.86-2.36-8.7-3.74a13.22,13.22,0,0,1-5.44-4.08c-.42-.62-.73-1.28-1.14-1.9a16.17,16.17,0,0,0-1.57-1.85l-3.83-4.09c-.29.54.08,1.19.38,1.73a7.41,7.41,0,0,1,.71,1.81.83.83,0,0,1,0,.62,1.19,1.19,0,0,1-.52.37,1.83,1.83,0,0,0-.79,2.12,2.36,2.36,0,0,0,1.77,1.52,4.33,4.33,0,0,1,.79.19c.46.23.68.76,1,1.15a4.63,4.63,0,0,0,2.48,1.22c1.42,1.61,2.89,3.16,4.31,4.78a31,31,0,0,0,7.14,6.59,10.61,10.61,0,0,0,3.22,1.29A53.17,53.17,0,0,1,261.23,126.84Z"/><path class="cls-5" d="M258.6,135a1.72,1.72,0,0,1-1.22-.59,1.61,1.61,0,0,1-.14-1.08,30.48,30.48,0,0,1,1.57-6.91,7.47,7.47,0,0,0,3.37,2.73,26.27,26.27,0,0,0,3.62,1.65c-.32-.1-1.08,4.7-1.51,5s-1.86-.14-2.46-.24Z"/><circle class="cls-8" cx="261.93" cy="127.01" r="6.57"/><path class="cls-11" d="M260.6,132.45s4.31,3.69,2.46,6.16-2.87,4.1-.41,4.31,10.68-4.11,10.68-4.11-7.6-6.16-6.37-9.85S260.6,132.45,260.6,132.45Z"/><path class="cls-5" d="M264.73,138.23A5.1,5.1,0,0,0,261,142c-.48,2.21.54,4.69-.42,6.72a27.76,27.76,0,0,1-1.88,2.61,5.31,5.31,0,0,0,.49,6.13c.43.49,1,1,1,1.6a5.15,5.15,0,0,1-.09.88,6.55,6.55,0,0,0,.45,2,2.06,2.06,0,0,1-.17,1.69,2.37,2.37,0,0,0-.42,1.61,11.19,11.19,0,0,1-.27,2.63c0,.39,0,.77,0,1.15a6.56,6.56,0,0,1-.22,1.07l-.55,2a22.44,22.44,0,0,0,9.37,1.68,47,47,0,0,0,8.57-1.25c.86-.19,1.72-.37,2.56-.6-1.78-2.34-2-5.44-2-8.38a126,126,0,0,0-1.1-14.66,19.24,19.24,0,0,0,1.61-5.28,9.26,9.26,0,0,0,.2-2.23,12,12,0,0,0-1.51-4.46c-.65-1.3-1.35-2.66-2.78-3.22a2.19,2.19,0,0,0-2.14.24c-1.08.82-.76,2.23-1,3.44a4.59,4.59,0,0,1-3.34,3.12,10.92,10.92,0,0,1-3.51.33.63.63,0,0,1-.59-.66.73.73,0,0,1,.14-.37C263.8,139.33,264.3,138.76,264.73,138.23Z"/><path class="cls-8" d="M269.82,163.63a42.18,42.18,0,0,1-7.7,5.4c-1.64.83-3.39,1.44-5,2.33a2,2,0,0,0-.94.85,2.21,2.21,0,0,0-.05,1.17l.72,4.92c.19,1.33,1.47,2.18,2.5,3a1.79,1.79,0,0,1,.06-1.19l.24-.36a3.34,3.34,0,0,0,.35-2.31,12.56,12.56,0,0,1-.27-2.37.76.76,0,0,1,.33-.68c3.49-1.68,7.25-3,10.78-4.57a10.92,10.92,0,0,0,2.62-1.48,4,4,0,0,0,1.52-2.52.53.53,0,0,0-.06-.39.57.57,0,0,0-.27-.16C273.07,164.73,271.4,164.2,269.82,163.63Z"/><path class="cls-4" d="M263.07,143a3.53,3.53,0,0,0-2.89,2,4.3,4.3,0,0,0-.16,1.56,5,5,0,0,0,.37,2.17,5.88,5.88,0,0,0,.73,1.06c2.89,3.7,4.34,8.35,7.15,12.11.25.33.71.76.57,1.15a2.22,2.22,0,0,0-.14.32.62.62,0,0,0,.21.54,1.43,1.43,0,0,1,.34.5c.05.2-.08.45-.28.44a4.19,4.19,0,0,0,2.35,2.15,9.81,9.81,0,0,0,5.26,1.29,12,12,0,0,0,.62-4.3,11.09,11.09,0,0,0-1.05-3.06l-1.22-2.67a40,40,0,0,0-3.54-6.61,10.46,10.46,0,0,1-1.31-2.11c-.37-1-1.39-1.65-2-2.47a15.36,15.36,0,0,0-3.11-3.41A2.81,2.81,0,0,0,263.07,143Z"/><path class="cls-5" d="M263.07,142.39a3.55,3.55,0,0,0-2.89,2,4.54,4.54,0,0,0-.16,1.56,5,5,0,0,0,.37,2.17,5.88,5.88,0,0,0,.73,1.06c2.89,3.7,4.34,8.35,7.15,12.11.25.33.71.76.57,1.16a1.73,1.73,0,0,0-.14.31.62.62,0,0,0,.21.54,1.43,1.43,0,0,1,.34.5c.05.2-.08.46-.28.44a4.19,4.19,0,0,0,2.35,2.15,9.81,9.81,0,0,0,5.26,1.29,12,12,0,0,0,.62-4.3,10.92,10.92,0,0,0-1.05-3.05l-1.22-2.67a39.66,39.66,0,0,0-3.54-6.62,10.46,10.46,0,0,1-1.31-2.11c-.37-1-1.39-1.64-2-2.47A15.58,15.58,0,0,0,265,143,2.81,2.81,0,0,0,263.07,142.39Z"/><path class="cls-9" d="M260.31,116.21a7.31,7.31,0,0,0-2.55.54,2.47,2.47,0,0,0-1.49,2,11.12,11.12,0,0,1,.12,1.52c-.11.83-.89,1.4-1.29,2.14a3.83,3.83,0,0,0,.76,4.06c.9,1.14,2.13,2,3.06,3.15a8.12,8.12,0,0,1,1.7,6.54,5.3,5.3,0,0,0-.17,1.37,3.93,3.93,0,0,0,1.18,2.12,97.74,97.74,0,0,1,7.41,9.87,27.08,27.08,0,0,1,1.83,3.12,19.37,19.37,0,0,0,1.67,3.31,8.89,8.89,0,0,0,2.46,2.11,17.41,17.41,0,0,0,7.88,2.54l-1.61-4a4.57,4.57,0,0,1-.48-2.22c.18-1.44,1.63-2.38,2.1-3.75a4.54,4.54,0,0,0-.09-2.75c-.56-2-1.7-3.84-2.32-5.86a12.06,12.06,0,0,1-.35-5.44,8.22,8.22,0,0,0,.26-2.41c-.3-2.44-3.17-3.61-4.49-5.68a12.29,12.29,0,0,1-1.31-4.53,14.34,14.34,0,0,0-2.59-6.36,7.49,7.49,0,0,0-5.94-3,12.09,12.09,0,0,0-3.57.9l-3,1.09"/><g class="cls-12"><path d="M273.77,121.32a14.78,14.78,0,0,0,1.07,4.13c-.09-.49-.16-1-.25-1.46a17.91,17.91,0,0,0-1-3.59C273.66,120.71,273.71,121,273.77,121.32Z"/><path d="M279.31,133.94a12.11,12.11,0,0,0,.35,5.45,11.77,11.77,0,0,0,.52,1.4,11.74,11.74,0,0,1-.05-4.18,8.22,8.22,0,0,0,.26-2.41,3.76,3.76,0,0,0-.82-1.87C279.53,132.87,279.4,133.41,279.31,133.94Z"/><path d="M282.8,147.91a14.82,14.82,0,0,0-.62-1.73,4,4,0,0,1-.12,1.81c-.47,1.36-1.93,2.31-2.1,3.75a4.69,4.69,0,0,0,.48,2.22c.11.26.22.53.32.8a2,2,0,0,1,0-.35c.17-1.44,1.63-2.38,2.1-3.75A4.32,4.32,0,0,0,282.8,147.91Z"/><path d="M274.18,155.41a8.91,8.91,0,0,1-2.46-2.12,18.58,18.58,0,0,1-1.67-3.3,27.21,27.21,0,0,0-1.83-3.13,98.88,98.88,0,0,0-7.41-9.87l-.29-.33a3.24,3.24,0,0,0-.07.88,3.89,3.89,0,0,0,1.18,2.12,98.88,98.88,0,0,1,7.41,9.87,26.38,26.38,0,0,1,1.83,3.13,19.64,19.64,0,0,0,1.67,3.3,8.73,8.73,0,0,0,2.46,2.11,17.41,17.41,0,0,0,7.88,2.54l-1.09-2.69A17.33,17.33,0,0,1,274.18,155.41Z"/><path d="M258.1,127c-.94-1.13-2.16-2-3.07-3.14l-.23-.33a4.52,4.52,0,0,0,1.06,3c.9,1.15,2.13,2,3.06,3.14a7.51,7.51,0,0,1,.94,1.43A8.11,8.11,0,0,0,258.1,127Z"/></g><path class="cls-13" d="M136.06,94.88,133.8,92.6a1.22,1.22,0,0,0-1.71,0h0l-14.24,14.1-6-6.06a1.2,1.2,0,0,0-1.7,0l-2.29,2.27a1.21,1.21,0,0,0,0,1.71l9.14,9.21a1.21,1.21,0,0,0,1.71,0l17.37-17.24a1.2,1.2,0,0,0,0-1.7Z"/><path class="cls-13" d="M198.9,94.88l-2.26-2.28a1.22,1.22,0,0,0-1.71,0h0l-14.24,14.1-6-6.06a1.2,1.2,0,0,0-1.7,0l-2.29,2.27a1.21,1.21,0,0,0,0,1.71l9.14,9.21a1.21,1.21,0,0,0,1.71,0L198.9,96.59a1.2,1.2,0,0,0,0-1.7Z"/></svg>