<svg id="Layer_1" data-name="Layer 1" xmlns="http://www.w3.org/2000/svg" viewBox="0 0 361.43 284.73"><defs><style>.cls-1{fill:#e6e6e6;}.cls-2{fill:#fff;}.cls-3{fill:#3c4145;}.cls-4{fill:#ffb9b9;}.cls-5{fill:#2f2e41;}.cls-6{fill:#fbd133;}.cls-7{fill:#9f616a;}.cls-8{fill:#575a89;}.cls-9{fill:#fbbebe;}.cls-10{fill:#ffb8b8;}.cls-11{fill:#d0cde1;}</style></defs><rect class="cls-1" x="3.02" y="12.95" width="354.8" height="263.29"/><rect class="cls-2" x="14.77" y="45.97" width="331.29" height="214.69"/><rect class="cls-3" x="2.84" y="12.71" width="354.8" height="17.46"/><circle class="cls-2" cx="15.82" cy="21.64" r="3.24"/><circle class="cls-2" cx="28.11" cy="21.64" r="3.24"/><circle class="cls-2" cx="40.4" cy="21.64" r="3.24"/><rect class="cls-1" x="34.61" y="63.63" width="75.81" height="82.24"/><rect class="cls-1" x="142.81" y="63.63" width="75.81" height="82.24"/><rect class="cls-1" x="251.02" y="63.63" width="75.81" height="82.24"/><rect class="cls-1" x="34.61" y="160.76" width="75.81" height="82.24"/><rect class="cls-1" x="142.81" y="160.76" width="75.81" height="82.24"/><rect class="cls-1" x="251.02" y="160.76" width="75.81" height="82.24"/><circle class="cls-4" cx="64.06" cy="100.54" r="12.81"/><path class="cls-4" d="M59.05,110.35s1.6,7.61,1.6,8.41,7.61,4.41,7.61,4.41l6.81-1.2,2.4-7.21s-4-6-4-8.41Z"/><path class="cls-5" d="M53,90.22S57,81.4,64.81,83.44,77,88.52,77.36,91.57a43.39,43.39,0,0,1-.17,7.63s-.85-6.27-6.28-4.91-13.9.34-13.9.34l-1.35,12.2s-1.53-2.2-3.22-.85S47.52,92.93,53,90.22Z"/><path class="cls-6" d="M104.7,142.79l-3.2-14.42a26.22,26.22,0,0,0-5.61-8.81l-19.74-6.94h0a8.3,8.3,0,0,1-5.87,7.75c-6,2-10.15-4.74-10.15-4.74L43.43,128.37a16.3,16.3,0,0,0-4.8,12.82l-.55,4.68h68.16Z"/><ellipse class="cls-5" cx="171.97" cy="101.28" rx="17.39" ry="18.46"/><circle class="cls-5" cx="187.4" cy="120.07" r="9.15"/><polygon class="cls-7" points="181.03 107.81 185.93 120.56 173.51 125.79 172.42 123.32 168.61 114.68 181.03 107.81"/><circle class="cls-7" cx="171.23" cy="105.2" r="10.95"/><path class="cls-5" d="M162.28,104c6.88-4.59,8.94-5.69,16.82-3.92l.48-11.5L159.2,92.85Z"/><path class="cls-8" d="M206.52,130l-.3,0,0,0c-1.2-1.2-6.91-3.38-11.18-4.89h0c-2.71-1-4.83-1.65-4.83-1.65L185,118.2c-1.3,1.46-4,2.59-6.65,3.38A51.16,51.16,0,0,1,172.3,123h0l-1.07,3.41s-12.1,9.15-13.07,10.13h0a.57.57,0,0,0-.09.38v0a44.18,44.18,0,0,0-.93,8.88h52.66v-3.09C209.79,138.53,206.52,130,206.52,130Z"/><path class="cls-5" d="M303.35,145.87h-26l-1.44-14.15-.08-.86-.18-1.7L274.9,122l-.9,7.66-1.9,16.18h-4.73l.17-5,.18-5.11.07-2.05,1-28a20,20,0,0,1,4-12.32,15.54,15.54,0,0,1,12.57-6.08,16,16,0,0,1,12.8,6.3,20.27,20.27,0,0,1,4.18,12.51l.45,17Z"/><circle class="cls-9" cx="285.33" cy="104.23" r="11.45"/><path class="cls-9" d="M279.61,112.41s3.27,11,0,14.32a36.57,36.57,0,0,0-4.09,4.5l9.4,12.68,16.37-20s-11.46-3.28-8.59-12.28Z"/><polygon class="cls-9" points="314.94 145.87 305.28 145.87 305.12 144.21 304.97 142.69 309.42 142.13 314.78 141.46 314.84 143.17 314.94 145.87"/><path class="cls-6" d="M315.6,143.09s-1.63-10.23-2.86-14.32-2.46-4.09-2.46-4.09h0c-1.44-1.44-4.91-1.7-7.52-1.66-1.84,0-3.25.18-3.25.18l-14.58,15.39-7.35-9.77h0a10.06,10.06,0,0,0-2,.34,11.79,11.79,0,0,0-1.62.53,22.09,22.09,0,0,0-6.21,4h0a22.63,22.63,0,0,0-1.68,1.65,47.9,47.9,0,0,0-3.64,10.55h46.76l.1-2.1h0Z"/><path class="cls-5" d="M275.72,102.39c7.4-4,10.44-3.82,19.63,0l2.46-6a4.26,4.26,0,0,0-4.25-4.25H277.1a4.26,4.26,0,0,0-4.24,4.25Z"/><path class="cls-5" d="M71.51,180.66a3.05,3.05,0,0,0-1.75.39,4.68,4.68,0,0,0-1.18,1.57,18.81,18.81,0,0,1-5.09,5.75c-1.51,1.1-3.44,2.49-3.18,4.53a6.27,6.27,0,0,0,.74,1.91c1.39,2.82,5.2,5,4.83,8.21,1.38-2.32-.47-3.47.92-5.79.66-1.1,1.8-2.35,2.8-1.66.33.24.55.65.9.86.83.48,1.71-.45,2.45-1.11,2.53-2.27,6.13-1.67,9.28-1,1.49.34,3.12.78,4,2.2,1.15,1.87-1.1,3.89-1.67,6a1.15,1.15,0,0,0,.83,1.4.94.94,0,0,0,.41,0c.94-.09,2.06-.17,2.12-.58,1.19,0,2.64-.1,3.15-1.33a5.2,5.2,0,0,0,.25-1.52c.18-2.08,1.07-4,1.65-6s.84-4.29-.15-6.05A6.93,6.93,0,0,0,91.53,187C85.93,181.55,78.57,180.65,71.51,180.66Z"/><path class="cls-7" d="M67.1,207.08s1.21,10.15-3.25,11,4.06,14.62,4.06,14.62l20.3,2.44-4.87-16.24s-3.25-1.22-1.22-9.34S67.1,207.08,67.1,207.08Z"/><circle class="cls-7" cx="76.23" cy="201.6" r="12.18"/><path class="cls-6" d="M55.27,243c2.15-8.47,5.12-19.88,5.12-19.88s1.16.24,3,.5a70,70,0,0,0,8,.73,29.18,29.18,0,0,0,9.87-1.1,9.28,9.28,0,0,0,2.91-1.55,6.24,6.24,0,0,0,1-1c4.87-6.5,6.9,18.26,6.9,18.26l.37,4.05Z"/><path class="cls-10" d="M94.18,269.17H93.7l.23-.43C94,268.89,94.09,269,94.18,269.17Z"/><path class="cls-5" d="M72.11,183.85a2.72,2.72,0,0,0-1.43.28,3.27,3.27,0,0,0-1,1.1,14,14,0,0,1-4.15,4.06c-1.23.79-2.79,1.76-2.58,3.21a4,4,0,0,0,.6,1.35,10.64,10.64,0,0,1,1.29,6.63l3.39-4.92c.53-.78,1.47-1.66,2.28-1.17.27.16.45.46.73.6.68.35,1.4-.31,2-.78,2.06-1.6,5-1.18,7.56-.68a4.87,4.87,0,0,1,3.25,1.55c1.19,1.67,0,4.08.65,6a1.81,1.81,0,0,0,.73-1.17c1,0,2.15-.07,2.57-.94a3.61,3.61,0,0,0,.2-1.07,20,20,0,0,1,1.34-4.21,5,5,0,0,0-.12-4.28,4.81,4.81,0,0,0-1-1.11C83.84,184.48,77.85,183.84,72.11,183.85Z"/><path class="cls-5" d="M71,223.52a28.17,28.17,0,0,1-4.5-8h0S62,213,60.8,215.41s-12.58,8.52-13.8,8.52h0c-.49.16-6.53,2.36-8.09,10.55a60.63,60.63,0,0,0-.67,8.51H71.32c.34-3.59.59-6.95.7-9.84.14-4,0-7.19-.61-8.81A2.71,2.71,0,0,0,71,223.52Z"/><path class="cls-5" d="M99.42,225.81c0-.1,0-.18,0-.25a1.75,1.75,0,0,0-.27-.61h0c-2.35-3.64-17.43-8.64-17.43-8.64l-.57,1.95s.07,1.92.18,5c.1,2.89.22,6.78.33,11.06.08,2.79.15,5.75.22,8.69h22.56A129.87,129.87,0,0,0,99.42,225.81Z"/><path class="cls-8" d="M310.51,243l1.73-8.43,1.6-.68h0c.15.06,1.9.8,1.9,3.6,0,.56-.09,2.59-.23,5.51Z"/><circle class="cls-10" cx="292.38" cy="199.52" r="14.02"/><polygon class="cls-10" points="301.14 207.7 299.97 231.65 281.87 221.13 284.2 207.7 301.14 207.7"/><polygon class="cls-6" points="306.4 232.81 305.21 243 295.7 243 285.39 223.18 282.48 217.59 281.08 216.68 282.7 216.32 283.97 217.24 298.22 227.56 300.51 220.7 300.57 220.52 301.14 218.8 306.4 232.81"/><path class="cls-5" d="M283.91,185.79s1.75-8.76,11.68-7l-1.17.59s9.35-1.17,8.18,4.09c0,0,7.6,4.67,5.84,9.93a58.79,58.79,0,0,0-2.33,9.34L304.35,201s-1.75-11.68-12.26-10.51c-7.89.87-11.1,4.6-11.92,7.28a24.09,24.09,0,0,1-1.44,3.67l-.66.14S274.56,188.71,283.91,185.79Z"/><path class="cls-5" d="M313.85,233.89h0L306.4,227V222.3l-5.75-4.53-.08,2.75-.6,18.72-9.55-13.14L284,217.24l-1.15-1.59.28-1.48-3.57,4-12.91,9.69-1.11.83a34.88,34.88,0,0,0-3.5,4.08c-.35.52-1.93,4.65-4,10.19h57.5c.14-2.92.23-4.95.23-5.51C315.75,234.69,314,234,313.85,233.89Z"/><path class="cls-5" d="M179.56,184.12h0c-9.5,0-17.2,8.55-17.2,19.09V216.6h4.12l2.39-5-.6,5h26.48l2.17-4.51-.54,4.51h3V206.09C199.36,194,190.5,184.12,179.56,184.12Z"/><path class="cls-11" d="M165.68,243H154.49l-.1-9.12a2.81,2.81,0,0,1,0-.29l2.24-2.52,0,0,8.55,5.41Z"/><circle class="cls-9" cx="178.04" cy="202.49" r="12.24"/><path class="cls-9" d="M171,209.83s3.59,18.62,2,20.58,17.31-3.6,17.31-3.6-6.21-12.73-2.94-19.91Z"/><path class="cls-6" d="M204.24,222.42h0a2.85,2.85,0,0,0-1.41-1.37c-2.4-1-4.47-1.78-6.17-2.37a13,13,0,0,0-9.23.28c-.28.12-.57.25-.84.39,0,0-12,2.28-13.4,2l-.32-.05a4.74,4.74,0,0,0-.65,0,14.37,14.37,0,0,0-7.95,2c-3.93,2.28-9.76,6.32-9.88,10.26l-.11.12.11,9.41h52.55c.11-9,.17-15.79.17-16.25C207.11,225.33,204.24,222.42,204.24,222.42Z"/><path class="cls-5" d="M184.45,189.38a9,9,0,0,0-7.11-3.63H177c-6.51,0-11.79,5.89-11.79,13.16h2.18l.35-2.68.52,2.68H181.2l1.08-2.27-.27,2.27h2.55q1.78,8.85-5.12,17.69h4.33l2.17-4.53-.54,4.53h8.27l1.62-10.43C195.29,198.35,190.75,191.72,184.45,189.38Z"/><circle class="cls-5" cx="186.83" cy="184.04" r="6.44"/></svg>