<svg id="Layer_1" data-name="Layer 1" xmlns="http://www.w3.org/2000/svg" viewBox="0 0 361.43 284.73"><defs><style>.cls-1{fill:#e6e6e6;}.cls-2{fill:#fff;}.cls-3{fill:#3c4145;}.cls-4{fill:none;stroke:#e6e6e6;stroke-miterlimit:10;}.cls-5{fill:#2f2e41;}.cls-6{fill:#9f616a;}.cls-7{fill:#fbd133;}.cls-8{fill:#ffb8b8;}.cls-9{fill:#ffc05c;}</style></defs><rect class="cls-1" x="3.02" y="12.95" width="354.8" height="263.29"/><rect class="cls-2" x="14.77" y="45.97" width="331.29" height="214.69"/><rect class="cls-3" x="2.84" y="12.71" width="354.8" height="17.46"/><circle class="cls-2" cx="15.82" cy="21.64" r="3.24"/><circle class="cls-2" cx="28.11" cy="21.64" r="3.24"/><circle class="cls-2" cx="40.4" cy="21.64" r="3.24"/><rect class="cls-1" x="34.61" y="61.64" width="75.81" height="82.24"/><rect class="cls-4" x="132.67" y="144.38" width="192.46" height="82.24"/><path class="cls-5" d="M71.51,81.55a3.05,3.05,0,0,0-1.75.39,4.64,4.64,0,0,0-1.18,1.56,18.58,18.58,0,0,1-5.09,5.75c-1.51,1.11-3.44,2.49-3.18,4.54a6.27,6.27,0,0,0,.74,1.91c1.39,2.82,5.2,5,4.83,8.21,1.38-2.32-.47-3.47.92-5.79.66-1.11,1.8-2.35,2.8-1.66.33.23.55.65.9.85.83.49,1.71-.44,2.45-1.1,2.53-2.27,6.13-1.68,9.28-1,1.49.34,3.12.78,4,2.2,1.15,1.87-1.1,3.88-1.67,6a1.15,1.15,0,0,0,.83,1.4,1.39,1.39,0,0,0,.41,0c.94-.09,2.06-.17,2.12-.59,1.19,0,2.64-.09,3.15-1.33a5.19,5.19,0,0,0,.25-1.51c.18-2.08,1.07-4,1.65-6s.84-4.3-.15-6a6.52,6.52,0,0,0-1.29-1.57C85.93,82.44,78.57,81.54,71.51,81.55Z"/><path class="cls-6" d="M67.1,108s1.21,10.15-3.25,11,4.06,14.62,4.06,14.62L88.21,136l-4.87-16.24s-3.25-1.21-1.22-9.33S67.1,108,67.1,108Z"/><circle class="cls-6" cx="76.23" cy="102.49" r="12.18"/><path class="cls-7" d="M55.27,143.89c2.15-8.47,5.12-19.88,5.12-19.88s1.16.24,3,.5a70,70,0,0,0,8,.73,29.18,29.18,0,0,0,9.87-1.1,9.31,9.31,0,0,0,2.91-1.56,5.52,5.52,0,0,0,1-1c4.87-6.49,6.9,18.27,6.9,18.27l.37,4Z"/><path class="cls-8" d="M94.18,269.17H93.7l.23-.43C94,268.89,94.09,269,94.18,269.17Z"/><path class="cls-5" d="M72.11,84.74a2.82,2.82,0,0,0-1.43.27,3.3,3.3,0,0,0-1,1.11,14,14,0,0,1-4.15,4.06c-1.23.79-2.79,1.76-2.58,3.21a4,4,0,0,0,.6,1.35,10.64,10.64,0,0,1,1.29,6.63l3.39-4.92c.53-.78,1.47-1.66,2.28-1.17.27.16.45.46.73.6.68.34,1.4-.31,2-.78,2.06-1.61,5-1.19,7.56-.69A4.93,4.93,0,0,1,84.08,96c1.19,1.67,0,4.08.65,6a1.81,1.81,0,0,0,.73-1.17c1,0,2.15-.07,2.57-.94a3.61,3.61,0,0,0,.2-1.07,20.09,20.09,0,0,1,1.34-4.22,4.94,4.94,0,0,0-.12-4.27,4.86,4.86,0,0,0-1-1.12C83.84,85.36,77.85,84.73,72.11,84.74Z"/><path class="cls-5" d="M71,124.41a28.17,28.17,0,0,1-4.5-8h0s-4.43-2.53-5.65-.1-12.58,8.53-13.8,8.53h0c-.49.16-6.53,2.36-8.09,10.55a60.63,60.63,0,0,0-.67,8.51H71.32c.34-3.59.59-6.95.7-9.85.14-4,0-7.18-.61-8.8A2.71,2.71,0,0,0,71,124.41Z"/><path class="cls-5" d="M99.42,126.7c0-.1,0-.18,0-.26a1.71,1.71,0,0,0-.27-.6h0c-2.35-3.64-17.43-8.64-17.43-8.64l-.57,2s.07,1.92.18,5c.1,2.88.22,6.78.33,11.06.08,2.79.15,5.75.22,8.69h22.56A129.87,129.87,0,0,0,99.42,126.7Z"/><path id="f57cf1cd-83f7-4fd3-a8d1-d71a660a6415" class="cls-1" d="M140.57,62.62c-5.36.05-9.63,2.76-9.54,6s4.31,5.79,9.54,5.84H315.3c5.36,0,9.76-2.58,9.83-5.86s-4.17-6-9.51-6h-175Z"/><path id="f57cf1cd-83f7-4fd3-a8d1-d71a660a6415-2" data-name="f57cf1cd-83f7-4fd3-a8d1-d71a660a6415" class="cls-1" d="M136.2,87.17a3.59,3.59,0,0,0,0,7.17h64.54a3.59,3.59,0,0,0,.11-7.17H136.2Z"/><path id="aee25563-7463-4829-8b3c-d6945ce6dfe7" class="cls-1" d="M136.2,105.86a3.59,3.59,0,0,0,0,7.17h64.54a3.59,3.59,0,0,0,.11-7.17H136.2Z"/><path id="aefa15f9-40e4-4075-8c80-8ab2e97e1ce3" class="cls-1" d="M136.2,124.54a3.59,3.59,0,0,0,0,7.17h64.54a3.59,3.59,0,0,0,.11-7.17H136.2Z"/><path id="f57cf1cd-83f7-4fd3-a8d1-d71a660a6415-3" data-name="f57cf1cd-83f7-4fd3-a8d1-d71a660a6415" class="cls-1" d="M57.5,163.12a2.78,2.78,0,0,0,0,5.56h50.1a2.78,2.78,0,0,0,.09-5.56H57.5Z"/><path id="aee25563-7463-4829-8b3c-d6945ce6dfe7-2" data-name="aee25563-7463-4829-8b3c-d6945ce6dfe7" class="cls-1" d="M57.5,177.62a2.78,2.78,0,0,0,0,5.56h50.1a2.78,2.78,0,0,0,.09-5.56H57.5Z"/><path id="aefa15f9-40e4-4075-8c80-8ab2e97e1ce3-2" data-name="aefa15f9-40e4-4075-8c80-8ab2e97e1ce3" class="cls-1" d="M57.5,192.12a2.79,2.79,0,0,0,0,5.57h50.1a2.79,2.79,0,0,0,.09-5.57H57.5Z"/><path id="a405b459-42e8-4eb5-9988-b9086189387e" class="cls-1" d="M57.5,206.63a2.78,2.78,0,0,0,0,5.56h50.1a2.78,2.78,0,0,0,.09-5.56H57.5Z"/><path class="cls-1" d="M39.59,171.06a5.15,5.15,0,1,1,5.15-5.15h0A5.16,5.16,0,0,1,39.59,171.06Zm0-9.36a4.21,4.21,0,1,0,4.21,4.21h0A4.21,4.21,0,0,0,39.59,161.7Z"/><path class="cls-1" d="M39.59,185.56a5.15,5.15,0,1,1,5.15-5.14h0A5.15,5.15,0,0,1,39.59,185.56Zm0-9.35a4.21,4.21,0,1,0,4.21,4.21h0A4.2,4.2,0,0,0,39.59,176.21Z"/><path class="cls-1" d="M39.59,200.05a5.15,5.15,0,1,1,5.15-5.15A5.14,5.14,0,0,1,39.59,200.05Zm0-9.36a4.22,4.22,0,1,0,4.21,4.21h0A4.22,4.22,0,0,0,39.59,190.69Z"/><path class="cls-1" d="M39.59,214.56a5.15,5.15,0,1,1,5.15-5.15A5.15,5.15,0,0,1,39.59,214.56Zm0-9.36a4.21,4.21,0,1,0,4.21,4.21h0A4.2,4.2,0,0,0,39.59,205.2Z"/><circle class="cls-9" cx="39.59" cy="165.91" r="2.34"/><circle class="cls-9" cx="39.59" cy="180.4" r="2.34"/><circle class="cls-9" cx="39.59" cy="194.92" r="2.34"/><circle class="cls-9" cx="39.59" cy="209.42" r="2.34"/></svg>