<svg id="Layer_1" data-name="Layer 1" xmlns="http://www.w3.org/2000/svg" xmlns:xlink="http://www.w3.org/1999/xlink" viewBox="0 0 361.43 284.73"><defs><style>.cls-1{fill:#3c4145;}.cls-1,.cls-11,.cls-16{opacity:0.1;}.cls-1,.cls-11,.cls-14{isolation:isolate;}.cls-2{fill:url(#linear-gradient);}.cls-3{fill:#535461;}.cls-4{fill:#f6f7f9;}.cls-5{opacity:0.2;}.cls-6{fill:#fac500;}.cls-7{fill:#dce0ed;}.cls-8{fill:url(#linear-gradient-2);}.cls-9{fill:#65617d;}.cls-10{fill:#a27772;}.cls-12{fill:#fbbebe;}.cls-13{fill:#fbd133;}.cls-14{opacity:0.05;}.cls-15{fill:#7c5c5c;}</style><linearGradient id="linear-gradient" x1="191.02" y1="-3665.37" x2="191.02" y2="-3426.98" gradientTransform="matrix(1, 0, 0, -1, -59.52, -3415.65)" gradientUnits="userSpaceOnUse"><stop offset="0" stop-color="gray" stop-opacity="0.25"/><stop offset="0.54" stop-color="gray" stop-opacity="0.12"/><stop offset="1" stop-color="gray" stop-opacity="0.1"/></linearGradient><linearGradient id="linear-gradient-2" x1="330.95" y1="-3679.02" x2="330.95" y2="-3463.15" xlink:href="#linear-gradient"/></defs><path class="cls-1" d="M214.45,263.46c9.39,4.09,20.85,1.6,31.51,1.89a8.56,8.56,0,0,1,4.17.87,10.4,10.4,0,0,1,2.55,2.83c3,3.64,9.11,4.81,14.46,4.19s10.25-2.66,15.3-4.22c8.73-2.7,18.7-3.93,27.3-1a5.61,5.61,0,0,0,2.47.47c1.89-.24,2.45-2.2,3.77-3.31,2.38-2,7.56-1.47,8.6-4.13.62-1.56-.79-3.15-2.33-4.22-5.89-4.07-14.3-4.74-22-4.11s-15.26,2.36-23,2.37c-9.64,0-18.95-2.66-28.5-3.75-6.61-.75-13.83-.65-20,1.56C222,255.32,220.52,260.71,214.45,263.46Z"/><path class="cls-1" d="M36.7,250.93c16,4.61,35.6,1.8,53.79,2.13a21.38,21.38,0,0,1,7.12,1c2,.8,3,2.1,4.35,3.2,5.1,4.12,15.55,5.45,24.67,4.75s17.51-3,26.12-4.78c14.9-3,31.92-4.43,46.61-1.11a13.49,13.49,0,0,0,4.21.53c3.22-.27,4.18-2.48,6.44-3.74,4.06-2.29,12.89-1.66,14.68-4.66,1.05-1.76-1.36-3.57-4-4.77-10-4.59-24.4-5.35-37.54-4.64s-26,2.66-39.26,2.67c-16.45,0-32.35-3-48.65-4.23-11.28-.85-23.6-.75-34.18,1.76C49.59,241.74,47.06,247.83,36.7,250.93Z"/><path class="cls-2" d="M207.5,11.33H55.5a13.92,13.92,0,0,0-13.94,13.9h0v210.6A13.91,13.91,0,0,0,55.5,249.72h152a13.92,13.92,0,0,0,13.94-13.9h0V25.23a13.92,13.92,0,0,0-13.94-13.9Z"/><rect class="cls-3" x="43.7" y="14.19" width="175.59" height="233.4" rx="6.54"/><rect class="cls-4" x="52.62" y="36.27" width="157.75" height="189.25"/><circle class="cls-4" cx="130.78" cy="24.89" r="2.14"/><circle class="cls-4" cx="130.78" cy="236.17" r="6.43"/><g class="cls-5"><rect class="cls-6" x="52.62" y="36.27" width="157.75" height="9.43"/></g><circle class="cls-4" cx="57.55" cy="40.98" r="2.01"/><circle class="cls-4" cx="62.68" cy="40.98" r="2.01"/><circle class="cls-4" cx="67.8" cy="40.98" r="2.01"/><rect class="cls-7" x="57.33" y="91.9" width="146.89" height="0.49"/><rect class="cls-7" x="57.33" y="103.29" width="146.89" height="0.49"/><rect class="cls-7" x="57.33" y="114.69" width="146.89" height="0.49"/><rect class="cls-7" x="57.33" y="126.08" width="146.89" height="0.49"/><rect class="cls-7" x="57.33" y="137.48" width="146.89" height="0.49"/><g class="cls-5"><polygon class="cls-6" points="204.22 137.97 57.15 137.97 57.15 115.56 70.64 122.21 84.6 124.1 96.85 120.41 111.63 108.95 119.06 104.66 124.49 103.61 129.69 103.89 138.24 108.11 149.86 115.51 158.98 116.69 166.21 114.19 181.54 101.64 189.37 98.85 197.56 100.11 204.22 103.97 204.22 137.97"/></g><path class="cls-6" d="M82.79,124.1c-13.25,0-25.49-8.1-25.64-8.21l.36-.54c.19.13,19,12.59,35,6.34,5.84-2.29,10-5.81,14-9.24,4.2-3.57,8.16-7,13.56-8.42a20.32,20.32,0,0,1,18.12,4.07c4.4,3.62,13.16,9.42,22.42,7.69,4.71-.89,8.69-4.33,12.9-8,8.07-7,16.42-14.23,30.86-3.85l-.38.53c-14-10.08-22.17-3-30,3.81-4.28,3.71-8.32,7.2-13.21,8.13-9.52,1.79-18.47-4.13-23-7.82a19.65,19.65,0,0,0-17.53-3.94c-5.26,1.42-9.16,4.75-13.31,8.28s-8.25,7-14.19,9.35A27.39,27.39,0,0,1,82.79,124.1Z"/><circle class="cls-6" cx="128.02" cy="103.58" r="3.64"/><g class="cls-5"><path class="cls-6" d="M175.51,55.39H129.58a.76.76,0,0,0-.75.75h0V87.2a.76.76,0,0,0,.75.75.73.73,0,0,0,.54-.24l8-8.49a.74.74,0,0,1,.54-.23h36.89a.76.76,0,0,0,.75-.75h0V56.13A.75.75,0,0,0,175.51,55.39Z"/></g><rect class="cls-4" x="139.47" y="61.15" width="26.16" height="3.27"/><rect class="cls-4" x="139.47" y="68.39" width="7.18" height="3.27"/><g class="cls-5"><rect class="cls-6" x="69.74" y="161.38" width="7.18" height="3.27"/></g><g class="cls-5"><rect class="cls-6" x="69.74" y="167.7" width="7.18" height="3.27"/></g><g class="cls-5"><rect class="cls-6" x="69.74" y="174.03" width="7.18" height="3.27"/></g><g class="cls-5"><rect class="cls-6" x="69.74" y="180.36" width="7.18" height="3.27"/></g><g class="cls-5"><rect class="cls-6" x="69.74" y="186.68" width="7.18" height="3.27"/></g><g class="cls-5"><rect class="cls-6" x="69.74" y="193" width="7.18" height="3.27"/></g><g class="cls-5"><rect class="cls-6" x="69.74" y="199.33" width="7.18" height="3.27"/></g><g class="cls-5"><rect class="cls-6" x="69.74" y="205.65" width="7.18" height="3.27"/></g><g class="cls-5"><rect class="cls-6" x="83.26" y="208.93" width="7.18" height="3.27"/></g><g class="cls-5"><rect class="cls-6" x="95.91" y="208.93" width="7.18" height="3.27"/></g><g class="cls-5"><rect class="cls-6" x="108.56" y="208.93" width="7.18" height="3.27"/></g><g class="cls-5"><rect class="cls-6" x="121.21" y="208.93" width="7.18" height="3.27"/></g><g class="cls-5"><rect class="cls-6" x="133.86" y="208.93" width="7.18" height="3.27"/></g><g class="cls-5"><rect class="cls-6" x="146.51" y="208.93" width="7.18" height="3.27"/></g><g class="cls-5"><rect class="cls-6" x="159.16" y="208.93" width="7.18" height="3.27"/></g><g class="cls-5"><rect class="cls-6" x="171.81" y="208.93" width="7.18" height="3.27"/></g><g class="cls-5"><rect class="cls-6" x="184.46" y="208.93" width="7.18" height="3.27"/></g><rect class="cls-4" x="154.72" y="68.39" width="10.9" height="3.27"/><rect class="cls-6" x="83.26" y="185.15" width="7.18" height="20.5"/><rect class="cls-6" x="95.91" y="175.66" width="7.18" height="29.99"/><rect class="cls-6" x="108.56" y="167.7" width="7.18" height="37.95"/><rect class="cls-6" x="121.21" y="171.83" width="7.18" height="33.82"/><rect class="cls-6" x="133.86" y="164.65" width="7.18" height="41"/><g class="cls-5"><rect class="cls-6" x="146.51" y="180.36" width="7.18" height="25.3"/></g><g class="cls-5"><rect class="cls-6" x="159.16" y="180.36" width="7.18" height="25.3"/></g><g class="cls-5"><rect class="cls-6" x="171.81" y="180.36" width="7.18" height="25.3"/></g><g class="cls-5"><rect class="cls-6" x="184.46" y="180.36" width="7.18" height="25.3"/></g><path class="cls-8" d="M303.68,88.81A90.42,90.42,0,0,0,293,83.22l-.16-.11a6.52,6.52,0,0,1-2-2.48v-.48c.13-2.37,1.81-4.52,3.41-6.4l4.09-4.81a4.87,4.87,0,0,0,1.05-1.67,3.94,3.94,0,0,0,.11-1v-.42c0-1.2-.05-2.39-.1-3.6,0-1-.3-2.36-1.35-2.58-.54-.11-1.26.09-1.55-.38a.88.88,0,0,1-.06-.62,0,0,0,0,0,0,.05v-.06a14.53,14.53,0,0,0,.39-2.45,3.5,3.5,0,0,0-.17-1.25c-.61-1.73-2.69-2.44-4.53-2.77s-3.91-.61-5.06-2.05c-.36-.44-.6-1-1-1.38a4.1,4.1,0,0,0-1.89-.93,10.65,10.65,0,0,0-6.84.6,6.2,6.2,0,0,1-2.76.87c-1-.06-1.88-.76-2.88-.93-1.62-.28-3.16.91-4,2.31A5.73,5.73,0,0,0,267,53.4v.16h0a4,4,0,0,0,1.05,2.79c.7.72,1.74,1.22,2,2.17.12.39.09.81.2,1.2a.57.57,0,0,0,0,.14l-.05.07a12.08,12.08,0,0,0-2.56,7.49,12.38,12.38,0,0,0,8.71,11.75v.37a5.27,5.27,0,0,1-1.69,4.12l-11,4.43s-6.63-.79-9,8.91a16.62,16.62,0,0,0-.41,4.92,14.36,14.36,0,0,1-1.82,7.38c-2.72,5.33-2.1,17.57,3.47,18.79,5.26,1.14,7.31.65,7.52.61v.21c-.08,2.29-.92,22.11-3.95,24.51-.84.66-.68,1.11,0,1.41,0,0,0,.13,0,.36-.09,1.45-.56,7-2.59,10.11-2.35,3.63-2.1,24.61-2.1,24.61l-1.58,12.37s1,7.64,0,9c-.89,1.18-2.06,29.44-2.29,35.56h-.11a3,3,0,0,0-2.38,1.45c-1.31,2.11-5.85,6-5.85,6-1,1.4-4.64,2.74-6.58,3.37a4.5,4.5,0,0,0-.74.33,3.9,3.9,0,0,0-1.66,1.75,1.86,1.86,0,0,0-.18,1.46c.49,1.21,10.77,2.06,13.36.85,2.05-1,10.15-2.21,13.51-2.7a2.78,2.78,0,0,0,2.4-2.4,1.6,1.6,0,0,0-.33-1.21h0c-.65-.8-1-3-1.12-4.39a2.93,2.93,0,0,0,.76-.45,32.17,32.17,0,0,1,1.85-13c2.48-6.54,3.22-18.67,2.62-26.55,0,0,7.55-32.48,13.49-35.52h0c.09.12,3,3.82,3.34,15.28a46.31,46.31,0,0,0,4.58,19.27s-1.86,19.76,0,27.15l-2.43,11.67-.29-.27s.07.32.17.84l-.05.25.11,0a23.07,23.07,0,0,1,.51,5.49c-.1.85-.33,2-.5,3.16-.25,1.79-.32,3.53.62,3.92,1.55.63,10.65,1.48,12.2-.52a2.9,2.9,0,0,0,.45-3,3.62,3.62,0,0,0-.45-.76s-2.42-4-1.74-6.73a2,2,0,0,0-.29-1.6A82.24,82.24,0,0,1,298.26,237c1.55-5.83,4.81-18.62,2.41-27h0c-.09-.33-.2-.65-.31-1A36.17,36.17,0,0,1,299,194.77a29,29,0,0,1,0-12.37c1.49-6.79,2.52-13.46,2.52-13.46s.82-9,.11-14.46l-.05-.36L302,154s-2.1-9.34-2.84-15.28c-.18-1.4-.41-3.17-.66-5.07a12.68,12.68,0,0,0,2-.5c6.66-2.32,8.75-23.16,8.75-23.16v-6.61S311.48,93.3,303.68,88.81Zm-49.79,161-.33-.17h0Z"/><path class="cls-9" d="M299.65,209.13c2.9,8.33-.49,21.86-2.06,27.9a84.24,84.24,0,0,0-2,13.29,27.78,27.78,0,0,1-10.63-.25l2.54-12.43c-1.82-7.36,0-27.06,0-27.06a46.86,46.86,0,0,1-4.47-19.2c-.36-11.42-3.17-15.11-3.27-15.22h0c-5.8,3-13.17,35.4-13.17,35.4.6,7.85-.12,19.93-2.54,26.45a32.83,32.83,0,0,0-1.81,12.93,4,4,0,0,1-3.29.63c-3.44-.58-7.56-3.55-7.56-3.55s1.31-35.27,2.29-36.6,0-8.94,0-8.94l1.57-12.32s-.24-20.9,2.05-24.54c2-3.13,2.44-8.63,2.53-10.07,0-.23,0-.36,0-.36l3.5-4.18s33.83-2.54,36.36,0c.63.62,1,2,1.24,3.82.7,5.48-.1,14.42-.1,14.42s-1,6.64-2.47,13.41a29.4,29.4,0,0,0,0,12.32A36.78,36.78,0,0,0,299.65,209.13Z"/><path class="cls-10" d="M297.54,262.1c-1.52,2-10.4,1.14-11.91.52-.92-.38-.85-2.11-.6-3.9.16-1.14.39-2.29.49-3.15a28.9,28.9,0,0,0-.73-6.58s2,2.11,2.48,0a2.31,2.31,0,0,1,1.72-1.64,4.53,4.53,0,0,1,3.14.2c1.56.68,4.18,2.13,3.71,4.1-.65,2.77,1.7,6.71,1.7,6.71a3.11,3.11,0,0,1,.43.75A2.9,2.9,0,0,1,297.54,262.1Z"/><path class="cls-11" d="M297.54,262.1c-1.52,2-10.4,1.14-11.91.52-.92-.38-.85-2.11-.6-3.9a10.26,10.26,0,0,0,5.28.56,17.16,17.16,0,0,1,1.9,0,44.28,44.28,0,0,0,5.76-.12A2.9,2.9,0,0,1,297.54,262.1Z"/><path class="cls-11" d="M266.55,211.54c.6,7.85-.12,19.93-2.54,26.46a32.81,32.81,0,0,0-1.81,12.92,3.94,3.94,0,0,1-3.29.63c.73-5.1,3.84-27.05,5.84-44.39a72.48,72.48,0,0,1,12.85-33.34l2.12,2.33C273.91,179.16,266.55,211.54,266.55,211.54Z"/><path class="cls-12" d="M293.91,84.58l-1.48,7.25L285.21,104l-8.91-3.81s-12.1-12.68-4.5-14.49a6.65,6.65,0,0,0,2.53-1.13,5.18,5.18,0,0,0,2-4.37,13.77,13.77,0,0,0-1.23-5.2l15.58-4.9a25,25,0,0,0-1.12,6.31c-.12,4.25,1.46,6.33,2.75,7.33A4.63,4.63,0,0,0,293.91,84.58Z"/><path class="cls-11" d="M290.65,70.08a24.67,24.67,0,0,0-1.12,6.32,11.75,11.75,0,0,1-.91,1,12.32,12.32,0,0,1-12.32,2.81,13.77,13.77,0,0,0-1.23-5.2Z"/><path class="cls-12" d="M292.43,68.09a12.32,12.32,0,1,1-12.31-12.32h0A12.26,12.26,0,0,1,292.43,68,.14.14,0,0,1,292.43,68.09Z"/><path class="cls-11" d="M293.91,84.58l-1.48,7.25L285.21,104l-8.91-3.81s-12.1-12.68-4.5-14.49a6.65,6.65,0,0,0,2.53-1.13c-1.37,3.78,4.3,11.64,4.3,11.64.65,1,2.17.36,2.17.36,3.66-.55,10.39-11.06,11.48-12.81A4.8,4.8,0,0,0,293.91,84.58Z"/><path class="cls-11" d="M300.89,154.85c-2.15.49-14,3.12-18.52,2.46-4.95-.73-14.58-1.21-14.58-1.21s-6.13.33-8-.53a2.63,2.63,0,0,1,0-.36l3.5-4.18s33.82-2.54,36.36,0C300.27,151.64,300.66,153.06,300.89,154.85Z"/><path class="cls-13" d="M278.63,96.54s-6.37-8.84-4-12.27l-10.77,4.41s-6.48-.78-8.83,8.89a16.55,16.55,0,0,0-.4,4.91,14.75,14.75,0,0,1-1.78,7.35c-2.66,5.31-2,17.51,3.39,18.72s7.36.6,7.36.6-.72,22.11-3.86,24.65,8,1.93,8,1.93,9.64.49,14.59,1.21,18.84-2.54,18.84-2.54-2.05-9.3-2.77-15.22S296,120.66,296,120.66L308.33,104s2.17-10.08-5.44-14.55-10.46-5.56-10.46-5.56-7.64,12.43-11.63,13C280.8,96.9,279.29,97.51,278.63,96.54Z"/><path class="cls-11" d="M264.5,100s-.12,4,.6,5.56,3.38,10.27,3.38,10.27h-6s3.27-3.5,3-5.19S264.5,100,264.5,100Z"/><path class="cls-12" d="M282.37,130.12s-13.34-3.27-14.58-6-4.67-9-4.67-9l1.4-1.9,6.49,5.09s7.73,6.16,11.36,6.77S282.37,130.12,282.37,130.12Z"/><path class="cls-14" d="M282.37,130.12s-13.34-3.27-14.58-6-4.67-9-4.67-9l1.4-1.9,6.49,5.09s7.73,6.16,11.36,6.77S282.37,130.12,282.37,130.12Z"/><path class="cls-12" d="M293.91,114.42v7.23h-1.16a34,34,0,0,0-16.43,4.26l-2.18,1.21-.59.33L269.81,119l3.5-3.14h.18c.86.08,4.57.39,6.14-.14s3.34-2.11,7.73-1c2.17.55,4,3,6.12,2.22Z"/><path class="cls-11" d="M305.57,101.25,308,104v6.58s-2.05,20.78-8.57,23.08-18.17-1.34-18.17-1.34-3-8-1.6-8.45,12.43-3.4,12.43-3.4-.16-12.19,2.26-15.81c0,0-1.57-11.35,3.87-11.59S305.57,101.25,305.57,101.25Z"/><path class="cls-13" d="M305.93,101.25l2.42,2.72v6.58s-2.05,20.78-8.59,23.08-18.17-1.34-18.17-1.34-3-8-1.6-8.45,12.43-3.4,12.43-3.4-.16-12.19,2.26-15.81c0,0-1.57-11.35,3.87-11.59S305.93,101.25,305.93,101.25Z"/><path class="cls-11" d="M289.06,73.32a4.91,4.91,0,0,0-.28-2.35,1.82,1.82,0,0,0-1.92-1.1c-1,.24-1.48,1.58-2.49,1.91a2,2,0,0,1-2.19-1.13,5.72,5.72,0,0,1-.42-2.62V65a5,5,0,0,0-.72-3.15c-.84-1.07-2.82-1.54-4.14-1.5a3.47,3.47,0,0,0-2.36,1,3.06,3.06,0,0,1-2.49.88,2.14,2.14,0,0,1-1.74-1.5v0A12.32,12.32,0,0,1,290,75.53,11.63,11.63,0,0,1,288.63,77,35,35,0,0,0,289.06,73.32Z"/><path class="cls-15" d="M272,61.82a2.15,2.15,0,0,1-1.73-1.5c-.11-.39-.08-.81-.19-1.2-.28-.95-1.31-1.44-2-2.16-1.36-1.45-1.27-3.82-.3-5.56.77-1.4,2.29-2.58,3.86-2.31,1,.17,1.82.87,2.81.93a5.85,5.85,0,0,0,2.7-.87,10.08,10.08,0,0,1,6.67-.59,3.78,3.78,0,0,1,1.84.92,15,15,0,0,1,1,1.38c1.13,1.44,3.15,1.72,4.94,2s3.83,1,4.42,2.76a7.3,7.3,0,0,1-.21,3.58,1,1,0,0,0,0,.74c.28.46,1,.27,1.51.38,1,.21,1.29,1.52,1.31,2.56,0,1.2.08,2.39.1,3.58a3.51,3.51,0,0,1-1.13,3l-4,4.8c-1.77,2.12-3.65,4.6-3.29,7.34a1.7,1.7,0,0,1-2.11-1.23,5.44,5.44,0,0,1,.13-2.71,34.29,34.29,0,0,0,.63-4.72,4.76,4.76,0,0,0-.27-2.35,1.8,1.8,0,0,0-1.92-1.11c-1,.24-1.48,1.58-2.49,1.91a2,2,0,0,1-2.19-1.13,5.86,5.86,0,0,1-.43-2.62v-3a5,5,0,0,0-.71-3.15c-.84-1.07-2.82-1.54-4.14-1.5a3.49,3.49,0,0,0-2.37,1A3.11,3.11,0,0,1,272,61.82Z"/><path class="cls-11" d="M274.82,99.74l3.79,15.54S281.59,115.26,274.82,99.74Z"/><path class="cls-11" d="M287.75,97.14s-4.95,8.11-3,16.5l.92.07S284,109.83,287.75,97.14Z"/><path class="cls-11" d="M290.89,143.05s6.08-2,6.52,2.65C297.41,145.7,296.27,142.5,290.89,143.05Z"/><path class="cls-11" d="M273.31,116.24s-1.2,8.46,1,11.84a26.35,26.35,0,0,1-10.63,1.45l-.73-13.29Z"/><path class="cls-11" d="M274.14,127.12l-.59.32L269.81,119l3.5-3.14h.18C273.44,116.27,272.46,123.54,274.14,127.12Z"/><path class="cls-13" d="M273.31,115.87s-1.2,8.45,1,11.83a26.35,26.35,0,0,1-10.63,1.45l-4.22-13.28Z"/><path class="cls-10" d="M262.86,257a2.74,2.74,0,0,1-2.34,2.4c-3.27.49-11.18,1.74-13.18,2.69-2.54,1.2-12.56.36-13.05-.85a1.93,1.93,0,0,1,.18-1.45A3.87,3.87,0,0,1,236.1,258a3.41,3.41,0,0,1,.73-.33c1.89-.63,5.45-2,6.42-3.37,0,0,4.44-3.89,5.71-6a2.91,2.91,0,0,1,2.32-1.44c1.06-.05,2.24.48,2.72,2.8,0,0,5.8,3.31,7.37.41,0,0,.24,4.45,1.2,5.67h0A1.59,1.59,0,0,1,262.86,257Z"/><path class="cls-11" d="M262.86,257a2.74,2.74,0,0,1-2.34,2.4c-3.27.49-11.18,1.74-13.18,2.69-2.54,1.2-12.56.36-13.05-.85a1.93,1.93,0,0,1,.18-1.45A3.87,3.87,0,0,1,236.1,258c1.64,1.08,5.27,2.14,13.25.89,7.61-1.18,11.38-2.35,13.22-3.14h0A1.6,1.6,0,0,1,262.86,257Z"/><g class="cls-16"><path d="M295.83,59.42v-.06a11.3,11.3,0,0,0,.37-2.75,16.44,16.44,0,0,1-.37,2.21A1.22,1.22,0,0,0,295.83,59.42Z"/><path d="M288.78,70.72a3.68,3.68,0,0,1,.3,1.38,4.22,4.22,0,0,0-.3-1.92,1.82,1.82,0,0,0-1.92-1.11c-1,.24-1.48,1.59-2.49,1.91a2,2,0,0,1-2.19-1.13,5.68,5.68,0,0,1-.42-2.62v-3a5,5,0,0,0-.72-3.14c-.84-1.08-2.82-1.55-4.14-1.5a3.51,3.51,0,0,0-2.36.95,3.1,3.1,0,0,1-2.49.89,2.17,2.17,0,0,1-1.74-1.5c-.1-.39-.07-.81-.19-1.2-.28-1-1.31-1.44-2-2.16a3.91,3.91,0,0,1-1-2.56,4.13,4.13,0,0,0,1,3.1c.68.72,1.69,1.22,2,2.17.12.38.09.8.19,1.19a2.17,2.17,0,0,0,1.74,1.5,3,3,0,0,0,2.49-.89,3.51,3.51,0,0,1,2.36-.95c1.31,0,3.3.43,4.14,1.5a5.06,5.06,0,0,1,.72,3.15v3a5.47,5.47,0,0,0,.42,2.61,2,2,0,0,0,2.19,1.14c1-.33,1.46-1.67,2.49-1.91A1.81,1.81,0,0,1,288.78,70.72Z"/><path d="M298.71,67.4a4.63,4.63,0,0,1-1,1.66l-4,4.79c-1.68,2-3.46,4.36-3.33,6.93.13-2.36,1.77-4.51,3.33-6.39l4-4.78a4.67,4.67,0,0,0,1-1.67,4.44,4.44,0,0,0,.1-1.31A3.32,3.32,0,0,1,298.71,67.4Z"/><path d="M288.31,80a2.41,2.41,0,0,1-.12-.65,3,3,0,0,0,.12,1.19,1.7,1.7,0,0,0,2.11,1.22,4.75,4.75,0,0,1-.05-.53A1.68,1.68,0,0,1,288.31,80Z"/></g><path class="cls-11" d="M248.15,249.39s1.26,2.23,5.84.27"/><path class="cls-11" d="M286.83,249.94s3.95,4.65,8.92,1.52"/><path class="cls-11" d="M298.32,195s-2.79,1.74-2.88,2.74,1.44-.73,1.44-.73Z"/><path class="cls-11" d="M299.43,208.35a5.93,5.93,0,0,1-3.44,1.34c-2.08.09-1.91,2.81-.55,2A34.43,34.43,0,0,0,299.43,208.35Z"/><path class="cls-11" d="M300,210.09s-1.34,6.58-2.42,5.31"/></svg>