<svg id="Layer_1" data-name="Layer 1" xmlns="http://www.w3.org/2000/svg" viewBox="0 0 361.43 284.73"><defs><style>.cls-1{fill:#3c4145;}.cls-2{fill:#e6e6e6;}.cls-3{fill:#fff;}.cls-4{fill:#fac500;}.cls-5{fill:#00649a;}.cls-6{fill:#fec601;}</style></defs><path class="cls-1" d="M48.94,66.2a2,2,0,0,0-2,2V279.93a2,2,0,0,0,2,2.05H314.36a2,2,0,0,0,2-2.05V102.23a2,2,0,0,0-2-2H162a6.19,6.19,0,0,1-4.18-1.61L123.6,67.45a4.8,4.8,0,0,0-3.23-1.25Z"/><path class="cls-2" d="M171.52,38.85a1.44,1.44,0,0,0-2,.51L90.94,173.11a1.45,1.45,0,0,0,.51,2L199.2,238.42a1.46,1.46,0,0,0,2-.52l78.6-133.75a1.45,1.45,0,0,0-.52-2Z"/><path class="cls-3" d="M173.17,45.2a1.44,1.44,0,0,0-2,.51L97.29,171.46a1.45,1.45,0,0,0,.51,2l99.75,58.62a1.46,1.46,0,0,0,2-.52l73.9-125.75a1.45,1.45,0,0,0-.52-2Z"/><path class="cls-2" d="M154.32,107.32l73.5,43.19a2.18,2.18,0,0,0,2.22-3.75h0l-73.5-43.19a2.17,2.17,0,1,0-2.21,3.74Z"/><path class="cls-2" d="M174.22,72,223,100.66c.68.41,1.73-.11,2.34-1.14s.55-2.2-.14-2.61L176.43,68.26c-.69-.41-1.74.11-2.35,1.14S173.54,71.6,174.22,72Z"/><path class="cls-2" d="M167.91,82.76l48.76,28.65c.69.41,1.74-.11,2.35-1.14s.54-2.2-.15-2.61L170.11,79c-.69-.41-1.74.11-2.35,1.14S167.22,82.35,167.91,82.76Z"/><path class="cls-2" d="M147.2,119.44l73.5,43.19a2.17,2.17,0,1,0,2.2-3.75h0l-73.5-43.19a2.17,2.17,0,0,0-2.2,3.75Z"/><path class="cls-2" d="M140.07,131.57l73.5,43.19a2.18,2.18,0,0,0,2.21-3.75l-73.5-43.19a2.17,2.17,0,1,0-2.21,3.74Z"/><path class="cls-2" d="M133,143.69l73.5,43.19a2.17,2.17,0,1,0,2.2-3.75l-73.5-43.19a2.18,2.18,0,1,0-2.21,3.75Z"/><path class="cls-2" d="M125.82,155.82,199.32,199a2.18,2.18,0,0,0,2.22-3.75h0L128,152.07a2.18,2.18,0,0,0-2.21,3.75Z"/><path class="cls-2" d="M118.7,167.94l73.5,43.19a2.17,2.17,0,0,0,2.2-3.75l-73.5-43.19a2.18,2.18,0,0,0-2.21,3.75Z"/><circle class="cls-2" cx="238.23" cy="114.5" r="11.45"/><path class="cls-2" d="M80.08,77.37a1.44,1.44,0,0,0-1.72,1.11L46.08,230.22a1.45,1.45,0,0,0,1.12,1.72l122.24,26a1.44,1.44,0,0,0,1.72-1.11l32.28-151.74a1.45,1.45,0,0,0-1.12-1.72Z"/><path class="cls-3" d="M83.65,82.87A1.45,1.45,0,0,0,81.93,84L51.58,226.65a1.46,1.46,0,0,0,1.12,1.72l113.17,24.07a1.45,1.45,0,0,0,1.72-1.12l30.34-142.66a1.44,1.44,0,0,0-1.11-1.72Z"/><path class="cls-2" d="M168.8,165.5,85.41,147.76a2.18,2.18,0,0,1,.89-4.26h0l83.38,17.73a2.18,2.18,0,0,1-.89,4.26Z"/><path class="cls-2" d="M177.94,126l-55.32-11.77c-.78-.16-1.21-1.25-1-2.42s1.09-2,1.87-1.83l55.32,11.77c.78.16,1.21,1.25,1,2.42S178.72,126.18,177.94,126Z"/><path class="cls-2" d="M175.35,138.21,120,126.44c-.78-.17-1.21-1.25-1-2.43s1.08-2,1.86-1.82L176.25,134c.78.17,1.21,1.26,1,2.43S176.13,138.37,175.35,138.21Z"/><path class="cls-2" d="M165.87,179.25,82.48,161.52a2.18,2.18,0,0,1,.91-4.26L166.78,175a2.17,2.17,0,1,1-.9,4.25Z"/><path class="cls-2" d="M163,193,79.56,175.27a2.17,2.17,0,0,1,.9-4.25l83.39,17.73A2.18,2.18,0,0,1,163,193Z"/><path class="cls-2" d="M160,206.76,76.63,189a2.18,2.18,0,1,1,.9-4.26h0l83.38,17.74a2.17,2.17,0,0,1-.9,4.25Z"/><path class="cls-2" d="M157.09,220.52,73.71,202.78a2.17,2.17,0,1,1,.89-4.25h0L158,216.27a2.17,2.17,0,0,1-.89,4.25Z"/><path class="cls-2" d="M154.17,234.28,70.78,216.54a2.17,2.17,0,1,1,.91-4.25L155.07,230a2.18,2.18,0,1,1-.89,4.26Z"/><circle class="cls-2" cx="102.04" cy="114.17" r="11.45"/><path class="cls-4" d="M248.09,5.87a1.46,1.46,0,0,0-2,.45L163,137.34a1.45,1.45,0,0,0,.45,2L269,206.27a1.46,1.46,0,0,0,2-.45l83.08-131a1.45,1.45,0,0,0-.45-2Z"/><path class="cls-3" d="M249.52,12.28a1.45,1.45,0,0,0-2,.44L169.41,135.9a1.44,1.44,0,0,0,.45,2l97.71,62a1.45,1.45,0,0,0,2-.44L347.68,76.24a1.44,1.44,0,0,0-.45-2Z"/><path class="cls-4" d="M300.58,119.38l-72-45.66a2.17,2.17,0,1,1,2.33-3.67h0l72,45.65a2.18,2.18,0,0,1-2.32,3.68Z"/><path class="cls-4" d="M322.9,85.55,275.14,55.26c-.68-.43-.7-1.6-.06-2.61s1.71-1.49,2.38-1.07l47.77,30.29c.67.43.7,1.6,0,2.61S323.57,86,322.9,85.55Z"/><path class="cls-4" d="M316.22,96.08,268.46,65.79c-.67-.43-.7-1.6-.06-2.61s1.71-1.49,2.39-1.07L318.55,92.4c.68.43.7,1.6.06,2.61S316.9,96.5,316.22,96.08Z"/><path class="cls-4" d="M293.05,131.25l-72-45.65a2.17,2.17,0,0,1,2.33-3.67l72,45.65a2.17,2.17,0,0,1-2.33,3.67Z"/><path class="cls-4" d="M285.52,143.13l-72-45.65a2.18,2.18,0,0,1,2.33-3.68l72,45.66a2.18,2.18,0,1,1-2.32,3.68Z"/><path class="cls-4" d="M278,155l-72-45.66a2.17,2.17,0,1,1,2.33-3.67h0l72,45.65A2.18,2.18,0,0,1,278,155Z"/><path class="cls-4" d="M270.46,166.88l-72-45.65a2.17,2.17,0,0,1,2.33-3.67l72,45.65a2.17,2.17,0,1,1-2.32,3.67Z"/><path class="cls-4" d="M262.92,178.76l-72-45.65a2.18,2.18,0,0,1,2.32-3.68h0l72,45.66a2.18,2.18,0,1,1-2.32,3.68Z"/><circle class="cls-4" cx="255.87" cy="48.02" r="11.45"/><path class="cls-2" d="M30.91,121.8a2,2,0,0,0-2.05,2,1.85,1.85,0,0,0,0,.23l17.75,157.5a2,2,0,0,0,2,1.82h266a2,2,0,0,0,2-1.82l17.75-157.5a2,2,0,0,0-2-2.28Z"/><path class="cls-3" d="M55.1,148.25l85.26-.46a2.18,2.18,0,0,0,0-4.35l-85.25.46a2.18,2.18,0,0,0,0,4.35Z"/><path class="cls-3" d="M55.1,161.7l50.57-.46a2.18,2.18,0,0,0,0-4.35l-50.57.46a2.18,2.18,0,0,0,0,4.35Z"/><path class="cls-5" d="M150.53,196.85c.63-3,.91-5.94,1.88-8.62a21.58,21.58,0,0,1,29.12-12.32,2.37,2.37,0,0,0,3.1-.59c8.2-7.7,17.92-10.29,28.7-7.39,11.13,3,18.22,10.43,21.33,21.56a28.69,28.69,0,0,1,.61,11.63c-.14,1,.29,1.2,1.13,1.42,7.83,2.05,12.74,7.05,14.49,14.93,2.55,11.46-6.53,22.82-18.27,23-5.29.06-10.58,0-15.87,0-1.64,0-2.63-.7-2.66-1.83s.95-1.89,2.59-1.89c5.13,0,10.26.11,15.39,0,6.27-.18,11.07-3.07,13.83-8.74s2-11.34-1.87-16.36a15.16,15.16,0,0,0-10.91-5.73c-1.94-.19-2.45-.91-2.05-2.83,2.51-12-2.32-23-12.76-29a26.14,26.14,0,0,0-31.61,4.61,15.84,15.84,0,0,0-1.16,1.3,2.25,2.25,0,0,1-3.42.58,17.77,17.77,0,0,0-12.79-2.3c-9,1.53-15.67,10.66-14.42,19.78.31,2.29-.37,3-2.65,2.83a18.08,18.08,0,0,0-19.9,19.7c.59,7.78,7.19,15,15.12,15.87,4.49.51,9.07.27,13.62.35,1.53,0,3.06,0,4.6,0a1.54,1.54,0,0,1,1.64,1.87c-.16.69-1.05,1.74-1.59,1.73-6.85-.13-13.76.83-20.56-.52-8.57-1.7-15.7-10-16.57-18.69a21.92,21.92,0,0,1,17.81-23.9A38.59,38.59,0,0,1,150.53,196.85Z"/><path class="cls-6" d="M176.38,217.45l-5.65,27.32a2.75,2.75,0,0,0,2.68,3.3h10.22l-6.23,22.07,30.92-30a2.74,2.74,0,0,0-1.91-4.71H189.85L200,219.59a2.75,2.75,0,0,0-2.3-4.22l-18.59-.11A2.75,2.75,0,0,0,176.38,217.45Z"/></svg>