<svg id="Layer_1" data-name="Layer 1" xmlns="http://www.w3.org/2000/svg" xmlns:xlink="http://www.w3.org/1999/xlink" viewBox="0 0 361.43 284.73"><defs><style>.cls-1{fill:url(#linear-gradient);}.cls-2,.cls-26{fill:#fff;}.cls-3{fill:#fac500;}.cls-4{opacity:0.7;}.cls-5{fill:#fac709;}.cls-6{opacity:0.6;}.cls-7{fill:#fac911;}.cls-8{opacity:0.5;}.cls-9{fill:#fbcb1a;}.cls-10{fill:#fbcd22;}.cls-11{opacity:0.4;}.cls-12{fill:#fbcf2b;}.cls-13{opacity:0.3;}.cls-14{fill:#fbd133;}.cls-15{fill:url(#linear-gradient-2);}.cls-16{fill:url(#linear-gradient-3);}.cls-17{fill:url(#linear-gradient-4);}.cls-18,.cls-19,.cls-20,.cls-21{fill:none;stroke:#fbd133;stroke-linecap:round;stroke-linejoin:round;stroke-width:1.43px;}.cls-19{stroke-dasharray:4.48 11.95;}.cls-20{stroke-dasharray:4.27 11.39;}.cls-21{stroke-dasharray:4.14 11.03;}.cls-22{fill:#e0e0e0;}.cls-23{fill:url(#linear-gradient-5);}.cls-24{fill:#f5f5f5;}.cls-25{fill:url(#linear-gradient-6);}.cls-26{opacity:0.2;isolation:isolate;}</style><linearGradient id="linear-gradient" x1="92.45" y1="-2884.4" x2="92.45" y2="-2720.14" gradientTransform="matrix(1, 0, 0, -1, 0, -2712)" gradientUnits="userSpaceOnUse"><stop offset="0" stop-color="gray" stop-opacity="0.25"/><stop offset="0.54" stop-color="gray" stop-opacity="0.12"/><stop offset="1" stop-color="gray" stop-opacity="0.1"/></linearGradient><linearGradient id="linear-gradient-2" x1="143.46" y1="-2763.16" x2="143.46" y2="-2734.47" xlink:href="#linear-gradient"/><linearGradient id="linear-gradient-3" x1="143.46" y1="-2816.51" x2="143.46" y2="-2787.82" xlink:href="#linear-gradient"/><linearGradient id="linear-gradient-4" x1="143.46" y1="-2869.51" x2="143.46" y2="-2840.82" xlink:href="#linear-gradient"/><linearGradient id="linear-gradient-5" x1="255.53" y1="-2990.41" x2="255.53" y2="-2984.32" xlink:href="#linear-gradient"/><linearGradient id="linear-gradient-6" x1="403.91" y1="-3028.87" x2="403.91" y2="-2916.07" gradientTransform="matrix(1, 0, 0, -1, -148, -2784.62)" xlink:href="#linear-gradient"/></defs><rect class="cls-1" x="18.86" y="8.14" width="147.17" height="164.26"/><rect class="cls-2" x="21.3" y="117.81" width="142.31" height="51.01"/><rect class="cls-3" x="32.98" y="129.91" width="5.51" height="26.14"/><g class="cls-4"><rect class="cls-5" x="43.86" y="129.91" width="5.51" height="26.14"/></g><g class="cls-6"><rect class="cls-7" x="54.75" y="129.91" width="5.51" height="26.14"/></g><g class="cls-8"><rect class="cls-9" x="65.64" y="129.91" width="5.51" height="26.14"/></g><g class="cls-8"><rect class="cls-10" x="76.52" y="129.91" width="5.51" height="26.14"/></g><g class="cls-11"><rect class="cls-12" x="87.41" y="129.91" width="5.51" height="26.14"/></g><g class="cls-13"><rect class="cls-14" x="98.3" y="129.91" width="5.51" height="26.14"/></g><circle class="cls-3" cx="143.46" cy="142.81" r="13.31"/><rect class="cls-2" x="21.3" y="64.81" width="142.31" height="51.01"/><rect class="cls-3" x="32.98" y="76.91" width="5.51" height="26.14"/><g class="cls-4"><rect class="cls-5" x="43.86" y="76.91" width="5.51" height="26.14"/></g><g class="cls-6"><rect class="cls-7" x="54.75" y="76.91" width="5.51" height="26.14"/></g><g class="cls-8"><rect class="cls-9" x="65.64" y="76.91" width="5.51" height="26.14"/></g><g class="cls-8"><rect class="cls-10" x="76.52" y="76.91" width="5.51" height="26.14"/></g><g class="cls-11"><rect class="cls-12" x="87.41" y="76.91" width="5.51" height="26.14"/></g><g class="cls-13"><rect class="cls-14" x="98.3" y="76.91" width="5.51" height="26.14"/></g><circle class="cls-3" cx="143.46" cy="89.81" r="13.31"/><rect class="cls-2" x="21.3" y="11.81" width="142.31" height="51.01"/><rect class="cls-3" x="32.98" y="23.91" width="5.51" height="26.14"/><g class="cls-4"><rect class="cls-5" x="43.86" y="23.91" width="5.51" height="26.14"/></g><g class="cls-6"><rect class="cls-7" x="54.75" y="23.91" width="5.51" height="26.14"/></g><g class="cls-8"><rect class="cls-9" x="65.64" y="23.91" width="5.51" height="26.14"/></g><g class="cls-8"><rect class="cls-10" x="76.52" y="23.91" width="5.51" height="26.14"/></g><g class="cls-11"><rect class="cls-12" x="87.41" y="23.91" width="5.51" height="26.14"/></g><g class="cls-13"><rect class="cls-14" x="98.3" y="23.91" width="5.51" height="26.14"/></g><circle class="cls-15" cx="143.46" cy="36.81" r="14.34"/><circle class="cls-16" cx="143.46" cy="90.17" r="14.34"/><circle class="cls-17" cx="143.46" cy="143.16" r="14.34"/><circle class="cls-3" cx="143.46" cy="36.81" r="13.31"/><g class="cls-4"><line class="cls-18" x1="183.94" y1="64.95" x2="186.09" y2="64.95"/><line class="cls-19" x1="198.04" y1="64.95" x2="257.82" y2="64.95"/><polyline class="cls-18" points="263.79 64.95 265.94 64.95 265.94 67.1"/><line class="cls-20" x1="265.94" y1="78.49" x2="265.94" y2="119.78"/><line class="cls-18" x1="265.94" y1="125.47" x2="265.94" y2="127.62"/></g><g class="cls-4"><line class="cls-18" x1="150.49" y1="227.17" x2="148.34" y2="227.15"/><line class="cls-19" x1="136.39" y1="227.1" x2="76.62" y2="226.81"/><polyline class="cls-18" points="70.64 226.79 68.49 226.78 68.5 224.63"/><line class="cls-21" x1="68.57" y1="213.6" x2="68.74" y2="188.8"/><line class="cls-18" x1="68.77" y1="183.28" x2="68.79" y2="181.13"/></g><path class="cls-22" d="M277.12,233.89s4.26,28.82,29.46,38.43H204.52c25.19-9.61,29.46-38.43,29.46-38.43Z"/><rect class="cls-23" x="204.02" y="272.32" width="103" height="6.09"/><rect class="cls-24" x="204.54" y="272.32" width="102.04" height="4.7"/><path class="cls-25" d="M338.72,131.45H173.11a3.85,3.85,0,0,0-3.85,3.85h0V239.64a4.6,4.6,0,0,0,4.6,4.61H338a4.6,4.6,0,0,0,4.6-4.61V135.3a3.85,3.85,0,0,0-3.85-3.85Z"/><path class="cls-2" d="M175.19,133H335.92a3.85,3.85,0,0,1,3.85,3.85h0v89.33H171.34V136.88a3.85,3.85,0,0,1,3.85-3.85Z"/><path class="cls-24" d="M335.16,241.58H176a4.6,4.6,0,0,1-4.61-4.61V226.21H339.77V237A4.6,4.6,0,0,1,335.16,241.58Z"/><rect class="cls-3" x="179.67" y="140.58" width="152.42" height="75.22"/><polygon class="cls-26" points="185.7 145.57 332.18 145.57 332.18 140.55 179.76 140.55 179.76 215.77 185.7 215.77 185.7 145.57"/></svg>