<svg id="Layer_1" data-name="Layer 1" xmlns="http://www.w3.org/2000/svg" xmlns:xlink="http://www.w3.org/1999/xlink" viewBox="0 0 361.43 284.73"><defs><style>.cls-1{fill:#4d4d4d;}.cls-1,.cls-5{opacity:0.1;}.cls-1,.cls-10,.cls-5{isolation:isolate;}.cls-2{fill:#e6e6e6;}.cls-3{fill:url(#linear-gradient);}.cls-4{fill:#fbd133;}.cls-6{fill:#ae6e79;}.cls-7{fill:#444053;}.cls-8{fill:#fff;}.cls-10,.cls-9{fill:#fac500;}.cls-10{opacity:0.5;}</style><linearGradient id="linear-gradient" x1="341.11" y1="-3690.06" x2="341.11" y2="-3540.42" gradientTransform="matrix(1, 0, 0, -1, -98.04, -3415.61)" gradientUnits="userSpaceOnUse"><stop offset="0" stop-color="gray" stop-opacity="0.25"/><stop offset="0.54" stop-color="gray" stop-opacity="0.12"/><stop offset="1" stop-color="gray" stop-opacity="0.1"/></linearGradient></defs><ellipse class="cls-1" cx="248.28" cy="272.76" rx="32.76" ry="3.23"/><path class="cls-2" d="M160.78,12.65c14.43-5.36,32-.75,47,6,47.1,21.13,81.42,61.24,108.69,102.1,9.87,14.8,19.24,30.25,23,46.77,7.55,33.62-12.16,68.42-45.67,80.62-11.4,4.15-23.93,5.85-36.47,6.8-22.3,1.69-45.39,1-67.51-5.24-15.78-4.47-30.7-11.66-45-19.61-40-22.2-76.48-51-102.77-86.25C30.45,128.37,20.7,111,20.42,93.13S31.75,57.4,50.86,54.36c7.9-1.25,16.26.06,24.41,1.4,12,2,24.18,4.05,36.05,3.19,12.26-.9,28.2-5.69,30.44-17.39C144.12,29,146.38,18,160.78,12.65Z"/><path class="cls-3" d="M281,175.34a23,23,0,0,1-.34-3.41c0-1.37-1.87-2.58-1.87-2.58s-1.15-2.66-1.91-3-3.14-3.88-3.14-3.88a3.13,3.13,0,0,0-.71-1.88,28.43,28.43,0,0,1-1.94-2.92h0c-.32-.39-.16-.67-.63-2.94l-.09-.34c0-.05,0-.09-.06-.15a3.83,3.83,0,0,0,.91-4,1.54,1.54,0,0,0-.46-.71c-.53-.44-1.4-.26-2-.67l.59-2.62c.14-.64.21-1.44-.35-1.79a3.11,3.11,0,0,0-.65-.22,3.1,3.1,0,0,1-1.77-2.31,7.92,7.92,0,0,1-.19-2.87c.11-.93.38-1.83.48-2.76a7.54,7.54,0,0,0-1.17-4.89,3.85,3.85,0,0,0-1.55-1.47,18,18,0,0,1-1.83-.64c-1.19-.75-1.13-2.55-2.08-3.58s-2.63-1-4-.68a12,12,0,0,1-4.18.81c-.91-.1-1.77-.52-2.68-.61a2.62,2.62,0,0,0-.79,0v0a1.73,1.73,0,0,0-1.46,1.14,1.87,1.87,0,0,0,0,.47c0,.37.09.76.09,1.12a1.08,1.08,0,0,1-.25.79c-.19.2-.46.3-.64.5a.81.81,0,0,0-.24.59c0,.57.71,1.07,1.19,1.3h0a4.83,4.83,0,0,0-.38.4,8.42,8.42,0,0,0-2.11,5.58A8.52,8.52,0,0,0,250,144.9l-.07.21a12.44,12.44,0,0,1-.47,1.2,2.41,2.41,0,0,0-2,.23,5.1,5.1,0,0,1-3.17.47,42.35,42.35,0,0,0-5.83-.59c-.4.15-1.19-.55-1.7.39s-.76,1.45-1.28,1.68-1.43,1-1.31,1.14-1.3,1.09-1.3,1.09a6.48,6.48,0,0,1-1.95,1.45,11.48,11.48,0,0,0-2.22,1.14L227,154.67s-1.31.2-.91-.7-.72-2-.72-2-2.22-4.5-2.22-5.43-1.82-4.9-1.82-4.9l-.23,0-.1-.29a29.61,29.61,0,0,0-1.1-2.77c-.64-1.3-1-1.43-1-1.43s-7.69-5.78-12.69-4,9.12,7,10.39,7.56a2.43,2.43,0,0,1,1,1.53,6.56,6.56,0,0,0-2.73,2.46s3.05,6.77,3.13,8.45,2.1,6.39,2.1,6.39a4.45,4.45,0,0,0,4.84,3.28s5.63,1,6.86,0a9.79,9.79,0,0,1,2.93-2,2.31,2.31,0,0,0,1.11-.78s-1.86,11.73-2.78,12.75-9,14.2-6.08,16.56a58.64,58.64,0,0,0,7.25,4.79c.25.12,1-1.11,2-2v.68c0,4.69.64,11.81,1.49,13.41,1.28,2.35.76,6.89.76,6.89a5.46,5.46,0,0,0,2.14.51l.12.48a65.08,65.08,0,0,0,2.41,7.81c.88,1.65,1.51,6.85,1.51,6.85a47.17,47.17,0,0,1,.32,5.83,34.43,34.43,0,0,0,.78,5.11h0c-.32,3.67-.92,10.74-1,13.3h0v.19a.11.11,0,0,1,0,.08v.16h0a2.57,2.57,0,0,0,0,.48,1.63,1.63,0,0,1,0,.73,12.7,12.7,0,0,1-.86,2.05,8.43,8.43,0,0,0-.38,1,1.79,1.79,0,0,0-.93,1.32c-.39,1.52-1,5.75-1,5.75s-.24,2.58-.71,3.17-1,4.26,2.42,4.73a4.88,4.88,0,0,0,4.83-1.79l-.12-10.24v0a1.67,1.67,0,0,0,.18-.28v0a1.07,1.07,0,0,0,.07-.15l0-.08.05-.12v-.05a6.71,6.71,0,0,0,.29-3.05v-.43a.75.75,0,0,1,0-.21c0-.11,0,0,0,0l0-.12V256a.32.32,0,0,1,0-.13v0c0-.14.07-.32.11-.46v0l.05-.16h0l.16-.49v0c0-.05,0-.1.05-.15v0c.06-.15.12-.32.18-.45l0,0,.05-.13v0l.12-.28h0l.94,2.89s.52,2.15.24,2.66.32,2.62.71,2.66l-.37,2.66a43.39,43.39,0,0,0-.35,4.42c0,.17,0,.32-.07.42a9.46,9.46,0,0,0,.36,3.48c3.13,3.7,6.86.29,6.86.29s.43-2,0-2.35-.24-1.8-.24-1.8.2-3.48.23-6a8,8,0,0,0-2.07-4.79l-.12.11a7.56,7.56,0,0,1-.74-2.68c.16-.9-.43-10.41-.43-10.41a57.74,57.74,0,0,0,.14-7.67h0c0-.43.09-.85.14-1.27.24-2,.44-3.79.51-4.71h0v-.11c0-.24,0-.42,0-.5,0-.32,0-.69,0-1.09.07-1.09.25-2.32.25-2.32l.83-5.05a15.86,15.86,0,0,1,1.55-3.83l.1-.17h0a1.28,1.28,0,0,0,.11-.2l0,0a2.12,2.12,0,0,1,.11-.21v0c.13-.25.27-.54.41-.86,0,0,0-.05,0-.07l.11-.25s0-.06,0-.09.07-.17.11-.25l0-.09c0-.1.08-.2.13-.3l.06-.15.09-.22.08-.19.06-.15.08-.22s0-.06,0-.1c.23-.56.45-1.12.64-1.63h0c.06-.16.12-.32.18-.46,2,.13,3.41.24,3.41.24a46.37,46.37,0,0,0,.43-7.59,28,28,0,0,1,.51-6.07,3.51,3.51,0,0,1,.08-.42l.05,0c1,.78,1.71-1.8,1.71-1.8s-.27-2.41-.64-5.33l0-.29a14.44,14.44,0,0,0,1.73.26l.76-.08a20.69,20.69,0,0,0,3.81,1.72l2.11-3.89a16.84,16.84,0,0,1,1.39-2.31c.64-.79,2.9-3.29,2.86-3.76a13.14,13.14,0,0,1,1.54-4.38A9.57,9.57,0,0,0,281,175.34Zm-8.8,3c-.83.35-1.62,2.31-1.66,2.9s-.92,3.17-1.83,3.48a11.92,11.92,0,0,0-2.69,2c-.27,0-.56.06-.87.11a30.43,30.43,0,0,0-.92-4.93c-.64-1.17.7-4.93.7-4.93s.13-3.79,1-4.69.64-3.18.64-3.18.2-.93.28-1.36,1.18,0,1.19,0h0s2.14,1.17,2.46,2.93,2.65,4.81,2.65,4.81-.36,1.06,0,1.6S273.07,178,272.23,178.31Z"/><path class="cls-4" d="M214.89,144.87a6.4,6.4,0,0,1,6.39-3v4.57h-2.77l-2.17-.55Z"/><path class="cls-5" d="M214.89,144.87a6.4,6.4,0,0,1,6.39-3v4.57h-2.77l-2.17-.55Z"/><path class="cls-6" d="M221.49,143.07l-3.4,2.38s0-.47-.12-1.12c-.17-1.24-.55-3.09-1.37-3.44-1.25-.55-15.15-5.78-10.22-7.54s12.5,4,12.5,4,.39.14,1,1.43c.32.67.76,1.83,1.09,2.77S221.49,143.07,221.49,143.07Z"/><polygon class="cls-4" points="248.66 146.74 249.05 146.56 250.13 147.8 249.25 149.69 247.73 149.09 248.08 147.57 248.66 146.74"/><path class="cls-7" d="M243.52,257.66s-1-.11-1.37,1.41-1,5.75-1,5.75-.23,2.58-.7,3.16-.94,4.26,2.38,4.73a4.83,4.83,0,0,0,4.77-1.79l-.12-10.24Z"/><path class="cls-7" d="M255.1,258.12a8,8,0,0,1,2,4.77c0,2.54-.24,6-.24,6s-.19,1.41.24,1.8,0,2.34,0,2.34-3.67,3.41-6.76-.29a9.75,9.75,0,0,1-.35-3.47c.25-1.36.94-7.48.94-7.48Z"/><path class="cls-6" d="M260.27,211.42a64.82,64.82,0,0,1-3,7.26,15.72,15.72,0,0,0-1.52,3.84l-.82,5a27.65,27.65,0,0,0-.27,3.4c0,1.13-2,17.65-2,17.65l-3.28,4.18s-1.45,2.93-1.21,4.15a6.05,6.05,0,0,1-.64,3.75s-.08,3.84-.2,4.69.43,3.28,0,3.71-6.17.24-6.32-.47a20.55,20.55,0,0,1,.7-4.1l.51-3.28s1-1.79.78-2.38.43-2,.46-2.07,1.1-2,.91-2.77,1.22-16.5,1.22-16.5l4-28.24Z"/><path class="cls-5" d="M260.27,211.42s-.32.89-.76,2.05a37.61,37.61,0,0,1-2.25,5.21,16.17,16.17,0,0,0-1.52,3.84l-.82,5a27.49,27.49,0,0,0-.27,3.39c0,.45-.3,3.3-.69,6.59-.59,5-1.34,11.07-1.34,11.07l-3.28,4.18s-.17.32-.38.82a7.62,7.62,0,0,0-.83,3.31,6.07,6.07,0,0,1-.64,3.75s-.08,3.84-.2,4.69.43,3.28,0,3.71-6.17.24-6.32-.47a20.68,20.68,0,0,1,.7-4.1l.51-3.28s1-1.79.78-2.38.43-1.95.46-2.07,1.1-2,.91-2.77c-.15-.57.63-9.82,1-14.21.13-1.38.21-2.28.21-2.28L249,213.22l.29-2,.28-2Z"/><path class="cls-6" d="M256.76,270.16c0,.43-5.51,1-6.3.58s0-6.28,0-6.28l.36-2.66c-.39,0-1-2.15-.7-2.66s-.24-2.65-.24-2.65l-.92-2.87-.56-1.76c-.91-2-2.24-7.77-3.06-12.06a36.58,36.58,0,0,1-.77-5.09,47.23,47.23,0,0,0-.32-5.82s-.64-5.2-1.48-6.83a65,65,0,0,1-2.38-7.8c-.35-1.35-.59-2.32-.59-2.32s5.9-.5,9.48-.67c1.65-.08,2.8-.09,2.67,0a4.72,4.72,0,0,0-.16,1.89,49.31,49.31,0,0,0,.78,8.66c.55,1.76,1.09,7,.86,7.54a24.11,24.11,0,0,0-.16,3.9,17,17,0,0,1,.69,4.24,57.14,57.14,0,0,1-.13,7.63s.58,9.49.43,10.39,1.25,3.71,1.25,4.26.39,4.26.39,4.26S256.73,269.73,256.76,270.16Z"/><path class="cls-6" d="M259.84,156.08l-.67.72-.44.47L256.18,160l-6.6.74-3.52-.93-.87-.24s0-1.76.16-3.87c.22-2.72.76-6,2-6.91a5.06,5.06,0,0,0,1.49-1.88,10.88,10.88,0,0,0,.64-1.58l.06-.2a17,17,0,0,0,.62-2.9s.85-.47,2-1c3-1.43,8.33-3.4,6.5,1a17.86,17.86,0,0,0-.69,2c0,.1-.06.2-.08.29-.61,2.46-.21,3.95.25,4.77h0c.08.14.17.27.26.4a2.4,2.4,0,0,0,.45.45l.76,4.83.06.4Z"/><path class="cls-5" d="M258.71,142.49c-.35.83.17-.69,0,0-1.39,1-4.67,3.81-6.52,3.81a5.14,5.14,0,0,1-2.68-.71,18.27,18.27,0,0,0,.69-3.1S261.25,136.39,258.71,142.49Z"/><path class="cls-6" d="M261.52,137.35a8.52,8.52,0,0,1-7.62,8.47,8.69,8.69,0,0,1-.89.05,8.52,8.52,0,1,1,8.51-8.52Z"/><path class="cls-5" d="M262.73,175.1l-1.21,3.16-2.53.09c-5.19.17-16.64.38-17.15-1a3.09,3.09,0,0,1-.18-1,20.43,20.43,0,0,1,.88-5.15s.55-6.25.55-6.53-.47-4.65-.47-4.65l.94-3.51,2.61-1.84s1.17,1.8,1.88,2a4.86,4.86,0,0,1,1.64,1s2.3,1.41,3,.63,6.53-4.22,6.53-4.22l3,3.36Z"/><path class="cls-8" d="M262.73,175.58l-1.21,3.17-2.53.09h-.15l-2.23.06a97.3,97.3,0,0,1-12.79-.32c-1.12-.16-1.85-.39-2-.7a2.45,2.45,0,0,1-.14-.58,3.73,3.73,0,0,1,0-.47,20.44,20.44,0,0,1,.88-5.16s.55-6.25.55-6.52-.47-4.65-.47-4.65l.94-3.52,1.79-1.26.82-.57a13.11,13.11,0,0,0,.9,1.18,2.31,2.31,0,0,0,1,.77,5,5,0,0,1,1.64,1s2.3,1.41,3,.62a61.6,61.6,0,0,1,5.7-3.72l.83-.5.4.46,2.64,2.9Z"/><path class="cls-5" d="M221.49,143.07l-3.4,2.38s0-.47-.12-1.12a6.89,6.89,0,0,0,3-2.78C221.28,142.4,221.49,143.07,221.49,143.07Z"/><path class="cls-4" d="M233.44,151.16l-.74-.2a6.38,6.38,0,0,1-1.92,1.45,11.24,11.24,0,0,0-2.18,1.13l-1.72,1.36s-1.28.2-.9-.7-.7-2-.7-2-2.19-4.49-2.19-5.43-1.81-4.88-1.81-4.88-2.27,4.41-6.4,3c0,0,3,6.75,3.08,8.43s2.07,6.37,2.07,6.37A4.4,4.4,0,0,0,224.8,163s5.54,1,6.75,0a9.88,9.88,0,0,1,2.88-2,2.38,2.38,0,0,0,1.09-.78v-4.64Z"/><path class="cls-5" d="M226.49,155.57s1,3.63.35,4Z"/><path class="cls-5" d="M259,178.82c-5.19.17-16.64.38-17.15-1a3.09,3.09,0,0,1-.18-1.05l17,.9Z"/><path class="cls-5" d="M260.27,211.42s-.32.89-.76,2.05c-2.15-.13-5-.26-7.72-.28-1,0-1.89,0-2.78,0a21.31,21.31,0,0,0-4.55.5,12.17,12.17,0,0,1-4.06.53c-.35-1.35-.59-2.33-.59-2.33s5.9-.49,9.48-.66l.28-2Z"/><path class="cls-7" d="M264.84,197.13l-.66,1.4s-.1.42-.21,1.08a28,28,0,0,0-.5,6.07,47.45,47.45,0,0,1-.43,7.58s-14.37-1.21-18.58,0-6.3,0-6.3,0,.52-4.53-.74-6.88c-.85-1.59-1.45-8.72-1.47-13.41,0-2.16.11-3.8.38-4.13.86-1.06,4.53-11.6,4.53-11.6l.84,0,2.23.12,12.71.67,2,.11.21.64Z"/><path class="cls-4" d="M271.17,192.44l.12,1.25s-6.3-2.05-6-4.57,0-2.24,0-2.24l5.06.43Z"/><path class="cls-5" d="M271.17,192.44l.12,1.25s-6.3-2.05-6-4.57,0-2.24,0-2.24l5.06.43Z"/><path class="cls-5" d="M230.69,156.58a5.64,5.64,0,0,0,2.21,1.15,1.4,1.4,0,0,1-.63-.32c-.45-.32-.88-.67-1.32-1a4.16,4.16,0,0,0-1.22-.84A7.73,7.73,0,0,0,230.69,156.58Z"/><path class="cls-5" d="M230.78,158.22a2.72,2.72,0,0,1,.49.77,4.62,4.62,0,0,1,0,2.42l-1-2.43c-.17-.42-.35-.83-.56-1.23-.09-.17-.67-.88-.6-1C229.23,156.31,230.6,158,230.78,158.22Z"/><path class="cls-5" d="M258.94,171.7a3.22,3.22,0,0,0,1.84-.86c-1,.13-2,.54-3,.75a4.54,4.54,0,0,1-2.84-.26A6.89,6.89,0,0,0,258.94,171.7Z"/><path class="cls-5" d="M256,164.55a.71.71,0,0,1-.53-.13c-.78-.45-1.55-.92-2.3-1.4a15.62,15.62,0,0,1-2.26-1.56A11.49,11.49,0,0,0,256,164.55Z"/><path class="cls-5" d="M258.17,172.83a4.54,4.54,0,0,0,1.22-.1,1.61,1.61,0,0,0,1-.65.58.58,0,0,0-.43.06,7.12,7.12,0,0,1-3.92.47A5.6,5.6,0,0,0,258.17,172.83Z"/><path class="cls-5" d="M250.78,191a13.32,13.32,0,0,1-2.5.49,16.15,16.15,0,0,1-2,0l-3.2-.2-1.59-.11c-.19,0-1,0-.58-.38.19-.18,1.26-.06,1.53-.07.53,0,1.07,0,1.6,0,1.06,0,2.12,0,3.17.06S249.59,190.84,250.78,191Z"/><path class="cls-5" d="M247.07,192.55a13.39,13.39,0,0,0-1.8.37,11.78,11.78,0,0,1-1.88.07,10.5,10.5,0,0,1-3.63-.74C242.19,192.38,244.64,192.45,247.07,192.55Z"/><path class="cls-5" d="M240.23,194.22a5.56,5.56,0,0,1,.7.19,8.07,8.07,0,0,0,4.15-.29,2.45,2.45,0,0,1-1.57.87,7.23,7.23,0,0,1-3.07.12c-.32-.07-1.12-.18-1.28-.51C238.9,194.11,239.93,194.17,240.23,194.22Z"/><path class="cls-5" d="M247.79,196.74a10,10,0,0,1,1.19.32c1.52.38,3.1-.14,4.62-.49a21.42,21.42,0,0,1,5.59-.51,5.42,5.42,0,0,0-1.2.39c-.43.13-.87.25-1.31.36q-1.29.31-2.61.51a27.33,27.33,0,0,1-5.35.23,7.73,7.73,0,0,1-2.94-.37A3.23,3.23,0,0,1,247.79,196.74Z"/><path class="cls-5" d="M248.36,148.57a20.41,20.41,0,0,1-.51,5.24c-.18.51-.47,1.45-.78,2.51s-.72,2.49-1,3.52-.48,1.71-.48,1.71-1.32,10.75-1.66,15.87a1.1,1.1,0,0,1,0,.26c0,.29,0,.59-.1.9-.76,5.09-5.15,12.93-6.62,13.55A4.25,4.25,0,0,0,236,193c0-2.17.11-3.8.38-4.14.86-1,4.53-11.6,4.53-11.6l.84.05a3.73,3.73,0,0,1,0-.47,20.44,20.44,0,0,1,.88-5.16s.55-6.25.55-6.52-.47-4.65-.47-4.65l.94-3.51,1.79-1.26c.23-2.71.76-6,2-6.9a5.15,5.15,0,0,0,1.49-1.88c.25,0-.21-.19-.21-.19Z"/><path class="cls-4" d="M249.05,146.56a2.34,2.34,0,0,0-2,.22,4.89,4.89,0,0,1-3.12.47,44.32,44.32,0,0,0-5.75-.59c-.4.16-1.18-.54-1.68.4s-.74,1.44-1.25,1.67-1.41,1-1.28,1.14-1.28,1.09-1.28,1.09l2.85,9.26s-1.83,11.72-2.73,12.73-8.87,14.18-6,16.52a56.07,56.07,0,0,0,7.15,4.79c.32.16,1.45-1.95,3-2.61s6.4-9.46,6.7-14.45,1.68-16.13,1.68-16.13,1.68-6.1,2.27-7.74a20.89,20.89,0,0,0,.51-5.24Z"/><path class="cls-5" d="M264.84,197.13l-.66,1.4s-.1.42-.21,1.08a.55.55,0,0,1-.32-.14c-1-.78-6.71-6.68-7-11.91-.2-3.86-.11-7.19-.05-8.67,0-.47,0-.75,0-.81h0s4.46-5.39,4-7.3-1.68-12.14-1.68-12.14l-.18-1.34-.29-2.27-.71-5.49.73.18a2.4,2.4,0,0,0,.45.45l.76,4.82,2.64,2.91.43,17.69-1.22,3.16s-1,.05-2.52.1h-.15Z"/><path class="cls-4" d="M267.3,167.92s-1.09-.43-1.17,0-.27,1.36-.27,1.36.19,2.27-.64,3.17-1,4.68-1,4.68-1.32,3.75-.69,4.92a32.47,32.47,0,0,1,.93,5.11c.22,1.6.44,3.35.64,5,.35,2.91.62,5.32.62,5.32s-.71,2.58-1.69,1.8-6.7-6.68-7-11.92c-.19-3.67-.11-6.87-.05-8.44,0-.67.05-1,.05-1s4.46-5.39,3.95-7.3-1.68-12.14-1.68-12.14l-.21-1.58-.22-1.7-.05-.37-.7-5.43h0c.12,0,4.5,1,5.08,1.6s4.15,1.4,4.15,1.4a3.13,3.13,0,0,1,2.22,2.28l.09.34c.47,2.27.32,2.54.63,2.93S267.3,167.92,267.3,167.92Z"/><path class="cls-5" d="M265.16,192.11c-1.6-.32-4-1.05-3.91-2.68s1.88-2.07,3.27-2.27C264.74,188.75,265,190.51,265.16,192.11Z"/><path class="cls-6" d="M270.11,191.3c-.06.14-.31.26-.68.36a17.41,17.41,0,0,1-2.6.43s-5.42-.43-5.35-2.89c.06-1.77,2.51-2.24,3.89-2.35.3,0,.61,0,.92,0C266.29,186.82,270.35,190.8,270.11,191.3Z"/><path class="cls-5" d="M270.11,191.3c-.06.14-.31.26-.68.36-1.41-1.89-3.39-4.32-4.36-4.53l.3-.28c.3,0,.61,0,.92,0C266.29,186.82,270.35,190.8,270.11,191.3Z"/><path class="cls-4" d="M268.75,157.6l1.59.24a28.25,28.25,0,0,0,1.92,2.92,3.18,3.18,0,0,1,.7,1.88s2.35,3.47,3.09,3.86,1.87,3.05,1.87,3.05,1.84,1.21,1.84,2.58a22.92,22.92,0,0,0,.35,3.4,9.72,9.72,0,0,1-1.05,3.83,13,13,0,0,0-1.53,4.37c.05.48-2.18,3-2.81,3.75a16.16,16.16,0,0,0-1.36,2.3l-2.07,3.91s-4.38-6.45-6-6.8a12.65,12.65,0,0,1,2.69-2c.9-.31,1.76-2.87,1.8-3.47s.82-2.54,1.64-2.88,1.25-.7.9-1.25a2.35,2.35,0,0,1,0-1.6s-2.31-3-2.62-4.79-2.42-2.93-2.42-2.93l-1.21-3Z"/><path class="cls-5" d="M274.56,172.18a5,5,0,0,1,3.15-1.2,3.91,3.91,0,0,0-2.06.81,5,5,0,0,0-.58.73c-.18.27-1.69,2.18-1.91,1.88C272.78,174,274.25,172.44,274.56,172.18Z"/><path class="cls-5" d="M271,170.33a1.33,1.33,0,0,0,1.11-.79,4.44,4.44,0,0,0,.35-1.39,23.68,23.68,0,0,1,.48-2.37,1.12,1.12,0,0,0-.06-1,3.9,3.9,0,0,0-.35-.71,4.27,4.27,0,0,0-.49,1.5c-.14.53-.28,1.06-.41,1.59C271.59,167.46,271.06,170.33,271,170.33Z"/><path class="cls-5" d="M269.64,154.56a3.58,3.58,0,0,1-.54.56c-.64.51-1.49.93-1.57,1.74a1.94,1.94,0,0,1-.09.76c-.21.36-.71.32-1.11.26a1.89,1.89,0,0,1-.94-.35c-.41-.36-.45-1-.77-1.44a2,2,0,0,0-1.6-.71c-.6,0-1.19.11-1.79.14a4.83,4.83,0,0,1-1.14-.08l-.37-.07a5.13,5.13,0,0,1-.78-.27,2.64,2.64,0,0,1-.38-.18,5.2,5.2,0,0,1-1.11-.76,2.76,2.76,0,0,1-1-2.08c0-.48.25-.94.32-1.42.24-1.38-.68-2.68-1.67-3.67-.39-.39-.82-.77-1.21-1.17a5.72,5.72,0,0,1-1.43-2,6,6,0,0,1-.25-2.55,19.21,19.21,0,0,0,.07-2.63c-.3-3.1-2.95-5.48-5.6-6.77l-.12-.06A8.51,8.51,0,1,1,259.38,143a8.39,8.39,0,0,1-1.39,1.27c0,.1-.05.2-.07.29-.62,2.46-.21,4,.25,4.77h0c.12,0,4.5,1,5.08,1.59s4.15,1.41,4.15,1.41A3.12,3.12,0,0,1,269.64,154.56Z"/><path class="cls-7" d="M246,129.51c.18-.2.44-.3.62-.49.55-.6,0-1.59.2-2.38a2,2,0,0,1,2.2-1.17c.9.1,1.74.51,2.65.61,1.39.16,2.75-.45,4.11-.8s3-.37,3.95.67.88,2.82,2.05,3.58a11.32,11.32,0,0,0,1.8.64,3.71,3.71,0,0,1,1.53,1.46,7.64,7.64,0,0,1,1.15,4.89c-.1.92-.36,1.82-.47,2.75a7.92,7.92,0,0,0,.19,2.87,3.06,3.06,0,0,0,1.73,2.3,3.45,3.45,0,0,1,.64.22c.56.35.48,1.16.34,1.79l-.57,2.63c.55.41,1.4.23,1.92.67a1.63,1.63,0,0,1,.45.7,3.84,3.84,0,0,1-1.15,4.2c-.64.51-1.49.93-1.57,1.73a1.67,1.67,0,0,1-.09.77c-.2.35-.71.32-1.11.25a2,2,0,0,1-.93-.34c-.42-.36-.46-1-.78-1.45a1.94,1.94,0,0,0-1.59-.7c-.6,0-1.19.11-1.79.14a5.28,5.28,0,0,1-3.77-1.36,2.72,2.72,0,0,1-1-2.08,12.55,12.55,0,0,1,.32-1.42c.23-1.37-.68-2.68-1.68-3.67a9.67,9.67,0,0,1-2.64-3.21c-.61-1.62,0-3.44-.18-5.16-.3-3.11-2.94-5.48-5.6-6.78C246.3,131.07,245.3,130.3,246,129.51Z"/><path class="cls-5" d="M266.87,156.33c-.42-.36-.46-1-.78-1.44a2,2,0,0,0-1.59-.71c-.6,0-1.2.11-1.79.14a5.3,5.3,0,0,1-3.78-1.36,2.76,2.76,0,0,1-1-2.07c0-.49.25-.95.32-1.43.24-1.37-.67-2.68-1.67-3.67a9.67,9.67,0,0,1-2.64-3.21c-.6-1.62,0-3.43-.18-5.16-.3-3.11-2.94-5.49-5.59-6.78-.62-.31-1.63-1.08-.94-1.86.17-.2.43-.3.61-.5.56-.59,0-1.58.21-2.37a1.2,1.2,0,0,1,.2-.43,1.69,1.69,0,0,0-1.44,1.14c-.2.79.35,1.77-.2,2.37-.18.19-.45.3-.62.49-.69.79.32,1.56.94,1.86,2.65,1.3,5.3,3.68,5.59,6.78.16,1.73-.42,3.54.18,5.17a9.68,9.68,0,0,0,2.65,3.21c1,1,1.91,2.29,1.67,3.67a11.23,11.23,0,0,0-.32,1.42,2.75,2.75,0,0,0,1,2.07,5.27,5.27,0,0,0,3.78,1.37c.6,0,1.19-.16,1.79-.15a2,2,0,0,1,1.6.71c.32.45.35,1.09.77,1.45a2,2,0,0,0,.94.34c.4.07.9.1,1.1-.25a.9.9,0,0,0,.09-.46A1.8,1.8,0,0,1,266.87,156.33Z"/><path class="cls-9" d="M220.38,137.35H198.29V115.59h22.1Zm-.32-32.82H198.61c0-33.83,32.15-31.85,32.15-53.25a21.33,21.33,0,0,0-21.44-21.23c-11.78,0-21.43,10.18-21.43,21.57H166.46A42.78,42.78,0,0,1,209.18,8.75h.14a42.6,42.6,0,0,1,42.87,42.53C252.19,78,220,81.09,220,104.53Z"/><path class="cls-10" d="M110.2,130.87h-5.7v-5.63h5.7Zm-.09-8.46h-5.52c0-8.72,8.28-8.21,8.28-13.74a5.49,5.49,0,0,0-5.52-5.47h0a5.63,5.63,0,0,0-5.51,5.55H96.31a11.06,11.06,0,0,1,22.11-.08c0,6.9-8.31,7.68-8.31,13.72Z"/><path class="cls-10" d="M153.34,170h-5.7v-5.62h5.7Zm-.08-8.46h-5.53c0-8.73,8.29-8.22,8.29-13.74a5.49,5.49,0,0,0-5.52-5.47h0a5.64,5.64,0,0,0-5.54,5.56h-5.52a11.05,11.05,0,0,1,22.1-.08C161.54,154.67,153.26,155.46,153.26,161.51Z"/><path class="cls-10" d="M179.57,100.76h-4.13V96.7h4.13Zm-.06-6.14h-4c0-6.32,6-6,6-10a4,4,0,0,0-4-4h0a4.09,4.09,0,0,0-4,4h-4a8,8,0,0,1,16-.07C185.51,89.67,179.51,90.24,179.51,94.62Z"/><path class="cls-10" d="M250.1,106.49h-2.33v-2.3h2.33Zm0-3.47h-2.28c0-3.57,3.4-3.36,3.4-5.62A2.24,2.24,0,0,0,249,95.16h0a2.31,2.31,0,0,0-2.26,2.28H244.4a4.53,4.53,0,0,1,9,0C253.46,100.21,250.07,100.55,250.07,103Z"/><path class="cls-10" d="M285.8,211.07h-2.34v-2.3h2.34Zm0-3.46H283.5c0-3.58,3.39-3.37,3.39-5.63a2.24,2.24,0,0,0-2.26-2.23,2.29,2.29,0,0,0-2.26,2.27H280.1a4.53,4.53,0,0,1,9.06,0c0,2.82-3.39,3.14-3.39,5.62Z"/></svg>