<svg id="Layer_1" data-name="Layer 1" xmlns="http://www.w3.org/2000/svg" xmlns:xlink="http://www.w3.org/1999/xlink" viewBox="0 0 711 500"><defs><style>.cls-1,.cls-12,.cls-16,.cls-17,.cls-2,.cls-5{fill:none;}.cls-2,.cls-4,.cls-5{stroke:#bb9400;stroke-linejoin:round;}.cls-2{stroke-dasharray:3.5 3.5;}.cls-3{fill:#bb9400;}.cls-4,.cls-6{fill:#fff;}.cls-7{fill:#4d4d4d;}.cls-8{clip-path:url(#clip-path);}.cls-9{fill:url(#linear-gradient);}.cls-10{fill:url(#linear-gradient-2);}.cls-11{fill:#d6bf66;}.cls-12{stroke:#fff;}.cls-12,.cls-16,.cls-17{stroke-miterlimit:10;}.cls-12,.cls-16{stroke-width:1.14px;}.cls-13{fill:#c9a933;}.cls-14{fill:#f0f1ff;}.cls-15{fill:#c2cfef;}.cls-16{stroke:#d3dbf4;}.cls-17{stroke:#4d4d4d;}.cls-18{fill:#898fbf;}.cls-19{fill:#eea886;}.cls-20{fill:#152b3d;}.cls-21{fill:#ffc05c;}.cls-22{fill:#2d3133;}.cls-23{fill:#353a3d;}.cls-24{fill:#254380;}.cls-25{fill:#e55353;}.cls-26{fill:#c5c6cf;}.cls-27{fill:#e2e3ed;}.cls-28{fill:#eea987;}.cls-29{fill:#3c4145;}.cls-30{fill:#ffc955;}.cls-31{fill:#163342;}.cls-32{fill:#a77860;}.cls-33{fill:#efaa88;}.cls-34{fill:#495055;}.cls-35{fill:#222538;}.cls-36{fill:#c29941;}.cls-37{fill:#81807e;}.cls-38{fill:#decbc4;}.cls-39{fill:#51565c;}.cls-40{fill:#f5e2d9;}.cls-41{fill:#323657;}.cls-42{fill:#ad9f99;}.cls-43{fill:#69737a;}</style><clipPath id="clip-path"><rect class="cls-1" x="218.22" y="92.47" width="252.45" height="350.13" rx="11.18"/></clipPath><linearGradient id="linear-gradient" x1="177.06" y1="413.17" x2="497.42" y2="92.8" gradientUnits="userSpaceOnUse"><stop offset="0.27" stop-color="#fff" stop-opacity="0.1"/><stop offset="1" stop-color="#fff" stop-opacity="0.3"/></linearGradient><linearGradient id="linear-gradient-2" x1="241.04" y1="405.26" x2="545.59" y2="100.71" xlink:href="#linear-gradient"/></defs><path class="cls-2" d="M261.23,370.68c-5.76-19.9-22.24-35.2-43.5-35.72-12.36-.29-24.35,5-34.88,11.05-14.21,8.16-31,18-48,15.54-10.89-1.59-23.79-7.7-26.35-20.33-2.7-13.36,8.1-22.52,19.64-27.9,9.89-4.6,23.76-15.62,28.2-26.16C174,245.35,124.72,197.63,138.63,150c14.55-49.87,81.94-58.3,115.81-24.44a99.23,99.23,0,0,1,9.05,10.38c6.91,9.18,11,21.68,20.59,28.57,12.44,8.92,28.56,6.06,42,.77,25.61-10.12,32.39-16.8,57.43-27.7,18-7.84,40.19-14.83,60.43-7.87,14.5,5,30.52,14,38.63,27,15.08,24.17,8.31,50.19,32.15,84.55,10.8,15.57,28,19.94,41.65,31.18,35.46,29.17,23.6,90.64-15.07,111.68C509.5,401.33,470.4,397.39,436,393q-4-.51-7.91-1.09"/><path class="cls-3" d="M512.65,144.05a58.74,58.74,0,0,0,12.8-24.22l-11.82-4.19a46.37,46.37,0,0,0,1.14-12.32l12.41-1.93a59.15,59.15,0,0,0-8.09-26.18l-11.33,5.4a46.48,46.48,0,0,0-7.89-9.53L507.27,61A58.86,58.86,0,0,0,483,48.16L478.85,60a46.26,46.26,0,0,0-12.31-1.14l-1.93-12.41a59.24,59.24,0,0,0-26.18,8.09l5.4,11.34a45.85,45.85,0,0,0-9.53,7.88l-10.13-7.4a58.68,58.68,0,0,0-12.79,24.23l11.82,4.19a46.26,46.26,0,0,0-1.14,12.31L409.65,109a59.23,59.23,0,0,0,8.08,26.18l11.34-5.4a45.9,45.9,0,0,0,7.89,9.53l-7.4,10.13a58.56,58.56,0,0,0,24.22,12.79L458,150.41a46,46,0,0,0,12.32,1.14L472.22,164a59.23,59.23,0,0,0,26.18-8.08L493,144.54a46.16,46.16,0,0,0,9.53-7.89Zm-58-12.84a29.42,29.42,0,1,1,39.76-12.27A29.42,29.42,0,0,1,454.67,131.21Zm4-7.53A20.91,20.91,0,1,1,486.9,115,20.91,20.91,0,0,1,458.65,123.68Z"/><path class="cls-3" d="M244.05,172.51a36.52,36.52,0,0,0,6.39-15.71l-7.54-1.86a28.38,28.38,0,0,0-.06-7.65l7.53-2a36.6,36.6,0,0,0-6.6-15.63l-6.65,4a28.64,28.64,0,0,0-5.44-5.39l3.93-6.69a36.82,36.82,0,0,0-7.48-4.13,36.42,36.42,0,0,0-8.23-2.26L218,122.8a28.46,28.46,0,0,0-7.66.06l-1.95-7.53a36.6,36.6,0,0,0-15.63,6.6l4,6.65a28.64,28.64,0,0,0-5.39,5.44l-6.69-3.93a36.19,36.19,0,0,0-6.39,15.71l7.54,1.86a28.87,28.87,0,0,0,0,7.66l-7.52,2A36.59,36.59,0,0,0,185,172.9l6.65-4a28.69,28.69,0,0,0,5.45,5.39L193.19,181a36.19,36.19,0,0,0,15.71,6.39l1.85-7.54a28.45,28.45,0,0,0,7.66-.06l2,7.53A36.71,36.71,0,0,0,236,180.68L232,174a28.35,28.35,0,0,0,5.39-5.44Zm-36.51-4.33a18.22,18.22,0,1,1,23.73-10A18.22,18.22,0,0,1,207.54,168.18Zm2-4.89a12.94,12.94,0,1,1,16.87-7.11A12.94,12.94,0,0,1,209.52,163.29Z"/><path class="cls-3" d="M274,103.16a25.73,25.73,0,0,0,5.55-10.51l-5.13-1.81a20.15,20.15,0,0,0,.5-5.34l5.38-.84a25.77,25.77,0,0,0-3.51-11.35l-4.91,2.35a19.78,19.78,0,0,0-3.42-4.13l3.21-4.39a25.46,25.46,0,0,0-10.5-5.55l-1.82,5.12a20.14,20.14,0,0,0-5.34-.49l-.84-5.38a25.68,25.68,0,0,0-11.34,3.5l2.34,4.92A19.78,19.78,0,0,0,240,72.68l-4.39-3.21A25.3,25.3,0,0,0,230.09,80l5.13,1.82a20.11,20.11,0,0,0-.5,5.34l-5.38.83a25.6,25.6,0,0,0,3.51,11.35L237.76,97a19.78,19.78,0,0,0,3.42,4.13L238,105.49a25.61,25.61,0,0,0,10.5,5.55l1.82-5.13a20.11,20.11,0,0,0,5.34.5l.83,5.37a25.59,25.59,0,0,0,11.35-3.5l-2.34-4.91A20.1,20.1,0,0,0,269.6,100Zm-23.46-8.73a9.18,9.18,0,1,1,12.4-3.83A9.19,9.19,0,0,1,250.53,94.43Z"/><path class="cls-4" d="M153.16,182.91c0-.66-.09-1.37-.18-2.13-.68-6.21-4.94-5.64-7.58-5.45s-5.94.29-7.21-2.6a29.1,29.1,0,0,1-.89-4.13,6.43,6.43,0,0,0-6-4.83c-2.55,0-5,1.47-7.07,3.28-1.09.95-2.32,2-3.61,1.7a3.92,3.92,0,0,1-2-1.87c-3-4.92-3-12.07-6.33-16.7-3.67-5.11-10.51-5.22-15.15-1.51s-7.29,10.32-8.5,17c-.4,2.17-.74,4.54-2.08,6-1.91,2.12-4.84,1.42-7.39,1.13a10.63,10.63,0,0,0-8.52,2.32,9.83,9.83,0,0,0-3,7.78Z"/><path class="cls-4" d="M324.44,75.36h84.18s-3.37-3.93-7.19-5.26c-4.81-1.69-6.81,3-9.84-3.07-1.7-3.44-2.89-8-7.37-9.13-7-1.83-8.78,4-12.12,2.39-2.93-1.37-2.84-6.86-5.79-11.46s-9.93-7.25-14.74-4.9C342.8,48.2,343.93,55,341.06,57.25s-9.34-5.58-16.62,2.85C319.43,65.91,324.44,75.36,324.44,75.36Z"/><path class="cls-5" d="M412.32,46.43a3.7,3.7,0,1,1-3.7-3.69A3.7,3.7,0,0,1,412.32,46.43Z"/><path class="cls-5" d="M655.74,344.13a3.7,3.7,0,1,1-3.69-3.7A3.69,3.69,0,0,1,655.74,344.13Z"/><path class="cls-5" d="M479.33,191.07a3.7,3.7,0,1,1-3.7-3.69A3.7,3.7,0,0,1,479.33,191.07Z"/><path class="cls-5" d="M22.47,234.87a3.7,3.7,0,1,1-3.7-3.69A3.7,3.7,0,0,1,22.47,234.87Z"/><path class="cls-5" d="M173.16,96.4a3.7,3.7,0,1,1-3.7-3.69A3.7,3.7,0,0,1,173.16,96.4Z"/><path class="cls-5" d="M216.91,79.6a2.51,2.51,0,1,1-2.51-2.51A2.51,2.51,0,0,1,216.91,79.6Z"/><path class="cls-5" d="M625.86,257.35a2.52,2.52,0,1,1-2.52-2.51A2.51,2.51,0,0,1,625.86,257.35Z"/><circle class="cls-5" cx="443.43" cy="174.24" r="2.51"/><path class="cls-5" d="M544.7,111.06a2.51,2.51,0,1,1-2.51-2.51A2.51,2.51,0,0,1,544.7,111.06Z"/><path class="cls-5" d="M539.36,295a2.52,2.52,0,1,1-2.51-2.52A2.52,2.52,0,0,1,539.36,295Z"/><path class="cls-5" d="M149.64,319.05a2.51,2.51,0,1,1-2.51-2.52A2.51,2.51,0,0,1,149.64,319.05Z"/><path class="cls-5" d="M157.18,204.33a2.51,2.51,0,1,1-2.51-2.51A2.51,2.51,0,0,1,157.18,204.33Z"/><rect class="cls-3" x="636.84" y="215.88" width="5.55" height="5.55" rx="1.09"/><rect class="cls-3" x="119.72" y="331.46" width="5.55" height="5.55" rx="1.09"/><rect class="cls-3" x="113.87" y="126.92" width="5.55" height="5.55" rx="1.09"/><rect class="cls-3" x="541.44" y="82.11" width="10.65" height="10.65" rx="2.1"/><rect class="cls-3" x="485.29" y="248.18" width="5.55" height="5.55" rx="1.09"/><path class="cls-4" d="M413.22,213.9c0-.48.07-1,.14-1.53.56-4.46,4.05-4.05,6.23-3.91s4.87.2,5.91-1.87a19.11,19.11,0,0,0,.73-3,5.18,5.18,0,0,1,5-3.46,9.83,9.83,0,0,1,5.8,2.35c5.58,4.22,7.18-6.91,9.82-10.13,3-3.67,8.61-5.72,12.42-3.06s6,7.4,7,12.19c.33,1.56.44,3.46,1.7,4.32,3.69,2.52,8.45-2.36,12.91,1.43,1.56,1.33,1.85,4.54,1.65,6.63Z"/><path class="cls-6" d="M137.75,442.49c-12.53-18.91-38.78-66.69-16-83.14,12.49-9,29.05-.81,37.06,19.1,7.6,18.92,10.51,41.26,13.68,63.78"/><path class="cls-3" d="M138,442.34q-4.19-6.4-7.92-13.08c-3-5.44-5.86-11-8.37-16.71a120.64,120.64,0,0,1-6.45-18.1,55.84,55.84,0,0,1-2.07-17.14c.28-4.95,1.64-9.94,4.77-13.87a19.14,19.14,0,0,1,13.84-7.32c5.87-.27,11.4,2.46,15.7,6.29,5.73,5.11,9.33,11.95,12,19.06a169.68,169.68,0,0,1,7,25.94c1.85,9.27,3.22,18.62,4.54,28,.33,2.32.65,4.64,1,7,.07.54.88.31.81-.22-1.35-9.62-2.66-19.25-4.36-28.82a202.55,202.55,0,0,0-6.46-27c-2.49-7.67-5.54-15.24-10.92-21.38-4-4.58-9.36-8.38-15.48-9.34a19.27,19.27,0,0,0-15.46,4.51A22,22,0,0,0,113,372.76a44.11,44.11,0,0,0,.37,16.67,99.1,99.1,0,0,0,5.56,18.38,172.69,172.69,0,0,0,8.25,17.59q3.94,7.41,8.49,14.49c.6.92,1.2,1.84,1.82,2.76.22.33.75,0,.53-.31Z"/><line class="cls-4" x1="128.17" y1="356.52" x2="157.72" y2="442.55"/><path class="cls-6" d="M87.49,442.51C76.67,428.52,53,393.17,72.65,381c10.78-6.68,24.07-.6,31,14.13,6.56,14,9.07,30.51,11.8,47.17"/><path class="cls-3" d="M87.75,442.35A164.25,164.25,0,0,1,73.61,420.7a85,85,0,0,1-5.86-13.2,37.21,37.21,0,0,1-2.24-12.57A16.41,16.41,0,0,1,69,384.64a17.09,17.09,0,0,1,11.37-5.87,19.34,19.34,0,0,1,13.12,4.08c4.62,3.42,7.87,8.31,10.21,13.48,5.8,12.84,8.16,27,10.44,40.76l.87,5.33c.09.54.9.31.82-.22-2.35-14.31-4.44-28.93-9.79-42.5-2.26-5.71-5.09-11.22-9.62-15.47a22.15,22.15,0,0,0-13-6.25,18,18,0,0,0-12.82,4,15.74,15.74,0,0,0-5.6,9.6,29.31,29.31,0,0,0,.8,12.25A69.66,69.66,0,0,0,71,417.3a141.86,141.86,0,0,0,14.73,23.45l1.53,2c.21.27.7-.1.48-.38Z"/><line class="cls-4" x1="78.22" y1="378.91" x2="103.71" y2="442.55"/><path class="cls-4" d="M214,442.31c-29.64-53.76-48.78-107-24.87-132.37,23.7-25.09,48.48,4.64,54.51,31,7.39,32.27,8.46,67.19,8.31,101.39"/><line class="cls-5" x1="197.88" y1="303.41" x2="233.47" y2="442.23"/><path class="cls-6" d="M169.5,442.48c-11.78-28.44-38.26-86-19.58-103.75,11.94-11.37,33.51,2.57,44.6,27.42,10.54,23.6,13.71,47.9,20,76"/><path class="cls-3" d="M169.79,442.4c-2.63-6.44-5.36-12.84-8-19.28-3.08-7.54-6-15.13-8.73-22.82a208.29,208.29,0,0,1-6.85-23.36,81.27,81.27,0,0,1-2.34-20.89c.23-5.38,1.36-11.1,4.82-15.4a14.68,14.68,0,0,1,6.72-4.82,15.76,15.76,0,0,1,8.48-.25c7.21,1.63,13.39,6.67,18.24,12,6.57,7.25,11.07,15.9,14.62,24.95a211.63,211.63,0,0,1,8.86,29.6c2.45,10.55,4.48,21.2,6.72,31.8q.88,4.16,1.81,8.3c.11.53.93.3.81-.23-2.48-11-4.58-22.12-7-33.17a262.38,262.38,0,0,0-8.18-30.48c-3.31-9.53-7.32-18.89-13.44-27-4.75-6.26-10.75-12.13-18.08-15.24-5.49-2.33-11.92-2.76-17,.9-4.45,3.22-6.75,8.43-7.67,13.71-1.13,6.56-.52,13.34.56,19.86A162.52,162.52,0,0,0,150.14,394c2.57,8,5.52,15.79,8.63,23.56,2.78,6.95,5.69,13.85,8.62,20.73l1.81,4.27c.15.36.74.21.59-.16Z"/><path class="cls-6" d="M399.18,442.32c-10-114.45,14.32-156.26,40.92-158.13,12.59-.89,49.5,6.36,4.94,158.06"/><path class="cls-3" d="M399.37,442.32c-.79-12.11-1.69-24.19-2-36.33-.26-10.32-.22-20.65.28-31,.43-8.69,1.17-17.37,2.4-26a182.19,182.19,0,0,1,4.2-21.07,110.83,110.83,0,0,1,5.75-16.6A67.88,67.88,0,0,1,417,299a41.77,41.77,0,0,1,8-8.41,29.36,29.36,0,0,1,8.6-4.73,25.61,25.61,0,0,1,7.45-1.38,21.6,21.6,0,0,1,3.82.21,18.36,18.36,0,0,1,8.94,3.85,22.38,22.38,0,0,1,4.35,4.66,33.17,33.17,0,0,1,3.75,7.18,55.6,55.6,0,0,1,2.75,10.21A97.19,97.19,0,0,1,466,324.35a166,166,0,0,1-.42,17.7c-.54,7.46-1.45,14.89-2.59,22.28-1.41,9.12-3.17,18.18-5.15,27.2-2.4,11-5.13,21.85-8.08,32.67-1.63,6-3.22,12-5,18a.3.3,0,0,0,.58.16c1.82-6.2,3.69-12.37,5.37-18.61q2.32-8.6,4.46-17.25c2.44-10,4.65-20,6.53-30.05,1.51-8.14,2.8-16.33,3.72-24.56.75-6.6,1.26-13.24,1.38-19.88a124.12,124.12,0,0,0-.61-15.66,71.62,71.62,0,0,0-2.2-11.88,41.58,41.58,0,0,0-3.39-8.6,27,27,0,0,0-4.21-5.9,20.5,20.5,0,0,0-4.65-3.64,19,19,0,0,0-4.65-1.89,21.48,21.48,0,0,0-4.29-.64,25.72,25.72,0,0,0-5,.31,27.4,27.4,0,0,0-9,3.12,34.85,34.85,0,0,0-8.4,6.6,53.67,53.67,0,0,0-7.6,10.43,87.38,87.38,0,0,0-6.46,14.53,140,140,0,0,0-5,18.9,226.35,226.35,0,0,0-3.34,23.6c-.87,9.51-1.27,19.06-1.35,28.6-.09,11.35.27,22.71.95,34,.37,6.15.8,12.3,1.46,18.42,0,.25.41.26.39,0Z"/><line class="cls-4" x1="445.28" y1="284.45" x2="421.78" y2="442.25"/><path class="cls-6" d="M477.79,442.33c8.15-68,35.59-107.23,60.39-96.59,20.28,8.71,9.81,46.58-21.78,96.55"/><path class="cls-3" d="M478,442.38c.87-5.71,1.64-11.44,2.68-17.13,1-5.28,2.07-10.54,3.37-15.75a186,186,0,0,1,8.79-26.95,108.38,108.38,0,0,1,10.94-20.35,51.94,51.94,0,0,1,12.36-12.95,24.7,24.7,0,0,1,13.07-4.84,19.25,19.25,0,0,1,12.65,3.95c3.7,3,5.52,7.53,6.11,12.17.8,6.38-.31,12.94-1.89,19.12a145.75,145.75,0,0,1-9.24,25,315.15,315.15,0,0,1-15.94,29.64c-1.57,2.63-3.17,5.24-4.74,7.87-.2.33.31.62.52.3,3.5-5.25,6.72-10.67,9.84-16.15,2.8-4.93,5.48-9.92,8-15a177.52,177.52,0,0,0,10.89-26.4c2.07-6.69,3.69-13.73,3.58-20.77-.09-5-1.16-10.17-4.38-14.11a18.49,18.49,0,0,0-12-6.21,22.58,22.58,0,0,0-13.35,2.63,42.69,42.69,0,0,0-12.83,11,90.35,90.35,0,0,0-11.51,18.65,163.33,163.33,0,0,0-9.49,25.61,247.7,247.7,0,0,0-6.8,32.11c-.42,2.83-.78,5.66-1,8.5,0,.22.35.27.38.05Z"/><line class="cls-4" x1="538.18" y1="345.74" x2="497.61" y2="442.29"/><line class="cls-4" x1="156.37" y1="335.2" x2="192.61" y2="442.55"/><path class="cls-6" d="M480.82,442.46c16-34,48.34-111.53,24-139-13.36-15.1-37.82,3.44-50.79,36.74-12.32,31.62-21.54,64.18-29.19,101.84"/><path class="cls-3" d="M481.09,442.61q5.6-11.79,10.61-23.84c4.05-9.74,7.81-19.61,11.12-29.63a259.13,259.13,0,0,0,8.42-31.22c1.86-9.45,3.12-19.16,2.65-28.8-.37-7.78-1.89-15.85-6.16-22.49a20.13,20.13,0,0,0-7.64-7.41,15.58,15.58,0,0,0-9.93-1.17,28.2,28.2,0,0,0-11,5.15,57.4,57.4,0,0,0-10.79,10.56,91.91,91.91,0,0,0-9.88,15.38,167.63,167.63,0,0,0-7.87,18.7q-7.34,19.7-13.12,39.93c-4.08,14.22-7.64,28.6-10.78,43.06q-1.2,5.52-2.32,11.07c-.11.53.7.75.81.22,3-14.57,6.3-29.07,10.14-43.44q5.42-20.19,12.26-40c2.25-6.48,4.6-12.94,7.14-19.31A107.36,107.36,0,0,1,463.57,322a75.57,75.57,0,0,1,10.33-13.16,41,41,0,0,1,11-8.15,19,19,0,0,1,10.42-2.08,14.64,14.64,0,0,1,8.94,4.8c5.14,5.57,7.49,13.19,8.41,20.57,1.14,9.12.37,18.43-1.06,27.47a224.63,224.63,0,0,1-7.37,30.71c-3.1,10.1-6.68,20-10.58,29.86-3.38,8.52-7,16.94-10.81,25.28q-1.14,2.51-2.31,5c-.16.36.36.67.54.31Z"/><line class="cls-4" x1="497.61" y1="298.69" x2="454.76" y2="442.55"/><path class="cls-6" d="M509.11,442.33c21.12-42.82,39.46-54.15,56.68-50.73,13.38,2.66,15.48,22.44-12.82,50.7"/><path class="cls-3" d="M509.28,442.43c2-3.51,3.72-7.13,5.68-10.64,1.72-3.11,3.51-6.17,5.41-9.18a119.57,119.57,0,0,1,10.57-14.54,64.24,64.24,0,0,1,10.12-9.66,36.69,36.69,0,0,1,9.73-5.36,27.69,27.69,0,0,1,9.41-1.64,19.89,19.89,0,0,1,8.63,1.61,10.48,10.48,0,0,1,5.14,5.66,17.74,17.74,0,0,1,.47,9.69,42.9,42.9,0,0,1-5.34,13.17,95.44,95.44,0,0,1-12.24,16.13c-1.35,1.49-2.74,2.94-4.1,4.42a.3.3,0,0,0,.42.43,92.46,92.46,0,0,0,8.23-8.8,95.08,95.08,0,0,0,6.11-8.15,53,53,0,0,0,7-14.18,22.51,22.51,0,0,0,.82-10.83,11.77,11.77,0,0,0-4.18-7,15.58,15.58,0,0,0-8.2-2.77,28.4,28.4,0,0,0-9.59.69,33.7,33.7,0,0,0-9.86,4.34,54.58,54.58,0,0,0-10.19,8.56,101.09,101.09,0,0,0-10.57,13.38,189.84,189.84,0,0,0-11.08,18.88c-.95,1.84-1.89,3.69-2.71,5.59-.1.22.21.42.34.2Z"/><line class="cls-4" x1="564.13" y1="391.89" x2="531.85" y2="442.3"/><rect class="cls-7" x="218.79" y="93.04" width="251.32" height="348.99" rx="10.61"/><path class="cls-7" d="M459.49,93.61a10.05,10.05,0,0,1,10,10V431.42a10.05,10.05,0,0,1-10,10.05H229.4a10.05,10.05,0,0,1-10-10.05V103.65a10.05,10.05,0,0,1,10-10H459.49m0-1.14H229.4a11.19,11.19,0,0,0-11.18,11.18V431.42A11.18,11.18,0,0,0,229.4,442.6H459.49a11.17,11.17,0,0,0,11.18-11.18V103.65a11.18,11.18,0,0,0-11.18-11.18Z"/><g class="cls-8"><polygon class="cls-9" points="404.24 54.54 215.33 451.43 270.24 451.43 459.16 54.54 404.24 54.54"/><polygon class="cls-10" points="476.14 54.54 287.22 451.43 310.5 451.43 499.42 54.54 476.14 54.54"/></g><rect class="cls-6" x="220.23" y="116.69" width="248.43" height="301.49"/><rect class="cls-11" x="237.21" y="235.42" width="107.24" height="83.78"/><ellipse class="cls-12" cx="290.83" cy="265.27" rx="22.2" ry="17.16"/><ellipse class="cls-12" cx="290.83" cy="265.27" rx="15.29" ry="17.16"/><ellipse class="cls-12" cx="290.83" cy="265.27" rx="5.96" ry="17.16"/><line class="cls-12" x1="268.62" y1="265.27" x2="313.03" y2="265.27"/><path class="cls-12" d="M271,272.92c4.24-1.1,11.56-1.82,19.88-1.82s15.63.72,19.87,1.82"/><path class="cls-12" d="M277.39,278.93a51.73,51.73,0,0,1,26.72-.05"/><path class="cls-12" d="M271,257.71c4.24,1.09,11.56,1.82,19.88,1.82s15.63-.73,19.87-1.82"/><path class="cls-12" d="M277.39,251.69a51.73,51.73,0,0,0,26.72.05"/><rect class="cls-13" x="246.33" y="299.79" width="88.99" height="4.43" transform="translate(581.65 604) rotate(180)"/><rect class="cls-13" x="282.14" y="291.55" width="53.19" height="4.43" transform="translate(617.46 587.52) rotate(180)"/><rect class="cls-13" x="246.33" y="291.55" width="29.77" height="4.43"/><rect class="cls-13" x="246.33" y="308.02" width="88.99" height="4.43" transform="translate(581.65 620.48) rotate(180)"/><rect class="cls-14" x="344.33" y="235.42" width="107.24" height="83.78"/><rect class="cls-3" x="353.46" y="250.35" width="88.99" height="4.43" transform="translate(795.91 505.13) rotate(180)"/><rect class="cls-3" x="353.46" y="258.59" width="88.99" height="4.43" transform="translate(795.91 521.61) rotate(180)"/><rect class="cls-3" x="353.46" y="266.83" width="27.71" height="4.43" transform="translate(734.63 538.09) rotate(180)"/><rect class="cls-3" x="388.58" y="266.83" width="53.75" height="4.43" transform="translate(830.91 538.09) rotate(180)"/><rect class="cls-3" x="353.46" y="275.07" width="88.99" height="4.43" transform="translate(795.91 554.57) rotate(180)"/><rect class="cls-3" x="353.46" y="283.31" width="88.99" height="4.43" transform="translate(795.91 571.04) rotate(180)"/><rect class="cls-3" x="353.46" y="291.55" width="88.99" height="4.43" transform="translate(795.91 587.52) rotate(180)"/><rect class="cls-3" x="416.75" y="299.79" width="25.7" height="4.43" transform="translate(859.21 604) rotate(180)"/><rect class="cls-3" x="353.46" y="299.79" width="57.16" height="4.43" transform="translate(764.08 604) rotate(180)"/><rect class="cls-3" x="353.46" y="308.02" width="88.99" height="4.43" transform="translate(795.91 620.48) rotate(180)"/><rect class="cls-3" x="418.88" y="242.11" width="23.57" height="4.43" transform="translate(861.33 488.65) rotate(180)"/><rect class="cls-3" x="353.46" y="242.11" width="59.38" height="4.43"/><rect class="cls-14" x="237.21" y="319.19" width="107.24" height="83.78"/><rect class="cls-3" x="246.33" y="383.58" width="88.99" height="4.43"/><rect class="cls-3" x="246.33" y="375.34" width="88.99" height="4.43"/><rect class="cls-3" x="312.44" y="367.1" width="22.89" height="4.43"/><rect class="cls-3" x="246.45" y="367.1" width="58.57" height="4.43"/><rect class="cls-3" x="246.33" y="358.87" width="88.99" height="4.43"/><rect class="cls-3" x="246.33" y="350.63" width="88.99" height="4.43"/><rect class="cls-3" x="246.33" y="342.39" width="88.99" height="4.43"/><rect class="cls-3" x="246.33" y="334.15" width="41.35" height="4.43"/><rect class="cls-3" x="293.82" y="334.15" width="41.51" height="4.43"/><rect class="cls-3" x="246.33" y="325.91" width="88.99" height="4.43"/><rect class="cls-3" x="246.33" y="391.82" width="41.48" height="4.43"/><rect class="cls-3" x="293.85" y="391.82" width="41.48" height="4.43" transform="translate(629.17 788.08) rotate(180)"/><rect class="cls-11" x="344.33" y="319.19" width="107.24" height="83.78"/><polygon class="cls-15" points="419.76 376.85 376.75 376.46 371.93 352.56 423.92 352.49 419.76 376.85"/><polygon class="cls-15" points="423.92 352.49 371.93 352.56 397.89 336 423.92 352.49"/><rect class="cls-6" x="379.83" y="350.16" width="35.48" height="23.17" transform="translate(-0.49 0.54) rotate(-0.08)"/><polygon class="cls-13" points="371.93 352.56 371.99 378.69 397.96 366.51 371.93 352.56"/><polygon class="cls-13" points="423.92 352.49 423.98 378.62 397.96 366.51 423.92 352.49"/><polygon class="cls-13" points="423.98 378.62 371.99 378.69 397.95 362.13 423.98 378.62"/><polyline class="cls-16" points="371.99 378.69 397.95 362.13 423.98 378.62"/><line class="cls-16" x1="401.68" y1="364.5" x2="423.92" y2="352.49"/><line class="cls-16" x1="394.22" y1="364.51" x2="371.93" y2="352.56"/><rect class="cls-13" x="377.22" y="388.67" width="41.48" height="4.43" transform="translate(795.91 781.78) rotate(180)"/><rect class="cls-11" x="237.21" y="144.4" width="214.48" height="83.59"/><rect class="cls-13" x="341.42" y="156.42" width="101.03" height="5.78" transform="translate(783.88 318.62) rotate(180)"/><rect class="cls-13" x="341.42" y="167.17" width="101.03" height="5.78" transform="translate(783.88 340.12) rotate(180)"/><rect class="cls-13" x="341.42" y="177.92" width="101.03" height="5.78" transform="translate(783.88 361.63) rotate(180)"/><rect class="cls-13" x="341.42" y="188.68" width="101.03" height="5.78" transform="translate(783.88 383.14) rotate(180)"/><rect class="cls-13" x="341.42" y="210.18" width="101.03" height="5.78" transform="translate(783.88 426.15) rotate(180)"/><rect class="cls-13" x="382.08" y="199.43" width="60.38" height="5.78" transform="translate(824.53 404.64) rotate(180)"/><rect class="cls-13" x="341.42" y="199.43" width="33.79" height="5.78"/><rect class="cls-13" x="249.5" y="156.65" width="76.42" height="59.08"/><polygon class="cls-6" points="294.8 175.12 318.05 205.87 271.54 205.87 294.8 175.12"/><polygon class="cls-6" points="271.23 185.23 276.2 192.62 267.3 205.87 257.37 205.87 271.23 185.23"/><path class="cls-6" d="M259.33,173.34c0,1.84,1.92,3.33,4.3,3.33s4.31-1.49,4.31-3.33S266,170,263.63,170,259.33,171.51,259.33,173.34Z"/><path class="cls-11" d="M284,137.56h121c1.9,0,3.44-1.19,3.44-2.66h0c0-1.47-1.54-2.66-3.44-2.66H284c-1.9,0-3.44,1.19-3.44,2.66h0C280.52,136.37,282.06,137.56,284,137.56Z"/><line class="cls-12" x1="344.45" y1="235.42" x2="344.45" y2="402.97"/><line class="cls-12" x1="237.21" y1="319.19" x2="451.69" y2="319.19"/><line class="cls-17" x1="55.27" y1="442.6" x2="612.82" y2="442.6"/><polygon class="cls-18" points="216.71 381.09 306.18 381.09 277.98 467.68 280.62 468.54 310 378.31 214.69 378.31 185.59 467.68 188.23 468.54 216.71 381.09"/><polygon class="cls-18" points="247.16 467.68 218.96 381.09 308.43 381.09 336.91 468.54 339.55 467.68 310.44 378.31 215.14 378.31 244.52 468.54 247.16 467.68"/><rect class="cls-18" x="208.38" y="405.58" width="109.51" height="2.77"/><rect class="cls-18" x="197.1" y="435.69" width="131.02" height="2.77"/><path class="cls-19" d="M261.54,183.44s2.23-3.9-1.31-14.36a10.54,10.54,0,0,0-19-2.72c-3.77,6.48-2.5,10.51,3,17.82S259.24,186.79,261.54,183.44Z"/><path class="cls-19" d="M234,363.42s-.58,4.29-.66,4.94-6.51-.38-6.51-.38l-.53-5.12S233.23,362.81,234,363.42Z"/><path class="cls-20" d="M233.44,367.81a17.72,17.72,0,0,0,4,3.72c2,1.13,5.08,1.57,6.25,2.74.84.85,3.07,4.47-5.14,4.4s-12.15.51-13-.88,1.27-10.27,1.27-10.27A22.39,22.39,0,0,0,233.44,367.81Z"/><path class="cls-19" d="M278.66,363.42s-.58,4.29-.66,4.94-6.52-.38-6.52-.38l-.52-5.12S277.86,362.81,278.66,363.42Z"/><path class="cls-20" d="M278.07,367.81a17.72,17.72,0,0,0,4,3.72c2,1.13,9.24,2.05,10.41,3.22.84.85,2.25,4.24-9.3,3.92-8.2-.22-12.16.51-13-.88s1.27-10.27,1.27-10.27A34.33,34.33,0,0,0,278.07,367.81Z"/><path class="cls-21" d="M236.2,256.45s-3.3,10.27-2.87,19.12-1.7,18.53-2.58,27.78c-1,10.3-5,34.7-5.12,40.22s.62,23.11.62,23.11l8,.2s6.73-42.66,8.47-47,10.37-35.39,10.66-38.87S236.2,256.45,236.2,256.45Z"/><path class="cls-21" d="M269.39,255.38s4.86,27.15,5.44,32.57,1,26.21,1.26,29.6,1.93,44.3,3.48,49.33h-8.92s-9.17-29.75-9.17-43.82-6.07-30.6-10-39.88-12.89-9.51-15.3-26.73C236.2,256.45,266.13,249.91,269.39,255.38Z"/><path class="cls-19" d="M258.3,186.2s-1,2.93,0,5-12.86.84-12.86.84a14.88,14.88,0,0,0-1.19-7.88C242.44,180.63,258.3,186.2,258.3,186.2Z"/><path class="cls-21" d="M235.56,258.68s5,5.13,34.28-.79l-.45-2.51-33.3,1.25Z"/><path class="cls-19" d="M260.4,191.9s5.12.52,6.59.8,11.31-1.76,13.33-2,10.64-6.11,10.92-6.81,5.25-13.27,5.52-16,4.84-1.32,4.45.56c-.73,3.5-1.67,12-2.18,14.47-.56,2.66-2,8.69-2.89,9.43s-8.59,6.65-16.19,9.16a63.91,63.91,0,0,0-13.31,6.2H229.19s-14.56-20.82-14.87-23.95,10.17-24,12.26-26.6,5.12.85,5.12.85-6.27,18.39-7.1,21,7.28,14.1,9.51,14.13,8-.7,10.5-.8a17.62,17.62,0,0,0,5.23-1.22Z"/><path class="cls-22" d="M276.54,205.81s-4.59,3-5,8.27a108.17,108.17,0,0,1-2.92,16.31c-.84,2.82.73,23.31.94,24.78s-29,4.94-33.46,1.46c0,0-1.25-19.13-1.77-24.57s-3-18.61-3.87-20.38-11-16-11.4-17.88c0,0,5.25-8.36,9-8.47,0,0,6,7,7.93,7.32s13.9-1.88,13.9-1.89,1.3,1.77,8.23-.32c0,0,8.26.93,9.6,1.1,1.63.21,12.93-1.42,12.93-1.42s4.53,7.66,3.74,11.53Z"/><path class="cls-19" d="M296.5,169.57s1-4.84-.21-6.24c-.7-.79-2.38-2.88-2.54-3.19s-2-1.35-2-1.85,1.77-1.12,3.31.31,2.5,1.73,3.12,1.58,1.5-5.28,1.58-6.55.57-4.62,1.36-4.39.76,1.69.76,1.69.92-2.54,1.54-2,.54,1.74.54,1.74,1.15-1.43,1.46-.39a3.56,3.56,0,0,1,0,2s1.19-.65,1.27,1-.35,6.35-1.19,8.05-4,6.12-4.4,7.85S296.5,169.57,296.5,169.57Z"/><path class="cls-19" d="M230.68,161.06s3.48-5.85,4.66-6.38a20.12,20.12,0,0,0,4.33-1.86c1.46-1,3.39-1.92,3.29-2.27s-1.83-.21-3.68.6-2.66.41-2.83,0,1-3.37,1.54-4.07,4.53-4.69,3.87-5.28-3.24,1.6-3.66,2.06c0,0,2.06-4.33,1.26-4.54s-2.3,1.33-2.3,1.33.17-3.69-3.8,2.3c0,0,.83-2-.39-1.33s-2.4,4.4-2.78,6.28-2.13,7.87-3.61,9.32S230.68,161.06,230.68,161.06Z"/><path class="cls-23" d="M244.25,184.18s1.84.17,5.74-1.18,4.2-8.17,5-7.37a2.47,2.47,0,0,0,4-.46s-1.9-2.51-1-3.72a9.26,9.26,0,0,1,2.32-2.09s-2.75-13.23-15.24-7.2C230.45,169.22,244.25,184.18,244.25,184.18Z"/><path class="cls-24" d="M258.3,191.22l-.44-1.91a101.64,101.64,0,0,0-12.32.47l-.46,2.29S250.65,194.59,258.3,191.22Z"/><path class="cls-19" d="M256.34,174c-.73-1.2-3.41-2-3.72,1.4-.25,2.64,4.78,5.52,4.83,3.06A7.44,7.44,0,0,0,256.34,174Z"/><path class="cls-25" d="M296.69,168.47s2.88.07,4.27,1.33a2.77,2.77,0,0,1-.23,1.43,17.83,17.83,0,0,0-4.4-1.38A2.82,2.82,0,0,1,296.69,168.47Z"/><path class="cls-23" d="M300.08,169.19a1.24,1.24,0,0,1-.65,1.62,1.25,1.25,0,0,1-1.63-.66,1.24,1.24,0,1,1,2.28-1Z"/><polygon class="cls-26" points="336.74 313.88 423.81 308.29 424.29 359.19 345.94 359.19 336.74 313.88"/><polygon class="cls-27" points="340.51 309.14 423.81 308.29 424.29 359.19 345.94 359.19 340.51 309.14"/><path class="cls-28" d="M339.19,249.88s2,2.18,2.76,1.22,1.67-2.32,1.67-2.32Z"/><path class="cls-28" d="M335.28,229.06l2.55,11.85c-.78-1-2.16-2.5-2.61-2-.63.66,1.49,3.89,1.86,5.28a30,30,0,0,0,1.32,4.45l1,1.93,4.26-1.74s-.2-8.44-.36-10.34c-.26-3.1-6.21-9.79-6.79-9.86C335.43,228.45,335.28,229.06,335.28,229.06Z"/><path class="cls-22" d="M422.5,453.27a20,20,0,0,0,2.21,4c1,1.14,4.88,3.19,4.9,6.59,0,3.69-6.53,2.66-9.08,2.53s-2.76-2.11-3.84-4.19-2.16-1.74-2.36-3.42.82-5.45.82-5.45Z"/><path class="cls-22" d="M362.18,453.94s-3.57,3.74-7.19,4.52-6.15,1.79-6.17,3.94,10.41,3.56,14.55,1.39c6.18-3.23,6.81-2.25,7.5-3.87s-.82-5.93-.78-6.45S362.18,453.94,362.18,453.94Z"/><path class="cls-29" d="M371.69,345.83s-3.75,27.2-5.28,36.4c-1.78,10.75-2.39,19.63-2.89,25.2-.63,7-1.83,43.8-2.27,45.84s9.8,1,9.8,1,7.42-47.72,9.29-55.17c1.74-6.94,6.52-35.56,8.11-33.66s11.56,35.37,12.73,40.84,12.51,48.33,12.51,48.33,8.47,1.82,10.63.11c0,0-7.39-39.37-8.14-49.64-.29-3.91-2.61-46.62-9.22-63.93C403.47,332,371.69,345.83,371.69,345.83Z"/><path class="cls-30" d="M382.67,280.6s-9.91,2-11.08,3.09-3.53,12-3.66,15A115.73,115.73,0,0,0,370.4,319c1.27,4.7,1,29.24.41,33.11,0,0,19.88,3.88,39.49,1.33,0,0-3.39-21.32-2.6-27.76,1-8.25,3.42-27.27,3.42-27.27s-2.62-12.81-4.36-14.29-13.89-3.88-13.89-3.88Z"/><path class="cls-19" d="M386.77,250s-11.92-4.41-11.17,11.43,3.53,17.45,11.37,15.24,8.5-12.21,9.52-17S390.67,250.65,386.77,250Z"/><path class="cls-19" d="M380.71,283.11s6.19,5,12.16-2.84a42.23,42.23,0,0,1,1.56-12.33c1.82-6-12.48,7.94-12.48,7.94.15.11.18.7.09,1.53a15.54,15.54,0,0,1-.46,2.46C381.06,281.86,381.18,281.51,380.71,283.11Z"/><path class="cls-31" d="M394.84,267.47s0-4.24-1.73-4.62-2.66,2-2.66,2l-1.42-.07s1.26-4.29-.41-5.28-11.72-.11-13-1.56.56-10,3.3-10.86,10.22-2.55,15,1.68c0,0,4.25,0,4.24,5.13C398.16,257.31,396.27,265.17,394.84,267.47Z"/><path class="cls-32" d="M381.58,279.87c9.24-1.55,10.62-6.81,10.64-6.89-3.59,4.63-10.18,4.43-10.18,4.43A15.54,15.54,0,0,1,381.58,279.87Z"/><path class="cls-19" d="M391.12,261.05c.53-1.4,3.5-1.22,3.19,1s-2.76,5.62-3.74,5S390.39,263,391.12,261.05Z"/><path class="cls-19" d="M396.08,281s-5.59,11.29-13.81,10.38-3.46-8.8-2.67-10.05C379.6,281.28,384.53,278.11,396.08,281Z"/><path class="cls-30" d="M344.17,271.83c-2.32-4.52-7.43-22-7.43-22l7.23-1.52s3.85,8.79,5.68,14.87a49.77,49.77,0,0,0,2.35,6.34c.27.47,12.59,9.8,13.93,10.48s6.49,2.48,9,5a6.07,6.07,0,0,1,1.27,5.93c-5.23,6.73-14.89-2-14.89-2S347.43,278.17,344.17,271.83Z"/><path class="cls-30" d="M356.23,284.76s11.41,12.46,11.8,17.08c.28,3.29,2.34-9.91,2.34-9.91Z"/><rect class="cls-3" x="345.94" y="305.37" width="85.41" height="53.81" transform="translate(777.28 664.56) rotate(180)"/><path class="cls-33" d="M418.07,361.89a5,5,0,0,0,.37-1.51s-.14-.93-.19-1.61a3.35,3.35,0,0,1,0-.52,9,9,0,0,0,0-2.84c-.28-1.23-1.7-5.48-1.7-5.48l-3.84.57-3.34-.45s-2.48,7.25-2.36,8.43a3.23,3.23,0,0,0,.06.33,11.22,11.22,0,0,0,.93,2.14c.07.19.81,2,1.36,2.16a1.88,1.88,0,0,0,1.83-.26,4.54,4.54,0,0,0,2.5,0,2.85,2.85,0,0,0,2.45-.48S417.55,362.61,418.07,361.89Z"/><path class="cls-30" d="M401.3,283.88c-1.3.5-2.68,3.65-1.65,9.81a26.58,26.58,0,0,0,4.16,11c.88,1.54,6.3,11.85,6.28,13.37,0,4,0,14.45-.08,15.26-.22,1.37-1.1,17.16-1.1,17.16l8.38,2s1.65-17.81,2.4-23.19a57,57,0,0,0,.2-14c-.72-5.69-4.85-18.28-5.4-19.28S409.89,280.55,401.3,283.88Z"/><path class="cls-34" d="M350.72,100.35a67.4,67.4,0,0,0-5-7.9c-1.8-2.09-7.78-3.66-7-6.33s8.83-1.51,11,1.1,8.94,3.54,9.17,4.65S356.66,99,355.21,100,350.72,100.35,350.72,100.35Z"/><path class="cls-22" d="M337.27,105.27a64.52,64.52,0,0,0-7.64-5.29c-2.48-1.21-8.6-.27-8.91-3s7.5-4.89,10.56-3.37,9.62-.3,10.27.62.69,7.49-.24,9S337.27,105.27,337.27,105.27Z"/><path class="cls-19" d="M348.72,115.91s2.25-15.39,2.14-18.06c0-.76,4.64-.48,4.42,1-.48,3.2,1.67,15.57,1.3,17.83S348.52,117.33,348.72,115.91Z"/><path class="cls-19" d="M341.66,120.33s-4.21-14.94-5.2-17.43c-.43-1.1,3.86-2.82,4.45-.84.91,3.09,7.72,13.61,8.27,15.84S342.05,121.72,341.66,120.33Z"/><path class="cls-29" d="M344.59,130.72s-4.53-15.28-5.22-16.9l7.14-4.42s3.31,9.76,3.77,12.2S344.59,130.72,344.59,130.72Z"/><path class="cls-35" d="M471,90.36s-6.89,1.75-10.18,7-6.11,11.23-12.28,14-6.21,9.75-5.73,10.84,19.43,22.37,23.56,23.2,11.87.25,11.05-5.22-8.94-17.25-4.39-23.18a31.54,31.54,0,0,0,5.7-11.41Z"/><path class="cls-19" d="M469.83,115.83a2.44,2.44,0,0,0-.54-.1,4,4,0,0,0-1.61.2,3.24,3.24,0,0,0-.63.31c-1.64,1-5.52,3.59-6,3.65s-.1-9-.1-9,2.07-3.65,2.33-6S469.83,115.83,469.83,115.83Z"/><path class="cls-29" d="M421.31,125.29s-7.58-5.32-16.47-3.66-9.84,5.81-12.89,6-13.24-.69-21.6,1.75-15.42,2.7-16.38,2,5.23-14.64,5.23-16.56l-10.37-2.7s-3,12.37-4.12,15.16c-1.24,3-3.63,8.6-.23,13.47s12.89,2.68,18.64,3.67,31.48.35,36,.11c4.88-.26,19.6-1,19.6-1Z"/><path class="cls-19" d="M483.55,97.75s.49,7.48-1.18,9.73a10.4,10.4,0,0,1-1.41,1.65,3.27,3.27,0,0,0-.95,1.37c-.52,1.44-.83,3.47-1.24,3.9s-1.74-.73-2.21-.73-5,3.93-6.12,3.13-7.74-7.56-7.18-12.19,2.6-11.54,10.09-11.5S483,95.88,483.55,97.75Z"/><path class="cls-30" d="M460.92,133.48a33.72,33.72,0,0,1-5.92,7.25,6.33,6.33,0,0,1-3.73,1.81h-1c-3.47.09-6.13.62-10.8.86-4.86.24-16.64-.44-17-.44s-3.75.61-3.75.61c-1.21-1.48,2-18.21,2.62-18.29s4.53,1.39,8.27.78,5.23-1,10.81-7.49,11.15-8.19,13.5-7.67,7,0,7,0S461.12,133,460.92,133.48Z"/><path class="cls-35" d="M480.41,103.11s1.39,3.61,2.13,4.11c0,0,2.7-2.85,1-9.88s-8.26-7.69-12.48-7c-5.24.89-10.52,18.64-10.25,20.37s6.15-9.17,11.3-8.3S477.27,103.6,480.41,103.11Z"/><path class="cls-32" d="M469.31,115.75a3.92,3.92,0,0,0-1.62.21,2.89,2.89,0,0,0-.64.28c-1.21-1.88-2.32-6.33-2.36-6.48C465.49,111.47,469.31,115.75,469.31,115.75Z"/><path class="cls-36" d="M455,140.73a6.33,6.33,0,0,1-3.73,1.81h-1l1.7-13.87Z"/><path class="cls-19" d="M482.1,164.61l-3.34,3a117.78,117.78,0,0,1-11.5-7.93c-1.46-1.24-11.19-9.38-12.52-11.23s-3.06-21-2.88-21.9,8.45-1.31,9.39.72c0,0,.43,10.93.66,12.76a9.5,9.5,0,0,0,2.16,5c1.74,2.13,5.44,7.08,9,11.07C473.94,157.12,481,163.66,482.1,164.61Z"/><path class="cls-30" d="M461.93,127.55s.52-14.55-4.21-14.37c-6,.23-6.88,7.55-6.07,15.5C451.65,128.68,460.6,128.77,461.93,127.55Z"/><path class="cls-19" d="M480.49,163.19a2.46,2.46,0,0,0,1.09.91c1.12.38,2.77-.34,3.58,1.11s-3.11,5.11-4.17,5.33-2.74-1.42-4.06-4.65S480.49,163.19,480.49,163.19Z"/><path class="cls-19" d="M484.81,164.76a48.87,48.87,0,0,1,4,3.48c1.77,1.72,3.58,4,3.12,4.39-.62.58-1.83-1.35-3.7-2.94s-1.63-.9-1.63-.9,0-.16,1.55,1.78c1.7,2.09,3.44,4.58,2.92,4.93-.32.23-.34.29-1.08-.37.35.46.27.62.08.77-.94.79-3.91-1.91-5.08-3,.9.83,1.47,1.53.56,1.64s-5.07-3.88-6.65-5.18S484.81,164.76,484.81,164.76Z"/><path class="cls-3" d="M424.71,126s-1.59,11.46-.81,17.09a2.9,2.9,0,0,0,2.49.12s.42-12.5,1.35-16.94C427.74,126.22,427.23,125.83,424.71,126Z"/><rect class="cls-3" x="425.09" y="4.62" width="1.24" height="129.99"/><g id="fibody"><path class="cls-19" d="M554.87,313.24s-4.59-1.84-5.06-3.64c-.27-1-1.08-3.59-1.25-3.89s0-2.38-.44-2.66-1.91.85-1.59,2.92.05,3-.42,3.47-5.22-1.69-6.32-2.33-4.15-2.1-4.4-1.31,1,1.57,1,1.57-2.62-.65-2.55.14,1.14,1.42,1.14,1.42-1.83.16-1.13,1a3.61,3.61,0,0,0,1.63,1.09s-1.21.63.09,1.59,5.47,3.25,7.35,3.49,7.33.07,9,.72S554.87,313.24,554.87,313.24Z"/><path class="cls-23" d="M588,453s-2.38,3.57-5.73,4.34-6.65,2-6.67,4.11,9.68,3.38,13.51,1.25c5.71-3.18,6.29-2.22,6.93-3.81s-.76-5.84-.72-6.34S588,453,588,453Z"/><path class="cls-37" d="M588.35,451.22A16.63,16.63,0,0,0,588,453c.07,0,7.54.93,7.32-.45-.19-1.12-.45-2.34-.45-2.34Z"/><path class="cls-23" d="M613.15,452.75s-1.71,3.41-4.61,4.57c-3.11,1.25-5.6,2.68-5.55,4.74s7.6,4.14,13.09.19c3.47-2.5,4.56-2.51,5.12-4.08s-1-5.66-1-6.15S613.15,452.75,613.15,452.75Z"/><path class="cls-37" d="M613.06,451a15.6,15.6,0,0,0,.09,1.78c.06,0,7.29.63,7.1-.73a10.84,10.84,0,0,0-.7-2.37Z"/><path class="cls-22" d="M586.56,346.66s-6.71,29.61-8.24,38.64C577,393,576,401,576.59,406.51c.78,6.87,10.49,42.43,10.09,44.44s10.16.33,10.16.33-7.39-39.68-5.91-47.06c1.09-5.47,10.67-41.8,12.14-39.94s3.29,34.29,4.37,39.67,4.43,47.91,4.43,47.91,7.46,1.1,9.45-.58c0,0,.91-36.32.22-46.41-.27-3.84,4.5-46.11-1.61-63.12C616.69,332.76,586.56,346.66,586.56,346.66Z"/><path class="cls-38" d="M624.15,305.25v0h0s0,0,0,0a.64.64,0,0,0,0,.07.06.06,0,0,0,0,0s0,0,0,0c-.44,1.61-3.1,11.7-3.19,16.68-.11,5.41-1.53,15.42-1.53,15.42h0l-1.66.24-3.68.51-.44.07-1.07.15-9.76,1.37-3.45.49-.47.06-2,.28-5.46.77-1.39.19h0l-1,.14-1.44.2h0c0-.05-1.4-1.92-1.19-6.06.13-2.68.45-7.7.32-12.37v-.07c0-.06,0-.12,0-.18v-.06h0a33.43,33.43,0,0,0-.79-6.83,28.65,28.65,0,0,1-.68-3.65c0-.05,0-.11,0-.16,0-.22,0-.43-.07-.64a32.67,32.67,0,0,1-.05-5.84h0c-.1.21-.81,2.82-1.75,6-1.57,5.45-3.78,12.64-4.72,13-1.37.5-16.43-6.17-21.21-5.5l-1-6.34,17.38,3.18,10-28.88c.23-.19,2.93-1.5,4.91-2.44s4.45-2.37,6.65-3.57c1.12-.62,2.18-1.18,3.1-1.6l.14-.06h0l2.53-1.16h0l.66-.06c2.12-.2,8.7-.82,10.9-.95l.45,0h.23a27.91,27.91,0,0,1,3.41,1.17h0l.2.08.25.09.47.18,1,.39.35.13a69.75,69.75,0,0,1,8.62,3.87l-3.45,21.55"/><path class="cls-34" d="M587.51,342.06s-.73.88-1,4.6c0,0,30.18-3.52,33.37-4.91,0,0,.12-4.1-.56-4.17S587.51,342.06,587.51,342.06Z"/><path class="cls-19" d="M613.24,276.81c-.09,4.73-9.26,7.32-9.26,7.32s-3.84-4.81-2.92-5.27c.36-.18.5-.9.55-1.7a18,18,0,0,0-.05-2.15c0-.33-.06-.55-.06-.55s1.31-1.38,3-3c2.91-2.88,6.92-6.57,6.92-5.1a1.58,1.58,0,0,1,0,.28C610.67,269.91,613.24,276.81,613.24,276.81Z"/><path class="cls-23" d="M612.48,338.31s.66,4.15.72,5.23l1.39-.27s-.38-4.4-.61-5.13Z"/><path class="cls-23" d="M590,341.58s-.53,3.77-.54,5.2l1.47-.19s.3-4.72.47-5.21Z"/><path class="cls-32" d="M609.71,269.87h0s-.41.61-1.07,1.44c-1.41,1.77-4.06,4.68-7,5.85a18,18,0,0,0-.05-2.15,4.62,4.62,0,0,1-.91-.11,28.14,28.14,0,0,1,2-2.92l1.84-.55Z"/><path class="cls-29" d="M629.38,339.47l1.16,2.21a44.07,44.07,0,0,1,2.28,5.1c.69,1.93,1.65,6.87-.18,7.78L623,359.89s-.06-.19-.19-.54c-.32-.86-1-2.72-2-5.12,0-.08-.13-.3-.28-.64s-.46-1.1-.78-1.84l-.45-1-.53-1.25-.77-1.78L616.84,345l-.1-.21q-.47-1-1-2c-.51-1.05-1-2.1-1.57-3.13l-.16-.31-.28-.54-.18-.32s0,0,0-.08a.54.54,0,0,1-.07-.13c-2.79-5.09-5.94-9.34-6.94-15.58-.1-.61-.19-1.21-.28-1.8-.14-1-.27-2-.4-2.93,0-.36-.09-.72-.13-1.08-.5-4.16-.8-7.87-1.05-10.45-.75-8.06,4.18-16.77,8-22.16A56.67,56.67,0,0,1,616.7,279l0,0,.2.08.25.09.47.18,1,.39.35.13c3.67,1.44,14.44,6.23,15.41,6.93l-5.14,18s-3.12,19.56.14,34.65"/><path class="cls-29" d="M598.46,280.14a129.33,129.33,0,0,0-3,15c0,.37-.11.73-.17,1.11,0,0,0,.08,0,.14,0,.24-.07.49-.11.74a.38.38,0,0,0,0,.1c0,.16-.05.34-.08.51-.06.43-.12.86-.19,1.29-.74,5.22-1.79,14.1-2.8,23.08-.4,3.53-1,7.11-1.66,10.48s-1.22,6.54-1.5,9.25h0a38.11,38.11,0,0,1-.76,4.07c0,.19-.09.36-.13.54-1.62,6.83-4.76,16.51-4.76,16.51l-.91-.84-2.71-2.51a2.17,2.17,0,0,1-.6-2.26c1.5-4.84,6.6-22,7.54-34h0c.29-3.8-.81-7.36-1.46-10.74l0,.08c-.53,1.5-1.13,3.13-1.73,4.71-.81,2.12-1.62,4.17-2.32,5.71s-1.28,2.6-1.63,2.72c-1.53.56-30.31-7.3-30.5-8.43l2-7.43,21.85,4.76,10.42-27.24c.23-.18,3.21-1.79,5.19-2.74s4.67-2.18,7-3.25l3-1.39Z"/><path class="cls-39" d="M614.17,290.75l-4.46,2.52,1.91,1.94-5.08,27.4c-1-6.43-1.5-12.52-1.86-16.26-1.16-12.45,11.26-26.49,12-27.35.59.22,1.24.47,1.9.74Z"/><path class="cls-39" d="M598.53,280s-1.66,5.44-3.61,19c-.74,5.22-1.79,14.1-2.79,23.06l-1-25.65,2.13-2.31-1.89-2.36,4-10.32,3-1.39Z"/><path class="cls-40" d="M616.94,279.05l-3.7-2.24s-.1,2-9.26,7.32l2.6,7.33Z"/><path class="cls-40" d="M601.54,277.83s.15,2.19,2.44,6.3l-5.08,6.62L598.53,280Z"/><path class="cls-41" d="M604,284.13s1,3.94.63,5a4.78,4.78,0,0,1-3.72-.2A17.3,17.3,0,0,1,604,284.13Z"/><path class="cls-42" d="M598.91,340.89c-.55-2.78,0-11.1,0-11.45l.47,0c0,.08-.54,8.61,0,11.32Z"/><path class="cls-43" d="M602.76,339.61s-4.44.53-5.91.89l.19,5,5.82-.62Z"/><path class="cls-41" d="M601.79,288.62a69.72,69.72,0,0,0-4.15,26.5c.84,14.51,2.21,19.77,2.21,19.77l3.06,3.83,1.34-4.7s-4.09-18.51-1.45-36.51c.48-3.26,1.19-9.44,1.19-9.44Z"/><path class="cls-22" d="M585.31,306.23c-.16,3.36-.14,6.34-.14,6.34h0s0,.1,0,.25c0-.05,0-.11,0-.16-.54,1.49-1.13,3.12-1.73,4.7a50.67,50.67,0,0,1-.14-5.13c.24-9.41,3.2-14.35,3.2-14.35C585.8,299.53,585.47,303.05,585.31,306.23Z"/><path class="cls-22" d="M630.54,341.68l-8.08,9.75,6.92-12Z"/></g><path id="f1cog" class="cls-3" d="M562.57,300.18a41,41,0,0,0,8.69-17l-8.29-2.8a32.11,32.11,0,0,0,.67-8.61l8.64-1.47a41.22,41.22,0,0,0-5.9-18.18L558.53,256a32.29,32.29,0,0,0-5.6-6.56l5.06-7.14a40.9,40.9,0,0,0-8-5.35,41.34,41.34,0,0,0-9-3.34l-2.81,8.29a32.07,32.07,0,0,0-8.6-.67l-1.47-8.64a41.35,41.35,0,0,0-18.18,5.9l3.88,7.86a32,32,0,0,0-6.57,5.59l-7.14-5.06a41.16,41.16,0,0,0-5.34,8,40.72,40.72,0,0,0-3.34,9l8.29,2.8a32.08,32.08,0,0,0-.68,8.6l-8.63,1.47a41.14,41.14,0,0,0,5.9,18.18l7.85-3.88a32.08,32.08,0,0,0,5.6,6.57l-5.06,7.14a40.89,40.89,0,0,0,17,8.68l2.81-8.28a32.48,32.48,0,0,0,8.6.67l1.47,8.64a41.35,41.35,0,0,0,18.18-5.9l-3.88-7.86a32,32,0,0,0,6.57-5.59Zm-38.4-12.63a15.76,15.76,0,1,1,21.2-6.88A15.76,15.76,0,0,1,524.17,287.55Z"/><g id="f1head"><path class="cls-19" d="M611.47,266.4c-.79,1.72-1.55,3-1.76,3.47h0a6.18,6.18,0,0,1-1.07,1.44c-1.51,1.63-4.32,3.78-7.08,3.7a4.62,4.62,0,0,1-.91-.11,4.33,4.33,0,0,1-3.16-2.18c-5.72-11.2-1.58-20.35-1.58-20.35s15.64-4.43,18.09.28C615.72,256,613.33,262.34,611.47,266.4Z"/><path class="cls-31" d="M595.91,252.37s-1.45-.08-1.81-2.84.36-3.47.36-3.47,6.46-2.71,8.78-3.06,8-.69,9.36.84c0,0,3.24-.75,4.13,4.64,1.4,8.55-4.78,16.85-4.78,16.85s0-5.58-1.18-6.32-2.3,1-2.3,1l-2.52.45s3.83-8.27-.76-8.57S598.54,252.85,595.91,252.37Z"/></g><path class="cls-19" d="M608.54,257.8c.24-2.46,4.69-3.4,4.39-.82s-2.49,5.06-3.5,5S608.36,259.67,608.54,257.8Z"/><g id="f1arm"><path class="cls-33" d="M555.19,277.44a4.93,4.93,0,0,0,1.3.84s.93.18,1.59.35c.21.05.38.11.5.15a8.85,8.85,0,0,0,2.7.89c1.25.14,5.73.19,5.73.19l.72-3.81,1.52-3s-6-4.72-7.2-5l-.33-.06a11.32,11.32,0,0,0-2.33.19c-.19,0-2.14.11-2.48.57a1.92,1.92,0,0,0-.36,1.82,4.54,4.54,0,0,0-.78,2.37,2.84,2.84,0,0,0-.35,2.47S554.69,276.71,555.19,277.44Z"/><path class="cls-29" d="M634.59,287.17c-.05-1.39-2.57-3.72-8.73-4.77a26.59,26.59,0,0,0-11.74.33c-1.75.33-13.27,2.08-14.7,1.56-3.73-1.35-13.67-4.69-14.38-5.07-1.23-.65-15.86-6.66-15.86-6.66l-4.66,7.26s16.28,7.39,21.12,9.86a57.09,57.09,0,0,0,13.15,4.76c5.62,1.19,18.86,1.41,20,1.22S634.92,296.38,634.59,287.17Z"/></g></svg>